%TF.GenerationSoftware,KiCad,Pcbnew,10.0.0*%
%TF.CreationDate,2026-04-29T22:58:06-07:00*%
%TF.ProjectId,clawtronics,636c6177-7472-46f6-9e69-63732e6b6963,rev?*%
%TF.SameCoordinates,Original*%
%TF.FileFunction,Soldermask,Bot*%
%TF.FilePolarity,Negative*%
%FSLAX46Y46*%
G04 Gerber Fmt 4.6, Leading zero omitted, Abs format (unit mm)*
G04 Created by KiCad (PCBNEW 10.0.0) date 2026-04-29 22:58:06*
%MOMM*%
%LPD*%
G01*
G04 APERTURE LIST*
G04 Aperture macros list*
%AMRoundRect*
0 Rectangle with rounded corners*
0 $1 Rounding radius*
0 $2 $3 $4 $5 $6 $7 $8 $9 X,Y pos of 4 corners*
0 Add a 4 corners polygon primitive as box body*
4,1,4,$2,$3,$4,$5,$6,$7,$8,$9,$2,$3,0*
0 Add four circle primitives for the rounded corners*
1,1,$1+$1,$2,$3*
1,1,$1+$1,$4,$5*
1,1,$1+$1,$6,$7*
1,1,$1+$1,$8,$9*
0 Add four rect primitives between the rounded corners*
20,1,$1+$1,$2,$3,$4,$5,0*
20,1,$1+$1,$4,$5,$6,$7,0*
20,1,$1+$1,$6,$7,$8,$9,0*
20,1,$1+$1,$8,$9,$2,$3,0*%
G04 Aperture macros list end*
%ADD10C,0.813600*%
%ADD11C,0.305000*%
%ADD12RoundRect,0.250000X1.050000X-1.050000X1.050000X1.050000X-1.050000X1.050000X-1.050000X-1.050000X0*%
%ADD13C,2.600000*%
%ADD14R,0.850000X0.850000*%
%ADD15C,0.850000*%
%ADD16RoundRect,0.249999X-0.850001X0.850001X-0.850001X-0.850001X0.850001X-0.850001X0.850001X0.850001X0*%
%ADD17C,2.200000*%
%ADD18RoundRect,0.250000X-1.050000X-1.050000X1.050000X-1.050000X1.050000X1.050000X-1.050000X1.050000X0*%
%ADD19RoundRect,0.250000X-1.050000X1.050000X-1.050000X-1.050000X1.050000X-1.050000X1.050000X1.050000X0*%
G04 APERTURE END LIST*
D10*
%TO.C,J2*%
X164184500Y-60769850D03*
X165479900Y-60769850D03*
X164184500Y-52129850D03*
X165479900Y-52129850D03*
X168156900Y-60769850D03*
X169147500Y-60769850D03*
X168156900Y-52129850D03*
X169147500Y-52129850D03*
X167932300Y-59335550D03*
X167932300Y-59564150D03*
X167932300Y-53449850D03*
%TD*%
D11*
%TO.C,U9*%
X211610000Y-63240000D03*
%TD*%
D12*
%TO.C,J5*%
X169500000Y-122000000D03*
D13*
X169500000Y-117000000D03*
X169500000Y-112000000D03*
X169500000Y-107000000D03*
%TD*%
D12*
%TO.C,M3*%
X225672500Y-108500000D03*
D13*
X225672500Y-103500000D03*
%TD*%
D14*
%TO.C,J6*%
X230500000Y-62500000D03*
D15*
X230500000Y-63500000D03*
X230500000Y-64500000D03*
X230500000Y-65500000D03*
X230500000Y-66500000D03*
X230500000Y-67500000D03*
X230500000Y-68500000D03*
X230500000Y-69500000D03*
X230500000Y-70500000D03*
X230500000Y-71500000D03*
X230500000Y-72500000D03*
X230500000Y-73500000D03*
X230500000Y-74500000D03*
X230500000Y-75500000D03*
X230500000Y-76500000D03*
X230500000Y-77500000D03*
%TD*%
D16*
%TO.C,D5*%
X178500000Y-72000000D03*
D17*
X178500000Y-82160000D03*
%TD*%
D18*
%TO.C,J4*%
X167000000Y-132000000D03*
D13*
X172000000Y-132000000D03*
X177000000Y-132000000D03*
X182000000Y-132000000D03*
X187000000Y-132000000D03*
X192000000Y-132000000D03*
X197000000Y-132000000D03*
X202000000Y-132000000D03*
X207000000Y-132000000D03*
%TD*%
D12*
%TO.C,M2*%
X225672500Y-134000000D03*
D13*
X225672500Y-129000000D03*
%TD*%
D19*
%TO.C,J1*%
X169000000Y-80000000D03*
D13*
X169000000Y-85000000D03*
X169000000Y-90000000D03*
X169000000Y-95000000D03*
X169000000Y-100000000D03*
%TD*%
D12*
%TO.C,M1*%
X225672500Y-121000000D03*
D13*
X225672500Y-116000000D03*
%TD*%
D19*
%TO.C,J11*%
X168827500Y-68000000D03*
D13*
X168827500Y-73000000D03*
%TD*%
M02*
