%TF.GenerationSoftware,KiCad,Pcbnew,10.0.0*%
%TF.CreationDate,2026-05-13T23:48:44-07:00*%
%TF.ProjectId,clawtronics,636c6177-7472-46f6-9e69-63732e6b6963,rev?*%
%TF.SameCoordinates,Original*%
%TF.FileFunction,Soldermask,Top*%
%TF.FilePolarity,Negative*%
%FSLAX46Y46*%
G04 Gerber Fmt 4.6, Leading zero omitted, Abs format (unit mm)*
G04 Created by KiCad (PCBNEW 10.0.0) date 2026-05-13 23:48:44*
%MOMM*%
%LPD*%
G01*
G04 APERTURE LIST*
G04 Aperture macros list*
%AMRoundRect*
0 Rectangle with rounded corners*
0 $1 Rounding radius*
0 $2 $3 $4 $5 $6 $7 $8 $9 X,Y pos of 4 corners*
0 Add a 4 corners polygon primitive as box body*
4,1,4,$2,$3,$4,$5,$6,$7,$8,$9,$2,$3,0*
0 Add four circle primitives for the rounded corners*
1,1,$1+$1,$2,$3*
1,1,$1+$1,$4,$5*
1,1,$1+$1,$6,$7*
1,1,$1+$1,$8,$9*
0 Add four rect primitives between the rounded corners*
20,1,$1+$1,$2,$3,$4,$5,0*
20,1,$1+$1,$4,$5,$6,$7,0*
20,1,$1+$1,$6,$7,$8,$9,0*
20,1,$1+$1,$8,$9,$2,$3,0*%
%AMFreePoly0*
4,1,12,0.210000,0.147000,0.247000,0.110000,0.260000,0.060000,0.260000,-0.060000,0.247000,-0.110000,0.210000,-0.147000,0.160000,-0.160000,-0.071000,-0.160000,-0.260000,0.029000,-0.260000,0.160000,0.160000,0.160000,0.210000,0.147000,0.210000,0.147000,$1*%
%AMFreePoly1*
4,1,12,0.210000,0.147000,0.247000,0.110000,0.260000,0.060000,0.260000,-0.060000,0.247000,-0.110000,0.210000,-0.147000,0.160000,-0.160000,-0.260000,-0.160000,-0.260000,-0.029000,-0.071000,0.160000,0.160000,0.160000,0.210000,0.147000,0.210000,0.147000,$1*%
%AMFreePoly2*
4,1,12,0.260000,-0.029000,0.260000,-0.160000,-0.160000,-0.160000,-0.210000,-0.147000,-0.247000,-0.110000,-0.260000,-0.060000,-0.260000,0.060000,-0.247000,0.110000,-0.210000,0.147000,-0.160000,0.160000,0.071000,0.160000,0.260000,-0.029000,0.260000,-0.029000,$1*%
%AMFreePoly3*
4,1,12,0.260000,0.029000,0.071000,-0.160000,-0.160000,-0.160000,-0.210000,-0.147000,-0.247000,-0.110000,-0.260000,-0.060000,-0.260000,0.060000,-0.247000,0.110000,-0.210000,0.147000,-0.160000,0.160000,0.260000,0.160000,0.260000,0.029000,0.260000,0.029000,$1*%
%AMFreePoly4*
4,1,10,0.195000,0.095000,0.210000,0.060000,0.210000,-0.060000,0.195000,-0.095000,0.160000,-0.110000,-0.050000,-0.110000,-0.210000,0.050000,-0.210000,0.110000,0.160000,0.110000,0.195000,0.095000,0.195000,0.095000,$1*%
%AMFreePoly5*
4,1,10,0.210000,-0.050000,0.210000,-0.110000,-0.160000,-0.110000,-0.195000,-0.095000,-0.210000,-0.060000,-0.210000,0.060000,-0.195000,0.095000,-0.160000,0.110000,0.050000,0.110000,0.210000,-0.050000,0.210000,-0.050000,$1*%
%AMFreePoly6*
4,1,10,0.210000,0.050000,0.050000,-0.110000,-0.160000,-0.110000,-0.195000,-0.095000,-0.210000,-0.060000,-0.210000,0.060000,-0.195000,0.095000,-0.160000,0.110000,0.210000,0.110000,0.210000,0.050000,0.210000,0.050000,$1*%
G04 Aperture macros list end*
%ADD10C,0.010000*%
%ADD11FreePoly0,0.000000*%
%ADD12FreePoly1,0.000000*%
%ADD13RoundRect,0.071429X0.000000X-0.075761X0.075761X0.000000X0.000000X0.075761X-0.075761X0.000000X0*%
%ADD14C,0.450000*%
%ADD15FreePoly2,0.000000*%
%ADD16FreePoly3,0.000000*%
%ADD17FreePoly4,0.000000*%
%ADD18FreePoly5,0.000000*%
%ADD19FreePoly6,0.000000*%
%ADD20RoundRect,0.250000X1.050000X-1.050000X1.050000X1.050000X-1.050000X1.050000X-1.050000X-1.050000X0*%
%ADD21C,2.600000*%
%ADD22RoundRect,0.200000X0.200000X0.275000X-0.200000X0.275000X-0.200000X-0.275000X0.200000X-0.275000X0*%
%ADD23RoundRect,0.225000X0.250000X-0.225000X0.250000X0.225000X-0.250000X0.225000X-0.250000X-0.225000X0*%
%ADD24RoundRect,0.081750X0.245250X-0.770250X0.245250X0.770250X-0.245250X0.770250X-0.245250X-0.770250X0*%
%ADD25RoundRect,0.225000X0.225000X0.250000X-0.225000X0.250000X-0.225000X-0.250000X0.225000X-0.250000X0*%
%ADD26RoundRect,0.200000X-0.200000X-0.275000X0.200000X-0.275000X0.200000X0.275000X-0.200000X0.275000X0*%
%ADD27RoundRect,0.102000X-0.520700X0.279400X-0.520700X-0.279400X0.520700X-0.279400X0.520700X0.279400X0*%
%ADD28RoundRect,0.102000X-0.520700X0.165100X-0.520700X-0.165100X0.520700X-0.165100X0.520700X0.165100X0*%
%ADD29O,2.515400X1.499400*%
%ADD30O,2.794800X1.499400*%
%ADD31RoundRect,0.102000X-1.003300X0.495300X-1.003300X-0.495300X1.003300X-0.495300X1.003300X0.495300X0*%
%ADD32C,0.813600*%
%ADD33R,0.850000X0.850000*%
%ADD34C,0.850000*%
%ADD35R,1.000000X1.000000*%
%ADD36RoundRect,0.218750X-0.218750X-0.256250X0.218750X-0.256250X0.218750X0.256250X-0.218750X0.256250X0*%
%ADD37RoundRect,0.250000X-0.750000X0.275000X-0.750000X-0.275000X0.750000X-0.275000X0.750000X0.275000X0*%
%ADD38RoundRect,0.200000X0.275000X-0.200000X0.275000X0.200000X-0.275000X0.200000X-0.275000X-0.200000X0*%
%ADD39RoundRect,0.249999X-0.850001X0.850001X-0.850001X-0.850001X0.850001X-0.850001X0.850001X0.850001X0*%
%ADD40C,2.200000*%
%ADD41RoundRect,0.250000X-1.050000X-1.050000X1.050000X-1.050000X1.050000X1.050000X-1.050000X1.050000X0*%
%ADD42RoundRect,0.200000X-0.275000X0.200000X-0.275000X-0.200000X0.275000X-0.200000X0.275000X0.200000X0*%
%ADD43RoundRect,0.225000X-0.225000X-0.250000X0.225000X-0.250000X0.225000X0.250000X-0.225000X0.250000X0*%
%ADD44RoundRect,0.250000X-1.050000X1.050000X-1.050000X-1.050000X1.050000X-1.050000X1.050000X1.050000X0*%
%ADD45RoundRect,0.225000X-0.250000X0.225000X-0.250000X-0.225000X0.250000X-0.225000X0.250000X0.225000X0*%
%ADD46R,1.500000X0.900000*%
%ADD47R,0.900000X1.500000*%
%ADD48R,0.900000X0.900000*%
%ADD49RoundRect,0.375000X-0.625000X-0.375000X0.625000X-0.375000X0.625000X0.375000X-0.625000X0.375000X0*%
%ADD50RoundRect,0.500000X-0.500000X-1.400000X0.500000X-1.400000X0.500000X1.400000X-0.500000X1.400000X0*%
%ADD51RoundRect,0.081750X-0.770250X-0.245250X0.770250X-0.245250X0.770250X0.245250X-0.770250X0.245250X0*%
%ADD52RoundRect,0.250000X-0.275000X-0.750000X0.275000X-0.750000X0.275000X0.750000X-0.275000X0.750000X0*%
%ADD53RoundRect,0.150000X0.587500X0.150000X-0.587500X0.150000X-0.587500X-0.150000X0.587500X-0.150000X0*%
G04 APERTURE END LIST*
D10*
%TO.C,U8*%
X215755000Y-102230000D02*
X213445000Y-102230000D01*
X213445000Y-99770000D01*
X215755000Y-99770000D01*
X215755000Y-102230000D01*
G36*
X215755000Y-102230000D02*
G01*
X213445000Y-102230000D01*
X213445000Y-99770000D01*
X215755000Y-99770000D01*
X215755000Y-102230000D01*
G37*
%TO.C,U5*%
X201130000Y-105330000D02*
X198820000Y-105330000D01*
X198820000Y-102870000D01*
X201130000Y-102870000D01*
X201130000Y-105330000D01*
G36*
X201130000Y-105330000D02*
G01*
X198820000Y-105330000D01*
X198820000Y-102870000D01*
X201130000Y-102870000D01*
X201130000Y-105330000D01*
G37*
%TO.C,U7*%
X188730000Y-119555000D02*
X186270000Y-119555000D01*
X186270000Y-117245000D01*
X188730000Y-117245000D01*
X188730000Y-119555000D01*
G36*
X188730000Y-119555000D02*
G01*
X186270000Y-119555000D01*
X186270000Y-117245000D01*
X188730000Y-117245000D01*
X188730000Y-119555000D01*
G37*
%TD*%
D11*
%TO.C,U9*%
X212000000Y-63000000D03*
D12*
X212000000Y-63480000D03*
D13*
X211610000Y-63240000D03*
D14*
X211610000Y-63240000D03*
D15*
X211220000Y-63480000D03*
D16*
X211220000Y-63000000D03*
D17*
X212000000Y-63000000D03*
D18*
X211220000Y-63480000D03*
D19*
X211220000Y-63000000D03*
%TD*%
D20*
%TO.C,J5*%
X169500000Y-122000000D03*
D21*
X169500000Y-117000000D03*
X169500000Y-112000000D03*
X169500000Y-107000000D03*
%TD*%
D22*
%TO.C,R5*%
X227575000Y-58640000D03*
X225925000Y-58640000D03*
%TD*%
D23*
%TO.C,C16*%
X181500000Y-120175000D03*
X181500000Y-118625000D03*
%TD*%
%TO.C,C24*%
X193500000Y-115950000D03*
X193500000Y-114400000D03*
%TD*%
D24*
%TO.C,U8*%
X212325000Y-103900000D03*
X212975000Y-103900000D03*
X213625000Y-103900000D03*
X214275000Y-103900000D03*
X214925000Y-103900000D03*
X215575000Y-103900000D03*
X216225000Y-103900000D03*
X216875000Y-103900000D03*
X216875000Y-98100000D03*
X216225000Y-98100000D03*
X215575000Y-98100000D03*
X214925000Y-98100000D03*
X214275000Y-98100000D03*
X213625000Y-98100000D03*
X212975000Y-98100000D03*
X212325000Y-98100000D03*
%TD*%
D25*
%TO.C,C4*%
X181700000Y-99500000D03*
X180150000Y-99500000D03*
%TD*%
D23*
%TO.C,C25*%
X187325000Y-75550000D03*
X187325000Y-74000000D03*
%TD*%
D20*
%TO.C,M3*%
X225672500Y-108500000D03*
D21*
X225672500Y-103500000D03*
%TD*%
D22*
%TO.C,R6*%
X186325000Y-57500000D03*
X184675000Y-57500000D03*
%TD*%
D25*
%TO.C,C2*%
X181700000Y-95500000D03*
X180150000Y-95500000D03*
%TD*%
D26*
%TO.C,R18*%
X214175000Y-58000000D03*
X215825000Y-58000000D03*
%TD*%
D27*
%TO.C,J2*%
X169047200Y-53349850D03*
X169047200Y-54081750D03*
D28*
X169047200Y-54699450D03*
X169047200Y-55199550D03*
X169047200Y-55699650D03*
X169047200Y-56199750D03*
X169047200Y-56699950D03*
X169047200Y-57200050D03*
X169047200Y-57700150D03*
X169047200Y-58200250D03*
D27*
X169047200Y-58817950D03*
X169047200Y-59549850D03*
D29*
X168652200Y-52129850D03*
X168652200Y-60769850D03*
D30*
X164832200Y-52129850D03*
X164832200Y-60769850D03*
D31*
X164832300Y-55049850D03*
X164832300Y-57849850D03*
D32*
X167932300Y-53449850D03*
X167932300Y-59564150D03*
X167932300Y-59335550D03*
X169147500Y-52129850D03*
X168156900Y-52129850D03*
X169147500Y-60769850D03*
X168156900Y-60769850D03*
X165479900Y-52129850D03*
X164184500Y-52129850D03*
X165479900Y-60769850D03*
X164184500Y-60769850D03*
%TD*%
D24*
%TO.C,U5*%
X197700000Y-107000000D03*
X198350000Y-107000000D03*
X199000000Y-107000000D03*
X199650000Y-107000000D03*
X200300000Y-107000000D03*
X200950000Y-107000000D03*
X201600000Y-107000000D03*
X202250000Y-107000000D03*
X202250000Y-101200000D03*
X201600000Y-101200000D03*
X200950000Y-101200000D03*
X200300000Y-101200000D03*
X199650000Y-101200000D03*
X199000000Y-101200000D03*
X198350000Y-101200000D03*
X197700000Y-101200000D03*
%TD*%
D33*
%TO.C,J6*%
X230500000Y-62500000D03*
D34*
X230500000Y-63500000D03*
X230500000Y-64500000D03*
X230500000Y-65500000D03*
X230500000Y-66500000D03*
X230500000Y-67500000D03*
X230500000Y-68500000D03*
X230500000Y-69500000D03*
X230500000Y-70500000D03*
X230500000Y-71500000D03*
X230500000Y-72500000D03*
X230500000Y-73500000D03*
X230500000Y-74500000D03*
X230500000Y-75500000D03*
X230500000Y-76500000D03*
X230500000Y-77500000D03*
%TD*%
D23*
%TO.C,C17*%
X200175000Y-98650000D03*
X200175000Y-97100000D03*
%TD*%
D35*
%TO.C,TP11*%
X211750000Y-66000000D03*
%TD*%
D26*
%TO.C,R20*%
X219500000Y-65000000D03*
X221150000Y-65000000D03*
%TD*%
D36*
%TO.C,D1*%
X222425000Y-53500000D03*
X224000000Y-53500000D03*
%TD*%
D25*
%TO.C,C3*%
X181700000Y-97500000D03*
X180150000Y-97500000D03*
%TD*%
D37*
%TO.C,SW2*%
X177000000Y-53275000D03*
X177000000Y-57725000D03*
%TD*%
D35*
%TO.C,TP7*%
X186825000Y-72000000D03*
%TD*%
D38*
%TO.C,R1*%
X173500700Y-53825000D03*
X173500700Y-52175000D03*
%TD*%
D39*
%TO.C,D5*%
X178500000Y-72000000D03*
D40*
X178500000Y-82160000D03*
%TD*%
D41*
%TO.C,J4*%
X167000000Y-132000000D03*
D21*
X172000000Y-132000000D03*
X177000000Y-132000000D03*
X182000000Y-132000000D03*
X187000000Y-132000000D03*
X192000000Y-132000000D03*
X197000000Y-132000000D03*
X202000000Y-132000000D03*
X207000000Y-132000000D03*
%TD*%
D25*
%TO.C,C23*%
X197950000Y-98600000D03*
X196400000Y-98600000D03*
%TD*%
%TO.C,C26*%
X217275000Y-107500000D03*
X215725000Y-107500000D03*
%TD*%
D35*
%TO.C,TP3*%
X212175000Y-54500000D03*
%TD*%
D22*
%TO.C,R4*%
X227575000Y-56025000D03*
X225925000Y-56025000D03*
%TD*%
D42*
%TO.C,R19*%
X179500000Y-118575000D03*
X179500000Y-120225000D03*
%TD*%
D35*
%TO.C,TP6*%
X200000000Y-82650000D03*
%TD*%
D38*
%TO.C,R30*%
X202000000Y-74150000D03*
X202000000Y-72500000D03*
%TD*%
D26*
%TO.C,R27*%
X189000000Y-75000000D03*
X190650000Y-75000000D03*
%TD*%
D23*
%TO.C,C15*%
X217650000Y-67775000D03*
X217650000Y-66225000D03*
%TD*%
D26*
%TO.C,R15*%
X200850000Y-112100000D03*
X202500000Y-112100000D03*
%TD*%
D22*
%TO.C,R3*%
X227575000Y-53460000D03*
X225925000Y-53460000D03*
%TD*%
D20*
%TO.C,M2*%
X225672500Y-134000000D03*
D21*
X225672500Y-129000000D03*
%TD*%
D43*
%TO.C,C22*%
X193075000Y-123000000D03*
X194625000Y-123000000D03*
%TD*%
D23*
%TO.C,C5*%
X185000000Y-55275000D03*
X185000000Y-53725000D03*
%TD*%
D36*
%TO.C,D2*%
X222425000Y-56065000D03*
X224000000Y-56065000D03*
%TD*%
D23*
%TO.C,C29*%
X220000000Y-95550000D03*
X220000000Y-94000000D03*
%TD*%
D35*
%TO.C,TP4*%
X197500000Y-76000000D03*
%TD*%
D22*
%TO.C,R17*%
X215825000Y-55000000D03*
X214175000Y-55000000D03*
%TD*%
D43*
%TO.C,C18*%
X193075000Y-118000000D03*
X194625000Y-118000000D03*
%TD*%
D44*
%TO.C,J1*%
X169000000Y-80000000D03*
D21*
X169000000Y-85000000D03*
X169000000Y-90000000D03*
X169000000Y-95000000D03*
X169000000Y-100000000D03*
%TD*%
D23*
%TO.C,C19*%
X203000000Y-98650000D03*
X203000000Y-97100000D03*
%TD*%
D26*
%TO.C,R14*%
X196000000Y-110000000D03*
X197650000Y-110000000D03*
%TD*%
D20*
%TO.C,M1*%
X225672500Y-121000000D03*
D21*
X225672500Y-116000000D03*
%TD*%
D25*
%TO.C,C30*%
X211800000Y-95500000D03*
X210250000Y-95500000D03*
%TD*%
D42*
%TO.C,R16*%
X181500000Y-114675000D03*
X181500000Y-116325000D03*
%TD*%
D35*
%TO.C,TP12*%
X189500000Y-84580000D03*
%TD*%
D45*
%TO.C,C13*%
X212500000Y-56500000D03*
X212500000Y-58050000D03*
%TD*%
D38*
%TO.C,R21*%
X197500000Y-74150000D03*
X197500000Y-72500000D03*
%TD*%
D26*
%TO.C,R24*%
X210500000Y-107000000D03*
X212150000Y-107000000D03*
%TD*%
D46*
%TO.C,U1*%
X190750000Y-52230000D03*
X190750000Y-53500000D03*
X190750000Y-54770000D03*
X190750000Y-56040000D03*
X190750000Y-57310000D03*
X190750000Y-58580000D03*
X190750000Y-59850000D03*
X190750000Y-61120000D03*
X190750000Y-62390000D03*
X190750000Y-63660000D03*
X190750000Y-64930000D03*
X190750000Y-66200000D03*
X190750000Y-67470000D03*
X190750000Y-68740000D03*
D47*
X192515000Y-69990000D03*
X193785000Y-69990000D03*
X195055000Y-69990000D03*
X196325000Y-69990000D03*
X197595000Y-69990000D03*
X198865000Y-69990000D03*
X200135000Y-69990000D03*
X201405000Y-69990000D03*
X202675000Y-69990000D03*
X203945000Y-69990000D03*
X205215000Y-69990000D03*
X206485000Y-69990000D03*
D46*
X208250000Y-68740000D03*
X208250000Y-67470000D03*
X208250000Y-66200000D03*
X208250000Y-64930000D03*
X208250000Y-63660000D03*
X208250000Y-62390000D03*
X208250000Y-61120000D03*
X208250000Y-59850000D03*
X208250000Y-58580000D03*
X208250000Y-57310000D03*
X208250000Y-56040000D03*
X208250000Y-54770000D03*
X208250000Y-53500000D03*
X208250000Y-52230000D03*
D48*
X196600000Y-58550000D03*
X196600000Y-59950000D03*
X196600000Y-61350000D03*
X196600000Y-61350000D03*
X198000000Y-58550000D03*
X198000000Y-58550000D03*
X198000000Y-59950000D03*
X198000000Y-61350000D03*
X199400000Y-58550000D03*
X199400000Y-59950000D03*
X199400000Y-61350000D03*
%TD*%
D44*
%TO.C,J11*%
X168827500Y-68000000D03*
D21*
X168827500Y-73000000D03*
%TD*%
D22*
%TO.C,R22*%
X221150000Y-67000000D03*
X219500000Y-67000000D03*
%TD*%
D49*
%TO.C,U2*%
X184850000Y-94200000D03*
X184850000Y-96500000D03*
D50*
X191150000Y-96500000D03*
D49*
X184850000Y-98800000D03*
%TD*%
D36*
%TO.C,D3*%
X222425000Y-58680000D03*
X224000000Y-58680000D03*
%TD*%
D23*
%TO.C,C21*%
X205000000Y-98650000D03*
X205000000Y-97100000D03*
%TD*%
D25*
%TO.C,C14*%
X202450000Y-110100000D03*
X200900000Y-110100000D03*
%TD*%
D22*
%TO.C,R31*%
X187325000Y-84580000D03*
X185675000Y-84580000D03*
%TD*%
D42*
%TO.C,R2*%
X171500000Y-55000000D03*
X171500000Y-56650000D03*
%TD*%
D35*
%TO.C,TP9*%
X202000000Y-76000000D03*
%TD*%
D51*
%TO.C,U7*%
X184600000Y-116125000D03*
X184600000Y-116775000D03*
X184600000Y-117425000D03*
X184600000Y-118075000D03*
X184600000Y-118725000D03*
X184600000Y-119375000D03*
X184600000Y-120025000D03*
X184600000Y-120675000D03*
X190400000Y-120675000D03*
X190400000Y-120025000D03*
X190400000Y-119375000D03*
X190400000Y-118725000D03*
X190400000Y-118075000D03*
X190400000Y-117425000D03*
X190400000Y-116775000D03*
X190400000Y-116125000D03*
%TD*%
D23*
%TO.C,C27*%
X214000000Y-95550000D03*
X214000000Y-94000000D03*
%TD*%
D43*
%TO.C,C20*%
X193075000Y-121000000D03*
X194625000Y-121000000D03*
%TD*%
D52*
%TO.C,SW1*%
X210275000Y-73500000D03*
X214725000Y-73500000D03*
%TD*%
D22*
%TO.C,R26*%
X190650000Y-73000000D03*
X189000000Y-73000000D03*
%TD*%
D45*
%TO.C,C1*%
X183150000Y-101225000D03*
X183150000Y-102775000D03*
%TD*%
D26*
%TO.C,R25*%
X215675000Y-110000000D03*
X217325000Y-110000000D03*
%TD*%
D38*
%TO.C,R23*%
X200000000Y-80650000D03*
X200000000Y-79000000D03*
%TD*%
%TO.C,R32*%
X186000000Y-82905000D03*
X186000000Y-81255000D03*
%TD*%
D53*
%TO.C,Q2*%
X183437500Y-83530000D03*
X183437500Y-81630000D03*
X181562500Y-82580000D03*
%TD*%
D23*
%TO.C,C28*%
X218000000Y-95550000D03*
X218000000Y-94000000D03*
%TD*%
D35*
%TO.C,TP5*%
X217650000Y-64000000D03*
%TD*%
M02*
