%TF.GenerationSoftware,KiCad,Pcbnew,10.0.0*%
%TF.CreationDate,2026-05-13T23:48:43-07:00*%
%TF.ProjectId,clawtronics,636c6177-7472-46f6-9e69-63732e6b6963,rev?*%
%TF.SameCoordinates,Original*%
%TF.FileFunction,Copper,L1,Top*%
%TF.FilePolarity,Positive*%
%FSLAX46Y46*%
G04 Gerber Fmt 4.6, Leading zero omitted, Abs format (unit mm)*
G04 Created by KiCad (PCBNEW 10.0.0) date 2026-05-13 23:48:43*
%MOMM*%
%LPD*%
G01*
G04 APERTURE LIST*
G04 Aperture macros list*
%AMRoundRect*
0 Rectangle with rounded corners*
0 $1 Rounding radius*
0 $2 $3 $4 $5 $6 $7 $8 $9 X,Y pos of 4 corners*
0 Add a 4 corners polygon primitive as box body*
4,1,4,$2,$3,$4,$5,$6,$7,$8,$9,$2,$3,0*
0 Add four circle primitives for the rounded corners*
1,1,$1+$1,$2,$3*
1,1,$1+$1,$4,$5*
1,1,$1+$1,$6,$7*
1,1,$1+$1,$8,$9*
0 Add four rect primitives between the rounded corners*
20,1,$1+$1,$2,$3,$4,$5,0*
20,1,$1+$1,$4,$5,$6,$7,0*
20,1,$1+$1,$6,$7,$8,$9,0*
20,1,$1+$1,$8,$9,$2,$3,0*%
%AMFreePoly0*
4,1,12,0.210000,0.147000,0.247000,0.110000,0.260000,0.060000,0.260000,-0.060000,0.247000,-0.110000,0.210000,-0.147000,0.160000,-0.160000,-0.071000,-0.160000,-0.260000,0.029000,-0.260000,0.160000,0.160000,0.160000,0.210000,0.147000,0.210000,0.147000,$1*%
%AMFreePoly1*
4,1,12,0.210000,0.147000,0.247000,0.110000,0.260000,0.060000,0.260000,-0.060000,0.247000,-0.110000,0.210000,-0.147000,0.160000,-0.160000,-0.260000,-0.160000,-0.260000,-0.029000,-0.071000,0.160000,0.160000,0.160000,0.210000,0.147000,0.210000,0.147000,$1*%
%AMFreePoly2*
4,1,12,0.260000,-0.029000,0.260000,-0.160000,-0.160000,-0.160000,-0.210000,-0.147000,-0.247000,-0.110000,-0.260000,-0.060000,-0.260000,0.060000,-0.247000,0.110000,-0.210000,0.147000,-0.160000,0.160000,0.071000,0.160000,0.260000,-0.029000,0.260000,-0.029000,$1*%
%AMFreePoly3*
4,1,12,0.260000,0.029000,0.071000,-0.160000,-0.160000,-0.160000,-0.210000,-0.147000,-0.247000,-0.110000,-0.260000,-0.060000,-0.260000,0.060000,-0.247000,0.110000,-0.210000,0.147000,-0.160000,0.160000,0.260000,0.160000,0.260000,0.029000,0.260000,0.029000,$1*%
G04 Aperture macros list end*
%TA.AperFunction,SMDPad,CuDef*%
%ADD10FreePoly0,0.000000*%
%TD*%
%TA.AperFunction,SMDPad,CuDef*%
%ADD11FreePoly1,0.000000*%
%TD*%
%TA.AperFunction,SMDPad,CuDef*%
%ADD12RoundRect,0.100000X0.000000X-0.106066X0.106066X0.000000X0.000000X0.106066X-0.106066X0.000000X0*%
%TD*%
%TA.AperFunction,ComponentPad*%
%ADD13C,0.450000*%
%TD*%
%TA.AperFunction,SMDPad,CuDef*%
%ADD14FreePoly2,0.000000*%
%TD*%
%TA.AperFunction,SMDPad,CuDef*%
%ADD15FreePoly3,0.000000*%
%TD*%
%TA.AperFunction,ComponentPad*%
%ADD16RoundRect,0.250000X1.050000X-1.050000X1.050000X1.050000X-1.050000X1.050000X-1.050000X-1.050000X0*%
%TD*%
%TA.AperFunction,ComponentPad*%
%ADD17C,2.600000*%
%TD*%
%TA.AperFunction,SMDPad,CuDef*%
%ADD18RoundRect,0.200000X0.200000X0.275000X-0.200000X0.275000X-0.200000X-0.275000X0.200000X-0.275000X0*%
%TD*%
%TA.AperFunction,SMDPad,CuDef*%
%ADD19RoundRect,0.225000X0.250000X-0.225000X0.250000X0.225000X-0.250000X0.225000X-0.250000X-0.225000X0*%
%TD*%
%TA.AperFunction,SMDPad,CuDef*%
%ADD20RoundRect,0.056250X0.168750X-0.693750X0.168750X0.693750X-0.168750X0.693750X-0.168750X-0.693750X0*%
%TD*%
%TA.AperFunction,SMDPad,CuDef*%
%ADD21R,5.000000X3.400000*%
%TD*%
%TA.AperFunction,ComponentPad*%
%ADD22C,0.300000*%
%TD*%
%TA.AperFunction,SMDPad,CuDef*%
%ADD23RoundRect,0.225000X0.225000X0.250000X-0.225000X0.250000X-0.225000X-0.250000X0.225000X-0.250000X0*%
%TD*%
%TA.AperFunction,SMDPad,CuDef*%
%ADD24RoundRect,0.200000X-0.200000X-0.275000X0.200000X-0.275000X0.200000X0.275000X-0.200000X0.275000X0*%
%TD*%
%TA.AperFunction,SMDPad,CuDef*%
%ADD25R,1.041400X0.558800*%
%TD*%
%TA.AperFunction,SMDPad,CuDef*%
%ADD26R,1.041400X0.330200*%
%TD*%
%TA.AperFunction,SMDPad,CuDef*%
%ADD27O,2.311400X1.295400*%
%TD*%
%TA.AperFunction,SMDPad,CuDef*%
%ADD28O,2.590800X1.295400*%
%TD*%
%TA.AperFunction,SMDPad,CuDef*%
%ADD29R,2.006600X0.990600*%
%TD*%
%TA.AperFunction,ComponentPad*%
%ADD30C,0.609600*%
%TD*%
%TA.AperFunction,ComponentPad*%
%ADD31R,0.850000X0.850000*%
%TD*%
%TA.AperFunction,ComponentPad*%
%ADD32C,0.850000*%
%TD*%
%TA.AperFunction,SMDPad,CuDef*%
%ADD33R,1.000000X1.000000*%
%TD*%
%TA.AperFunction,SMDPad,CuDef*%
%ADD34RoundRect,0.218750X-0.218750X-0.256250X0.218750X-0.256250X0.218750X0.256250X-0.218750X0.256250X0*%
%TD*%
%TA.AperFunction,SMDPad,CuDef*%
%ADD35RoundRect,0.250000X-0.750000X0.275000X-0.750000X-0.275000X0.750000X-0.275000X0.750000X0.275000X0*%
%TD*%
%TA.AperFunction,SMDPad,CuDef*%
%ADD36RoundRect,0.200000X0.275000X-0.200000X0.275000X0.200000X-0.275000X0.200000X-0.275000X-0.200000X0*%
%TD*%
%TA.AperFunction,ComponentPad*%
%ADD37RoundRect,0.249999X-0.850001X0.850001X-0.850001X-0.850001X0.850001X-0.850001X0.850001X0.850001X0*%
%TD*%
%TA.AperFunction,ComponentPad*%
%ADD38C,2.200000*%
%TD*%
%TA.AperFunction,ComponentPad*%
%ADD39RoundRect,0.250000X-1.050000X-1.050000X1.050000X-1.050000X1.050000X1.050000X-1.050000X1.050000X0*%
%TD*%
%TA.AperFunction,SMDPad,CuDef*%
%ADD40RoundRect,0.200000X-0.275000X0.200000X-0.275000X-0.200000X0.275000X-0.200000X0.275000X0.200000X0*%
%TD*%
%TA.AperFunction,SMDPad,CuDef*%
%ADD41RoundRect,0.225000X-0.225000X-0.250000X0.225000X-0.250000X0.225000X0.250000X-0.225000X0.250000X0*%
%TD*%
%TA.AperFunction,ComponentPad*%
%ADD42RoundRect,0.250000X-1.050000X1.050000X-1.050000X-1.050000X1.050000X-1.050000X1.050000X1.050000X0*%
%TD*%
%TA.AperFunction,SMDPad,CuDef*%
%ADD43RoundRect,0.225000X-0.250000X0.225000X-0.250000X-0.225000X0.250000X-0.225000X0.250000X0.225000X0*%
%TD*%
%TA.AperFunction,SMDPad,CuDef*%
%ADD44R,1.500000X0.900000*%
%TD*%
%TA.AperFunction,SMDPad,CuDef*%
%ADD45R,0.900000X1.500000*%
%TD*%
%TA.AperFunction,SMDPad,CuDef*%
%ADD46R,0.900000X0.900000*%
%TD*%
%TA.AperFunction,SMDPad,CuDef*%
%ADD47RoundRect,0.375000X-0.625000X-0.375000X0.625000X-0.375000X0.625000X0.375000X-0.625000X0.375000X0*%
%TD*%
%TA.AperFunction,SMDPad,CuDef*%
%ADD48RoundRect,0.500000X-0.500000X-1.400000X0.500000X-1.400000X0.500000X1.400000X-0.500000X1.400000X0*%
%TD*%
%TA.AperFunction,SMDPad,CuDef*%
%ADD49RoundRect,0.056250X-0.693750X-0.168750X0.693750X-0.168750X0.693750X0.168750X-0.693750X0.168750X0*%
%TD*%
%TA.AperFunction,SMDPad,CuDef*%
%ADD50R,3.400000X5.000000*%
%TD*%
%TA.AperFunction,SMDPad,CuDef*%
%ADD51RoundRect,0.250000X-0.275000X-0.750000X0.275000X-0.750000X0.275000X0.750000X-0.275000X0.750000X0*%
%TD*%
%TA.AperFunction,SMDPad,CuDef*%
%ADD52RoundRect,0.150000X0.587500X0.150000X-0.587500X0.150000X-0.587500X-0.150000X0.587500X-0.150000X0*%
%TD*%
%TA.AperFunction,ViaPad*%
%ADD53C,0.600000*%
%TD*%
%TA.AperFunction,Conductor*%
%ADD54C,0.400000*%
%TD*%
%TA.AperFunction,Conductor*%
%ADD55C,0.200000*%
%TD*%
%TA.AperFunction,Conductor*%
%ADD56C,0.100000*%
%TD*%
G04 APERTURE END LIST*
D10*
%TO.P,U9,5,VCC_5*%
%TO.N,+3V3*%
X212000000Y-63000000D03*
D11*
%TO.P,U9,4*%
%TO.N,/switches/Pulse1*%
X212000000Y-63480000D03*
D12*
%TO.P,U9,3,GND_3*%
%TO.N,GND*%
X211610000Y-63240000D03*
D13*
X211610000Y-63240000D03*
D14*
%TO.P,U9,2*%
%TO.N,Net-(J4-Pin_1)*%
X211220000Y-63480000D03*
D15*
%TO.P,U9,1,NC_1*%
%TO.N,unconnected-(U9-NC-Pad1)*%
X211220000Y-63000000D03*
%TD*%
D16*
%TO.P,J5,1,Pin_1_1*%
%TO.N,+24V*%
X169500000Y-122000000D03*
D17*
%TO.P,J5,2,Pin_2_2*%
%TO.N,+12V*%
X169500000Y-117000000D03*
%TO.P,J5,3,Pin_3_3*%
%TO.N,+5V*%
X169500000Y-112000000D03*
%TO.P,J5,4,Pin_4_4*%
%TO.N,GNDPWR*%
X169500000Y-107000000D03*
%TD*%
D18*
%TO.P,R5,1*%
%TO.N,GPIO44*%
X227575000Y-58640000D03*
%TO.P,R5,2*%
%TO.N,Net-(D3-A)*%
X225925000Y-58640000D03*
%TD*%
D19*
%TO.P,C16,1*%
%TO.N,GND*%
X181500000Y-120175000D03*
%TO.P,C16,2*%
%TO.N,Net-(U7-VREF)*%
X181500000Y-118625000D03*
%TD*%
%TO.P,C24,1*%
%TO.N,Net-(U7-CPH)*%
X193500000Y-115950000D03*
%TO.P,C24,2*%
%TO.N,Net-(U7-CPL)*%
X193500000Y-114400000D03*
%TD*%
D20*
%TO.P,U8,1,EN/IN1_1*%
%TO.N,/motors2/EN{slash}IN1*%
X212325000Y-103900000D03*
%TO.P,U8,2,PH/IN2_2*%
%TO.N,/motors2/DIR{slash}IN2*%
X212975000Y-103900000D03*
%TO.P,U8,3,NSLEEP_3*%
%TO.N,+3V3*%
X213625000Y-103900000D03*
%TO.P,U8,4,~{NFAULT}_4*%
%TO.N,/motors2/NFAULT*%
X214275000Y-103900000D03*
%TO.P,U8,5,VREF_5*%
%TO.N,Net-(U8-VREF)*%
X214925000Y-103900000D03*
%TO.P,U8,6,IPROPI_6*%
%TO.N,Net-(U8-IPROPI)*%
X215575000Y-103900000D03*
%TO.P,U8,7,IMODE_7*%
%TO.N,GND*%
X216225000Y-103900000D03*
%TO.P,U8,8,OUT1_8*%
%TO.N,Net-(M3-+)*%
X216875000Y-103900000D03*
%TO.P,U8,9,PGND_9*%
%TO.N,GND*%
X216875000Y-98100000D03*
%TO.P,U8,10,OUT2_10*%
%TO.N,Net-(M3--)*%
X216225000Y-98100000D03*
%TO.P,U8,11,VM_11*%
%TO.N,+24V*%
X215575000Y-98100000D03*
%TO.P,U8,12,VCP_12*%
%TO.N,Net-(U8-VCP)*%
X214925000Y-98100000D03*
%TO.P,U8,13,CPH_13*%
%TO.N,Net-(U8-CPH)*%
X214275000Y-98100000D03*
%TO.P,U8,14,CPL_14*%
%TO.N,Net-(U8-CPL)*%
X213625000Y-98100000D03*
%TO.P,U8,15,GND_15*%
%TO.N,GND*%
X212975000Y-98100000D03*
%TO.P,U8,16,PMODE_16*%
X212325000Y-98100000D03*
D21*
%TO.P,U8,17,EXP_17*%
X214600000Y-101000000D03*
D22*
%TO.P,U8,18*%
%TO.N,N/C*%
X212800000Y-102000000D03*
%TO.P,U8,19*%
X212800000Y-101000000D03*
%TO.P,U8,20*%
X212800000Y-100000000D03*
%TO.P,U8,21*%
X214000000Y-102000000D03*
%TO.P,U8,22*%
X214000000Y-101000000D03*
%TO.P,U8,23*%
X214000000Y-100000000D03*
%TO.P,U8,24*%
X215200000Y-102000000D03*
%TO.P,U8,25*%
X215200000Y-101000000D03*
%TO.P,U8,26*%
X215200000Y-100000000D03*
%TO.P,U8,27*%
X216400000Y-102000000D03*
%TO.P,U8,28*%
X216400000Y-101000000D03*
%TO.P,U8,29*%
X216400000Y-100000000D03*
%TD*%
D23*
%TO.P,C4,1*%
%TO.N,+3V3*%
X181700000Y-99500000D03*
%TO.P,C4,2*%
%TO.N,GND*%
X180150000Y-99500000D03*
%TD*%
D19*
%TO.P,C25,1*%
%TO.N,GND*%
X187325000Y-75550000D03*
%TO.P,C25,2*%
%TO.N,/motors2/IPROPI*%
X187325000Y-74000000D03*
%TD*%
D16*
%TO.P,M3,1,+_1*%
%TO.N,Net-(M3-+)*%
X225672500Y-108500000D03*
D17*
%TO.P,M3,2,-_2*%
%TO.N,Net-(M3--)*%
X225672500Y-103500000D03*
%TD*%
D18*
%TO.P,R6,1*%
%TO.N,+3V3*%
X186325000Y-57500000D03*
%TO.P,R6,2*%
%TO.N,EN*%
X184675000Y-57500000D03*
%TD*%
D23*
%TO.P,C2,1*%
%TO.N,+3V3*%
X181700000Y-95500000D03*
%TO.P,C2,2*%
%TO.N,GND*%
X180150000Y-95500000D03*
%TD*%
D24*
%TO.P,R18,1*%
%TO.N,Net-(U5-IPROPI)*%
X214175000Y-58000000D03*
%TO.P,R18,2*%
%TO.N,GND*%
X215825000Y-58000000D03*
%TD*%
D25*
%TO.P,J2,1,GND_2_1*%
%TO.N,GND*%
X169047200Y-53349850D03*
%TO.P,J2,2,VBUS_2_2*%
%TO.N,+5V*%
X169047200Y-54081750D03*
D26*
%TO.P,J2,3,CC1_3*%
%TO.N,Net-(J2-CC1)*%
X169047200Y-54699450D03*
%TO.P,J2,4,SBU2_4*%
%TO.N,unconnected-(J2-SBU2-Pad4)*%
X169047200Y-55199550D03*
%TO.P,J2,5,D-_2_5*%
%TO.N,D-*%
X169047200Y-55699650D03*
%TO.P,J2,6,D+_2_6*%
%TO.N,D+*%
X169047200Y-56199750D03*
%TO.P,J2,7,D+_7*%
X169047200Y-56699950D03*
%TO.P,J2,8,D-_8*%
%TO.N,D-*%
X169047200Y-57200050D03*
%TO.P,J2,9,CC2_9*%
%TO.N,Net-(J2-CC2)*%
X169047200Y-57700150D03*
%TO.P,J2,10,SBU1_10*%
%TO.N,unconnected-(J2-SBU1-Pad10)*%
X169047200Y-58200250D03*
D25*
%TO.P,J2,11,VBUS_11*%
%TO.N,+5V*%
X169047200Y-58817950D03*
%TO.P,J2,12,GND_12*%
%TO.N,GND*%
X169047200Y-59549850D03*
D27*
%TO.P,J2,13*%
%TO.N,N/C*%
X168652200Y-52129850D03*
%TO.P,J2,14*%
X168652200Y-60769850D03*
D28*
%TO.P,J2,15*%
X164832200Y-52129850D03*
%TO.P,J2,16*%
X164832200Y-60769850D03*
D29*
%TO.P,J2,17*%
X164832300Y-55049850D03*
%TO.P,J2,18*%
X164832300Y-57849850D03*
D30*
%TO.P,J2,19*%
X167932300Y-53449850D03*
%TO.P,J2,S_1_H1*%
X167932300Y-59564150D03*
%TO.P,J2,S_1_H2*%
X167932300Y-59335550D03*
%TO.P,J2,S_2_H1*%
X169147500Y-52129850D03*
%TO.P,J2,S_2_H2*%
X168156900Y-52129850D03*
%TO.P,J2,S_3_H1*%
X169147500Y-60769850D03*
%TO.P,J2,S_3_H2*%
X168156900Y-60769850D03*
%TO.P,J2,S_4_H1*%
X165479900Y-52129850D03*
%TO.P,J2,S_4_H2*%
X164184500Y-52129850D03*
%TO.P,J2,S_5_H1*%
X165479900Y-60769850D03*
%TO.P,J2,S_5_H2*%
X164184500Y-60769850D03*
%TD*%
D20*
%TO.P,U5,1,EN/IN1_1*%
%TO.N,/motors/EN{slash}IN1*%
X197700000Y-107000000D03*
%TO.P,U5,2,PH/IN2_2*%
%TO.N,/motors/DIR{slash}IN2*%
X198350000Y-107000000D03*
%TO.P,U5,3,NSLEEP_3*%
%TO.N,+3V3*%
X199000000Y-107000000D03*
%TO.P,U5,4,~{NFAULT}_4*%
%TO.N,/motors/NFAULT*%
X199650000Y-107000000D03*
%TO.P,U5,5,VREF_5*%
%TO.N,Net-(U5-VREF)*%
X200300000Y-107000000D03*
%TO.P,U5,6,IPROPI_6*%
%TO.N,Net-(U5-IPROPI)*%
X200950000Y-107000000D03*
%TO.P,U5,7,IMODE_7*%
%TO.N,GND*%
X201600000Y-107000000D03*
%TO.P,U5,8,OUT1_8*%
%TO.N,Net-(M1-+)*%
X202250000Y-107000000D03*
%TO.P,U5,9,PGND_9*%
%TO.N,GND*%
X202250000Y-101200000D03*
%TO.P,U5,10,OUT2_10*%
%TO.N,Net-(M1--)*%
X201600000Y-101200000D03*
%TO.P,U5,11,VM_11*%
%TO.N,+24V*%
X200950000Y-101200000D03*
%TO.P,U5,12,VCP_12*%
%TO.N,Net-(U5-VCP)*%
X200300000Y-101200000D03*
%TO.P,U5,13,CPH_13*%
%TO.N,Net-(U5-CPH)*%
X199650000Y-101200000D03*
%TO.P,U5,14,CPL_14*%
%TO.N,Net-(U5-CPL)*%
X199000000Y-101200000D03*
%TO.P,U5,15,GND_15*%
%TO.N,GND*%
X198350000Y-101200000D03*
%TO.P,U5,16,PMODE_16*%
X197700000Y-101200000D03*
D21*
%TO.P,U5,17,EXP_17*%
X199975000Y-104100000D03*
D22*
%TO.P,U5,18*%
%TO.N,N/C*%
X198175000Y-105100000D03*
%TO.P,U5,19*%
X198175000Y-104100000D03*
%TO.P,U5,20*%
X198175000Y-103100000D03*
%TO.P,U5,21*%
X199375000Y-105100000D03*
%TO.P,U5,22*%
X199375000Y-104100000D03*
%TO.P,U5,23*%
X199375000Y-103100000D03*
%TO.P,U5,24*%
X200575000Y-105100000D03*
%TO.P,U5,25*%
X200575000Y-104100000D03*
%TO.P,U5,26*%
X200575000Y-103100000D03*
%TO.P,U5,27*%
X201775000Y-105100000D03*
%TO.P,U5,28*%
X201775000Y-104100000D03*
%TO.P,U5,29*%
X201775000Y-103100000D03*
%TD*%
D31*
%TO.P,J6,1,Pin_1_1*%
%TO.N,+5V*%
X230500000Y-62500000D03*
D32*
%TO.P,J6,2,Pin_2_2*%
%TO.N,+3V3*%
X230500000Y-63500000D03*
%TO.P,J6,3,Pin_3_3*%
%TO.N,GPIO43*%
X230500000Y-64500000D03*
%TO.P,J6,4,Pin_4_4*%
%TO.N,GPIO44*%
X230500000Y-65500000D03*
%TO.P,J6,5,Pin_5_5*%
%TO.N,GPIO42*%
X230500000Y-66500000D03*
%TO.P,J6,6,Pin_6_6*%
%TO.N,GPIO41*%
X230500000Y-67500000D03*
%TO.P,J6,7,Pin_7_7*%
%TO.N,GPIO40*%
X230500000Y-68500000D03*
%TO.P,J6,8,Pin_8_8*%
%TO.N,GPIO39*%
X230500000Y-69500000D03*
%TO.P,J6,9,Pin_9_9*%
%TO.N,GPIO37*%
X230500000Y-70500000D03*
%TO.P,J6,10,Pin_10_10*%
%TO.N,GPIO36*%
X230500000Y-71500000D03*
%TO.P,J6,11,Pin_11_11*%
%TO.N,GPIO35*%
X230500000Y-72500000D03*
%TO.P,J6,12,Pin_12_12*%
%TO.N,GPIO0*%
X230500000Y-73500000D03*
%TO.P,J6,13,Pin_13_13*%
%TO.N,GPIO15*%
X230500000Y-74500000D03*
%TO.P,J6,14,Pin_14_14*%
%TO.N,GPIO16*%
X230500000Y-75500000D03*
%TO.P,J6,15,Pin_15_15*%
%TO.N,EN*%
X230500000Y-76500000D03*
%TO.P,J6,16,Pin_16_16*%
%TO.N,GND*%
X230500000Y-77500000D03*
%TD*%
D19*
%TO.P,C17,1*%
%TO.N,Net-(U5-VCP)*%
X200175000Y-98650000D03*
%TO.P,C17,2*%
%TO.N,+24V*%
X200175000Y-97100000D03*
%TD*%
D33*
%TO.P,TP11,1,1_1*%
%TO.N,/switches/Pulse1*%
X211750000Y-66000000D03*
%TD*%
D24*
%TO.P,R20,1*%
%TO.N,/motors1/IPROPI*%
X219500000Y-65000000D03*
%TO.P,R20,2*%
%TO.N,Net-(U7-IPROPI)*%
X221150000Y-65000000D03*
%TD*%
D34*
%TO.P,D1,1,K_1*%
%TO.N,GND*%
X222425000Y-53500000D03*
%TO.P,D1,2,A_2*%
%TO.N,Net-(D1-A)*%
X224000000Y-53500000D03*
%TD*%
D23*
%TO.P,C3,1*%
%TO.N,+3V3*%
X181700000Y-97500000D03*
%TO.P,C3,2*%
%TO.N,GND*%
X180150000Y-97500000D03*
%TD*%
D35*
%TO.P,SW2,1,1_1*%
%TO.N,GND*%
X177000000Y-53275000D03*
%TO.P,SW2,2,2_2*%
%TO.N,EN*%
X177000000Y-57725000D03*
%TD*%
D33*
%TO.P,TP7,1,1_1*%
%TO.N,/motors2/IPROPI*%
X186825000Y-72000000D03*
%TD*%
D36*
%TO.P,R1,1*%
%TO.N,Net-(J2-CC1)*%
X173500700Y-53825000D03*
%TO.P,R1,2*%
%TO.N,GND*%
X173500700Y-52175000D03*
%TD*%
D37*
%TO.P,D5,1,K_1*%
%TO.N,+12V*%
X178500000Y-72000000D03*
D38*
%TO.P,D5,2,A_2*%
%TO.N,Net-(D5-A)*%
X178500000Y-82160000D03*
%TD*%
D39*
%TO.P,J4,1,Pin_1_1*%
%TO.N,Net-(J4-Pin_1)*%
X167000000Y-132000000D03*
D17*
%TO.P,J4,2,Pin_2_2*%
%TO.N,/switches/Pulse2*%
X172000000Y-132000000D03*
%TO.P,J4,3,Pin_3_3*%
%TO.N,/switches/Pulse3*%
X177000000Y-132000000D03*
%TO.P,J4,4,Pin_4_4*%
%TO.N,/switches/DoorOpen*%
X182000000Y-132000000D03*
%TO.P,J4,5,Pin_5_5*%
%TO.N,/switches/PulseInhibit*%
X187000000Y-132000000D03*
%TO.P,J4,6,Pin_6_6*%
%TO.N,+5V*%
X192000000Y-132000000D03*
%TO.P,J4,7,Pin_7_7*%
%TO.N,GND*%
X197000000Y-132000000D03*
%TO.P,J4,8,Pin_8_8*%
%TO.N,+24V*%
X202000000Y-132000000D03*
%TO.P,J4,9,Pin_9_9*%
%TO.N,GNDPWR*%
X207000000Y-132000000D03*
%TD*%
D23*
%TO.P,C23,1*%
%TO.N,Net-(U5-CPH)*%
X197950000Y-98600000D03*
%TO.P,C23,2*%
%TO.N,Net-(U5-CPL)*%
X196400000Y-98600000D03*
%TD*%
%TO.P,C26,1*%
%TO.N,GND*%
X217275000Y-107500000D03*
%TO.P,C26,2*%
%TO.N,Net-(U8-VREF)*%
X215725000Y-107500000D03*
%TD*%
D33*
%TO.P,TP3,1,1_1*%
%TO.N,/motors/IPROPI*%
X212175000Y-54500000D03*
%TD*%
D18*
%TO.P,R4,1*%
%TO.N,+3V3*%
X227575000Y-56025000D03*
%TO.P,R4,2*%
%TO.N,Net-(D2-A)*%
X225925000Y-56025000D03*
%TD*%
D40*
%TO.P,R19,1*%
%TO.N,Net-(U7-VREF)*%
X179500000Y-118575000D03*
%TO.P,R19,2*%
%TO.N,GND*%
X179500000Y-120225000D03*
%TD*%
D33*
%TO.P,TP6,1,1_1*%
%TO.N,/motors1/NFAULT*%
X200000000Y-82650000D03*
%TD*%
D36*
%TO.P,R30,1*%
%TO.N,+3V3*%
X202000000Y-74150000D03*
%TO.P,R30,2*%
%TO.N,/motors2/NFAULT*%
X202000000Y-72500000D03*
%TD*%
D24*
%TO.P,R27,1*%
%TO.N,Net-(U8-IPROPI)*%
X189000000Y-75000000D03*
%TO.P,R27,2*%
%TO.N,GND*%
X190650000Y-75000000D03*
%TD*%
D19*
%TO.P,C15,1*%
%TO.N,GND*%
X217650000Y-67775000D03*
%TO.P,C15,2*%
%TO.N,/motors1/IPROPI*%
X217650000Y-66225000D03*
%TD*%
D24*
%TO.P,R15,1*%
%TO.N,Net-(U5-VREF)*%
X200850000Y-112100000D03*
%TO.P,R15,2*%
%TO.N,GND*%
X202500000Y-112100000D03*
%TD*%
D18*
%TO.P,R3,1*%
%TO.N,+5V*%
X227575000Y-53460000D03*
%TO.P,R3,2*%
%TO.N,Net-(D1-A)*%
X225925000Y-53460000D03*
%TD*%
D16*
%TO.P,M2,1,+_1*%
%TO.N,Net-(M2-+)*%
X225672500Y-134000000D03*
D17*
%TO.P,M2,2,-_2*%
%TO.N,Net-(M2--)*%
X225672500Y-129000000D03*
%TD*%
D41*
%TO.P,C22,1*%
%TO.N,GND*%
X193075000Y-123000000D03*
%TO.P,C22,2*%
%TO.N,+24V*%
X194625000Y-123000000D03*
%TD*%
D19*
%TO.P,C5,1*%
%TO.N,EN*%
X185000000Y-55275000D03*
%TO.P,C5,2*%
%TO.N,GND*%
X185000000Y-53725000D03*
%TD*%
D34*
%TO.P,D2,1,K_1*%
%TO.N,GND*%
X222425000Y-56065000D03*
%TO.P,D2,2,A_2*%
%TO.N,Net-(D2-A)*%
X224000000Y-56065000D03*
%TD*%
D19*
%TO.P,C29,1*%
%TO.N,GND*%
X220000000Y-95550000D03*
%TO.P,C29,2*%
%TO.N,+24V*%
X220000000Y-94000000D03*
%TD*%
D33*
%TO.P,TP4,1,1_1*%
%TO.N,/motors/NFAULT*%
X197500000Y-76000000D03*
%TD*%
D18*
%TO.P,R17,1*%
%TO.N,/motors/IPROPI*%
X215825000Y-55000000D03*
%TO.P,R17,2*%
%TO.N,Net-(U5-IPROPI)*%
X214175000Y-55000000D03*
%TD*%
D41*
%TO.P,C18,1*%
%TO.N,Net-(U7-VCP)*%
X193075000Y-118000000D03*
%TO.P,C18,2*%
%TO.N,+24V*%
X194625000Y-118000000D03*
%TD*%
D42*
%TO.P,J1,1,Pin_1_1*%
%TO.N,/switches/MaxY*%
X169000000Y-80000000D03*
D17*
%TO.P,J1,2,Pin_2_2*%
%TO.N,/switches/MinY*%
X169000000Y-85000000D03*
%TO.P,J1,3,Pin_3_3*%
%TO.N,/switches/MinX*%
X169000000Y-90000000D03*
%TO.P,J1,4,Pin_4_4*%
%TO.N,/switches/Fused*%
X169000000Y-95000000D03*
%TO.P,J1,5,Pin_5_5*%
%TO.N,GND*%
X169000000Y-100000000D03*
%TD*%
D19*
%TO.P,C19,1*%
%TO.N,GND*%
X203000000Y-98650000D03*
%TO.P,C19,2*%
%TO.N,+24V*%
X203000000Y-97100000D03*
%TD*%
D24*
%TO.P,R14,1*%
%TO.N,+3V3*%
X196000000Y-110000000D03*
%TO.P,R14,2*%
%TO.N,Net-(U5-VREF)*%
X197650000Y-110000000D03*
%TD*%
D16*
%TO.P,M1,1,+_1*%
%TO.N,Net-(M1-+)*%
X225672500Y-121000000D03*
D17*
%TO.P,M1,2,-_2*%
%TO.N,Net-(M1--)*%
X225672500Y-116000000D03*
%TD*%
D23*
%TO.P,C30,1*%
%TO.N,Net-(U8-CPH)*%
X211800000Y-95500000D03*
%TO.P,C30,2*%
%TO.N,Net-(U8-CPL)*%
X210250000Y-95500000D03*
%TD*%
D40*
%TO.P,R16,1*%
%TO.N,+3V3*%
X181500000Y-114675000D03*
%TO.P,R16,2*%
%TO.N,Net-(U7-VREF)*%
X181500000Y-116325000D03*
%TD*%
D33*
%TO.P,TP12,1,1_1*%
%TO.N,/switches/Grip*%
X189500000Y-84580000D03*
%TD*%
D43*
%TO.P,C13,1*%
%TO.N,GND*%
X212500000Y-56500000D03*
%TO.P,C13,2*%
%TO.N,/motors/IPROPI*%
X212500000Y-58050000D03*
%TD*%
D36*
%TO.P,R21,1*%
%TO.N,+3V3*%
X197500000Y-74150000D03*
%TO.P,R21,2*%
%TO.N,/motors/NFAULT*%
X197500000Y-72500000D03*
%TD*%
D24*
%TO.P,R24,1*%
%TO.N,+3V3*%
X210500000Y-107000000D03*
%TO.P,R24,2*%
%TO.N,Net-(U8-VREF)*%
X212150000Y-107000000D03*
%TD*%
D44*
%TO.P,U1,1,GND_1*%
%TO.N,GND*%
X190750000Y-52230000D03*
%TO.P,U1,2,3V3_2*%
%TO.N,+3V3*%
X190750000Y-53500000D03*
%TO.P,U1,3,EN_3*%
%TO.N,EN*%
X190750000Y-54770000D03*
%TO.P,U1,4,GPIO4/TOUCH4/ADC1_CH3_4*%
%TO.N,/switches/Fused*%
X190750000Y-56040000D03*
%TO.P,U1,5,GPIO5/TOUCH5/ADC1_CH4_5*%
%TO.N,/switches/MaxY*%
X190750000Y-57310000D03*
%TO.P,U1,6,GPIO6/TOUCH6/ADC1_CH5_6*%
%TO.N,/switches/MinY*%
X190750000Y-58580000D03*
%TO.P,U1,7,GPIO7/TOUCH7/ADC1_CH6_7*%
%TO.N,/switches/MinX*%
X190750000Y-59850000D03*
%TO.P,U1,8,GPIO15/U0RTS/ADC2_CH4/XTAL_32K_P_8*%
%TO.N,GPIO15*%
X190750000Y-61120000D03*
%TO.P,U1,9,GPIO16/U0CTS/ADC2_CH5/XTAL_32K_N_9*%
%TO.N,GPIO16*%
X190750000Y-62390000D03*
%TO.P,U1,10,GPIO17/U1TXD/ADC2_CH6_10*%
%TO.N,/switches/Pulse3*%
X190750000Y-63660000D03*
%TO.P,U1,11,GPIO18/U1RXD/ADC2_CH7/CLK_OUT3_11*%
%TO.N,/switches/Grip*%
X190750000Y-64930000D03*
%TO.P,U1,12,GPIO8/TOUCH8/ADC1_CH7/SUBSPICS1_12*%
%TO.N,/motors1/EN{slash}IN1*%
X190750000Y-66200000D03*
%TO.P,U1,13,GPIO19/U1RTS/ADC2_CH8/CLK_OUT2/USB_D-_13*%
%TO.N,D-*%
X190750000Y-67470000D03*
%TO.P,U1,14,GPIO20/U1CTS/ADC2_CH9/CLK_OUT1/USB_D+_14*%
%TO.N,D+*%
X190750000Y-68740000D03*
D45*
%TO.P,U1,15,GPIO3/TOUCH3/ADC1_CH2_15*%
%TO.N,/motors2/IPROPI*%
X192515000Y-69990000D03*
%TO.P,U1,16,GPIO46_16*%
%TO.N,/motors2/DIR{slash}IN2*%
X193785000Y-69990000D03*
%TO.P,U1,17,GPIO9/TOUCH9/ADC1_CH8/FSPIHD/SUBSPIHD_17*%
%TO.N,/motors/EN{slash}IN1*%
X195055000Y-69990000D03*
%TO.P,U1,18,GPIO10/TOUCH10/ADC1_CH9/FSPICS0/FSPIIO4/SUBSPICS0_18*%
%TO.N,/motors1/DIR{slash}IN2*%
X196325000Y-69990000D03*
%TO.P,U1,19,GPIO11/TOUCH11/ADC2_CH0/FSPID/FSPIIO5/SUBSPID_19*%
%TO.N,/motors/DIR{slash}IN2*%
X197595000Y-69990000D03*
%TO.P,U1,20,GPIO12/TOUCH12/ADC2_CH1/FSPICLK/FSPIIO6/SUBSPICLK_20*%
%TO.N,/motors/NFAULT*%
X198865000Y-69990000D03*
%TO.P,U1,21,GPIO13/TOUCH13/ADC2_CH2/FSPIQ/FSPIIO7/SUBSPIQ_21*%
%TO.N,/motors1/NFAULT*%
X200135000Y-69990000D03*
%TO.P,U1,22,GPIO14/TOUCH14/ADC2_CH3/FSPIWP/FSPIDQS/SUBSPIWP_22*%
%TO.N,/motors2/NFAULT*%
X201405000Y-69990000D03*
%TO.P,U1,23,GPIO21_23*%
%TO.N,/switches/Pulse2*%
X202675000Y-69990000D03*
%TO.P,U1,24,GPIO47/SPICLK_P/SUBSPICLK_P_DIFF_24*%
%TO.N,/switches/PulseInhibit*%
X203945000Y-69990000D03*
%TO.P,U1,25,GPIO48/SPICLK_N/SUBSPICLK_N_DIFF_25*%
%TO.N,/switches/DoorOpen*%
X205215000Y-69990000D03*
%TO.P,U1,26,GPIO45_26*%
%TO.N,/motors2/EN{slash}IN1*%
X206485000Y-69990000D03*
D44*
%TO.P,U1,27,GPIO0/BOOT_27*%
%TO.N,GPIO0*%
X208250000Y-68740000D03*
%TO.P,U1,28,SPIIO6/GPIO35/FSPID/SUBSPID_28*%
%TO.N,GPIO35*%
X208250000Y-67470000D03*
%TO.P,U1,29,SPIIO7/GPIO36/FSPICLK/SUBSPICLK_29*%
%TO.N,GPIO36*%
X208250000Y-66200000D03*
%TO.P,U1,30,SPIDQS/GPIO37/FSPIQ/SUBSPIQ_30*%
%TO.N,GPIO37*%
X208250000Y-64930000D03*
%TO.P,U1,31,GPIO38/FSPIWP/SUBSPIWP_31*%
%TO.N,/switches/Pulse1*%
X208250000Y-63660000D03*
%TO.P,U1,32,MTCK/GPIO39/CLK_OUT3/SUBSPICS1_32*%
%TO.N,GPIO39*%
X208250000Y-62390000D03*
%TO.P,U1,33,MTDO/GPIO40/CLK_OUT2_33*%
%TO.N,GPIO40*%
X208250000Y-61120000D03*
%TO.P,U1,34,MTDI/GPIO41/CLK_OUT1_34*%
%TO.N,GPIO41*%
X208250000Y-59850000D03*
%TO.P,U1,35,MTMS/GPIO42_35*%
%TO.N,GPIO42*%
X208250000Y-58580000D03*
%TO.P,U1,36,U0RXD/GPIO44/CLK_OUT2_36*%
%TO.N,GPIO44*%
X208250000Y-57310000D03*
%TO.P,U1,37,U0TXD/GPIO43/CLK_OUT1_37*%
%TO.N,GPIO43*%
X208250000Y-56040000D03*
%TO.P,U1,38,GPIO2/TOUCH2/ADC1_CH1_38*%
%TO.N,/motors1/IPROPI*%
X208250000Y-54770000D03*
%TO.P,U1,39,GPIO1/TOUCH1/ADC1_CH0_39*%
%TO.N,/motors/IPROPI*%
X208250000Y-53500000D03*
%TO.P,U1,40,GND_40*%
%TO.N,GND*%
X208250000Y-52230000D03*
D46*
%TO.P,U1,41,GND_41*%
X196600000Y-58550000D03*
X196600000Y-59950000D03*
X196600000Y-61350000D03*
X196600000Y-61350000D03*
X198000000Y-58550000D03*
X198000000Y-58550000D03*
X198000000Y-59950000D03*
X198000000Y-61350000D03*
X199400000Y-58550000D03*
X199400000Y-59950000D03*
X199400000Y-61350000D03*
%TD*%
D42*
%TO.P,J11,1,Pin_1_1*%
%TO.N,+12V*%
X168827500Y-68000000D03*
D17*
%TO.P,J11,2,Pin_2_2*%
%TO.N,Net-(D5-A)*%
X168827500Y-73000000D03*
%TD*%
D18*
%TO.P,R22,1*%
%TO.N,Net-(U7-IPROPI)*%
X221150000Y-67000000D03*
%TO.P,R22,2*%
%TO.N,GND*%
X219500000Y-67000000D03*
%TD*%
D47*
%TO.P,U2,1,GND_1*%
%TO.N,GND*%
X184850000Y-94200000D03*
%TO.P,U2,2,VO_2*%
%TO.N,+3V3*%
X184850000Y-96500000D03*
D48*
X191150000Y-96500000D03*
D47*
%TO.P,U2,3,VI_3*%
%TO.N,+5V*%
X184850000Y-98800000D03*
%TD*%
D34*
%TO.P,D3,1,K_1*%
%TO.N,GND*%
X222425000Y-58680000D03*
%TO.P,D3,2,A_2*%
%TO.N,Net-(D3-A)*%
X224000000Y-58680000D03*
%TD*%
D19*
%TO.P,C21,1*%
%TO.N,GND*%
X205000000Y-98650000D03*
%TO.P,C21,2*%
%TO.N,+24V*%
X205000000Y-97100000D03*
%TD*%
D23*
%TO.P,C14,1*%
%TO.N,GND*%
X202450000Y-110100000D03*
%TO.P,C14,2*%
%TO.N,Net-(U5-VREF)*%
X200900000Y-110100000D03*
%TD*%
D18*
%TO.P,R31,1*%
%TO.N,/switches/Grip*%
X187325000Y-84580000D03*
%TO.P,R31,2*%
%TO.N,Net-(Q2-G)*%
X185675000Y-84580000D03*
%TD*%
D40*
%TO.P,R2,1*%
%TO.N,Net-(J2-CC2)*%
X171500000Y-55000000D03*
%TO.P,R2,2*%
%TO.N,GND*%
X171500000Y-56650000D03*
%TD*%
D33*
%TO.P,TP9,1,1_1*%
%TO.N,/motors2/NFAULT*%
X202000000Y-76000000D03*
%TD*%
D49*
%TO.P,U7,1,EN/IN1_1*%
%TO.N,/motors1/EN{slash}IN1*%
X184600000Y-116125000D03*
%TO.P,U7,2,PH/IN2_2*%
%TO.N,/motors1/DIR{slash}IN2*%
X184600000Y-116775000D03*
%TO.P,U7,3,NSLEEP_3*%
%TO.N,+3V3*%
X184600000Y-117425000D03*
%TO.P,U7,4,~{NFAULT}_4*%
%TO.N,/motors1/NFAULT*%
X184600000Y-118075000D03*
%TO.P,U7,5,VREF_5*%
%TO.N,Net-(U7-VREF)*%
X184600000Y-118725000D03*
%TO.P,U7,6,IPROPI_6*%
%TO.N,Net-(U7-IPROPI)*%
X184600000Y-119375000D03*
%TO.P,U7,7,IMODE_7*%
%TO.N,GND*%
X184600000Y-120025000D03*
%TO.P,U7,8,OUT1_8*%
%TO.N,Net-(M2-+)*%
X184600000Y-120675000D03*
%TO.P,U7,9,PGND_9*%
%TO.N,GND*%
X190400000Y-120675000D03*
%TO.P,U7,10,OUT2_10*%
%TO.N,Net-(M2--)*%
X190400000Y-120025000D03*
%TO.P,U7,11,VM_11*%
%TO.N,+24V*%
X190400000Y-119375000D03*
%TO.P,U7,12,VCP_12*%
%TO.N,Net-(U7-VCP)*%
X190400000Y-118725000D03*
%TO.P,U7,13,CPH_13*%
%TO.N,Net-(U7-CPH)*%
X190400000Y-118075000D03*
%TO.P,U7,14,CPL_14*%
%TO.N,Net-(U7-CPL)*%
X190400000Y-117425000D03*
%TO.P,U7,15,GND_15*%
%TO.N,GND*%
X190400000Y-116775000D03*
%TO.P,U7,16,PMODE_16*%
X190400000Y-116125000D03*
D50*
%TO.P,U7,17,EXP_17*%
X187500000Y-118400000D03*
D22*
%TO.P,U7,18*%
%TO.N,N/C*%
X186500000Y-116600000D03*
%TO.P,U7,19*%
X187500000Y-116600000D03*
%TO.P,U7,20*%
X188500000Y-116600000D03*
%TO.P,U7,21*%
X186500000Y-117800000D03*
%TO.P,U7,22*%
X187500000Y-117800000D03*
%TO.P,U7,23*%
X188500000Y-117800000D03*
%TO.P,U7,24*%
X186500000Y-119000000D03*
%TO.P,U7,25*%
X187500000Y-119000000D03*
%TO.P,U7,26*%
X188500000Y-119000000D03*
%TO.P,U7,27*%
X186500000Y-120200000D03*
%TO.P,U7,28*%
X187500000Y-120200000D03*
%TO.P,U7,29*%
X188500000Y-120200000D03*
%TD*%
D19*
%TO.P,C27,1*%
%TO.N,Net-(U8-VCP)*%
X214000000Y-95550000D03*
%TO.P,C27,2*%
%TO.N,+24V*%
X214000000Y-94000000D03*
%TD*%
D41*
%TO.P,C20,1*%
%TO.N,GND*%
X193075000Y-121000000D03*
%TO.P,C20,2*%
%TO.N,+24V*%
X194625000Y-121000000D03*
%TD*%
D51*
%TO.P,SW1,1,1_1*%
%TO.N,GND*%
X210275000Y-73500000D03*
%TO.P,SW1,2,2_2*%
%TO.N,GPIO0*%
X214725000Y-73500000D03*
%TD*%
D18*
%TO.P,R26,1*%
%TO.N,/motors2/IPROPI*%
X190650000Y-73000000D03*
%TO.P,R26,2*%
%TO.N,Net-(U8-IPROPI)*%
X189000000Y-73000000D03*
%TD*%
D43*
%TO.P,C1,1*%
%TO.N,+5V*%
X183150000Y-101225000D03*
%TO.P,C1,2*%
%TO.N,GND*%
X183150000Y-102775000D03*
%TD*%
D24*
%TO.P,R25,1*%
%TO.N,Net-(U8-VREF)*%
X215675000Y-110000000D03*
%TO.P,R25,2*%
%TO.N,GND*%
X217325000Y-110000000D03*
%TD*%
D36*
%TO.P,R23,1*%
%TO.N,+3V3*%
X200000000Y-80650000D03*
%TO.P,R23,2*%
%TO.N,/motors1/NFAULT*%
X200000000Y-79000000D03*
%TD*%
%TO.P,R32,1*%
%TO.N,Net-(Q2-G)*%
X186000000Y-82905000D03*
%TO.P,R32,2*%
%TO.N,GND*%
X186000000Y-81255000D03*
%TD*%
D52*
%TO.P,Q2,1,G_1*%
%TO.N,Net-(Q2-G)*%
X183437500Y-83530000D03*
%TO.P,Q2,2,S_2*%
%TO.N,GND*%
X183437500Y-81630000D03*
%TO.P,Q2,3,D_3*%
%TO.N,Net-(D5-A)*%
X181562500Y-82580000D03*
%TD*%
D19*
%TO.P,C28,1*%
%TO.N,GND*%
X218000000Y-95550000D03*
%TO.P,C28,2*%
%TO.N,+24V*%
X218000000Y-94000000D03*
%TD*%
D33*
%TO.P,TP5,1,1_1*%
%TO.N,/motors1/IPROPI*%
X217650000Y-64000000D03*
%TD*%
D53*
%TO.N,+24V*%
X197000000Y-126000000D03*
X197000000Y-126000000D03*
X169500000Y-125500000D03*
%TO.N,+12V*%
X175000000Y-107500000D03*
X175000000Y-73000000D03*
%TO.N,+5V*%
X172000000Y-112000000D03*
X227500000Y-63900000D03*
X165000000Y-104000000D03*
X181500000Y-101000000D03*
X212000000Y-87500000D03*
X186600000Y-101500000D03*
%TO.N,GNDPWR*%
X172500000Y-107000000D03*
%TO.N,GND*%
X185600000Y-80000000D03*
X195500000Y-60000000D03*
X188000000Y-121500000D03*
X211500000Y-100000000D03*
X213500000Y-56500000D03*
X180000000Y-100500000D03*
X198500000Y-57500000D03*
X210000000Y-52000000D03*
X197000000Y-57500000D03*
X202500000Y-113000000D03*
X191000000Y-76500000D03*
X215500000Y-57000000D03*
X197500000Y-62500000D03*
X200500000Y-59500000D03*
X217500000Y-97650000D03*
X193000000Y-124400000D03*
X222500000Y-60000000D03*
X217000000Y-111500000D03*
X195500000Y-62500000D03*
X175500000Y-51500000D03*
X210500000Y-62000000D03*
X190500000Y-115000000D03*
X171500000Y-59000000D03*
X197000000Y-101500000D03*
X205000000Y-100000000D03*
X190500000Y-121500000D03*
X217000000Y-69000000D03*
X203000000Y-105000000D03*
X217500000Y-100500000D03*
X198500000Y-63000000D03*
X221000000Y-95500000D03*
X180500000Y-121000000D03*
X200000000Y-57500000D03*
X210000000Y-71500000D03*
%TO.N,/motors2/EN{slash}IN1*%
X210000000Y-79500000D03*
X210000000Y-103500000D03*
%TO.N,/motors2/DIR{slash}IN2*%
X207400000Y-82000000D03*
X195500000Y-77500000D03*
X210500000Y-104900000D03*
X209100000Y-82000000D03*
%TO.N,+3V3*%
X194500000Y-110000000D03*
X228500000Y-56000000D03*
X229000000Y-63500000D03*
X188500000Y-53500000D03*
X213500000Y-66500000D03*
X201000000Y-73500000D03*
X181500000Y-94000000D03*
X213000000Y-62500000D03*
X187500000Y-57500000D03*
X180500000Y-113500000D03*
X197500000Y-80500000D03*
X210000000Y-108000000D03*
%TO.N,/motors2/NFAULT*%
X214000000Y-106400000D03*
X207000000Y-105000000D03*
X208000000Y-106000000D03*
X202000000Y-77500000D03*
%TO.N,Net-(U8-IPROPI)*%
X189000000Y-75900000D03*
X207400000Y-81000000D03*
X194600000Y-76500000D03*
X208600000Y-81000000D03*
X189000000Y-77100000D03*
X215525000Y-105500000D03*
%TO.N,EN*%
X183500000Y-55000000D03*
X227000000Y-76500000D03*
X183500000Y-57325000D03*
X192500000Y-55000000D03*
%TO.N,Net-(U5-IPROPI)*%
X214500000Y-59500000D03*
X202900000Y-108500000D03*
X204500000Y-108500000D03*
X204500000Y-108500000D03*
X201000000Y-108500000D03*
%TO.N,D-*%
X170066301Y-55994683D03*
X187500000Y-67500000D03*
%TO.N,D+*%
X170066274Y-56994640D03*
X187500000Y-69000000D03*
%TO.N,/motors/EN{slash}IN1*%
X193600000Y-90500000D03*
X196000000Y-107699997D03*
X194000000Y-86500000D03*
X195124265Y-74124265D03*
%TO.N,/motors/DIR{slash}IN2*%
X196000000Y-108500000D03*
X196500000Y-71900000D03*
X193000000Y-89500000D03*
X193000000Y-87500000D03*
%TO.N,/motors/NFAULT*%
X199700000Y-108500000D03*
X197500000Y-77500000D03*
%TO.N,Net-(M1-+)*%
X203500000Y-107000000D03*
%TO.N,Net-(M1--)*%
X202000000Y-99500000D03*
X203500000Y-101000000D03*
%TO.N,GPIO43*%
X211000000Y-55500000D03*
%TO.N,GPIO42*%
X210600000Y-58500000D03*
%TO.N,GPIO41*%
X211000000Y-59500000D03*
%TO.N,GPIO40*%
X210000000Y-61100000D03*
%TO.N,GPIO39*%
X210000000Y-63000000D03*
%TO.N,GPIO37*%
X210000000Y-66000000D03*
%TO.N,GPIO36*%
X210000000Y-67000000D03*
%TO.N,GPIO35*%
X210000000Y-68000000D03*
%TO.N,GPIO15*%
X192000000Y-61600000D03*
%TO.N,GPIO16*%
X192000000Y-63000000D03*
%TO.N,/motors1/IPROPI*%
X213900000Y-63500000D03*
X210000000Y-55000000D03*
%TO.N,Net-(U7-IPROPI)*%
X215792157Y-71140686D03*
X204000000Y-81000000D03*
X183000000Y-119425000D03*
X206000000Y-78500000D03*
%TO.N,Net-(D5-A)*%
X181000000Y-80500000D03*
%TO.N,Net-(J4-Pin_1)*%
X188500000Y-61500000D03*
X210500000Y-64500000D03*
%TO.N,/motors1/NFAULT*%
X186000000Y-111500000D03*
X183000000Y-111500000D03*
X200000000Y-73000000D03*
X198500000Y-83000000D03*
X200000000Y-77500000D03*
X182500000Y-117500000D03*
%TO.N,Net-(M2-+)*%
X185000000Y-121500000D03*
%TO.N,Net-(M2--)*%
X192000000Y-120075000D03*
%TO.N,/motors1/EN{slash}IN1*%
X184000000Y-115000000D03*
X184000000Y-115000000D03*
X187500000Y-66000000D03*
%TO.N,/motors1/DIR{slash}IN2*%
X183000000Y-115000000D03*
X195500000Y-72000000D03*
X184600000Y-114000000D03*
%TD*%
%TO.N,+24V*%
D54*
X193000000Y-119375000D02*
X194625000Y-121000000D01*
X194625000Y-123000000D02*
X194625000Y-121000000D01*
X217000000Y-94000000D02*
X215500000Y-95500000D01*
X201050000Y-97150000D02*
X201050000Y-100240706D01*
X219198666Y-118000000D02*
X194625000Y-118000000D01*
X194625000Y-123625000D02*
X194625000Y-123000000D01*
X215500000Y-95500000D02*
X215575000Y-95575000D01*
X193250000Y-119375000D02*
X194625000Y-118000000D01*
X200175000Y-97100000D02*
X201000000Y-97100000D01*
X169500000Y-122000000D02*
X169500000Y-125500000D01*
X221126664Y-96550000D02*
X227372500Y-102795836D01*
X214000000Y-94000000D02*
X215500000Y-95500000D01*
X200950000Y-100340706D02*
X200950000Y-101200000D01*
X201000000Y-97100000D02*
X203000000Y-97100000D01*
X201050000Y-100240706D02*
X200950000Y-100340706D01*
X190400000Y-119375000D02*
X193000000Y-119375000D01*
X203000000Y-97100000D02*
X205000000Y-97100000D01*
X215575000Y-95575000D02*
X215575000Y-98100000D01*
X200175000Y-97100000D02*
X202650000Y-94625000D01*
X218000000Y-94000000D02*
X217000000Y-94000000D01*
X216365118Y-96550000D02*
X221126664Y-96550000D01*
X193000000Y-119375000D02*
X193250000Y-119375000D01*
X202650000Y-94625000D02*
X214440118Y-94625000D01*
X227372500Y-109826166D02*
X219198666Y-118000000D01*
X227372500Y-102795836D02*
X227372500Y-109826166D01*
X214440118Y-94625000D02*
X216365118Y-96550000D01*
X220000000Y-94000000D02*
X218000000Y-94000000D01*
X197000000Y-126000000D02*
X194625000Y-123625000D01*
X201000000Y-97100000D02*
X201050000Y-97150000D01*
%TO.N,+12V*%
X169500000Y-117000000D02*
X175000000Y-111500000D01*
X173827500Y-73000000D02*
X168827500Y-68000000D01*
X175000000Y-111500000D02*
X175000000Y-107500000D01*
X175000000Y-73000000D02*
X173827500Y-73000000D01*
X177500000Y-73000000D02*
X178500000Y-72000000D01*
X175000000Y-73000000D02*
X177500000Y-73000000D01*
%TO.N,+5V*%
X228900000Y-62500000D02*
X227500000Y-63900000D01*
X186600000Y-101500000D02*
X186600000Y-100550000D01*
X166527600Y-59743512D02*
X166527600Y-63465293D01*
X166527600Y-63465293D02*
X164000000Y-65992893D01*
X230500000Y-56385000D02*
X230500000Y-62500000D01*
X169500000Y-112000000D02*
X172000000Y-112000000D01*
X168224238Y-58630750D02*
X167640362Y-58630750D01*
X183150000Y-100500000D02*
X184850000Y-98800000D01*
X186600000Y-100550000D02*
X184850000Y-98800000D01*
X181500000Y-101000000D02*
X182925000Y-101000000D01*
X168411438Y-58817950D02*
X168224238Y-58630750D01*
X168126500Y-54134350D02*
X167640362Y-54620488D01*
X169047200Y-58817950D02*
X168411438Y-58817950D01*
X230500000Y-62500000D02*
X228900000Y-62500000D01*
X227575000Y-53460000D02*
X230500000Y-56385000D01*
X164000000Y-65992893D02*
X164000000Y-103000000D01*
X182925000Y-101000000D02*
X183150000Y-101225000D01*
X167640362Y-58630750D02*
X166527600Y-59743512D01*
X183150000Y-101225000D02*
X183150000Y-100500000D01*
X168994600Y-54134350D02*
X168126500Y-54134350D01*
X167640362Y-54620488D02*
X167640362Y-58630750D01*
X169047200Y-54081750D02*
X168994600Y-54134350D01*
X164000000Y-103000000D02*
X165000000Y-104000000D01*
%TO.N,GNDPWR*%
D55*
X163500000Y-137500000D02*
X163500000Y-113000000D01*
X163500000Y-113000000D02*
X169500000Y-107000000D01*
X169500000Y-107000000D02*
X172500000Y-107000000D01*
X201500000Y-137500000D02*
X163500000Y-137500000D01*
X207000000Y-132000000D02*
X201500000Y-137500000D01*
%TO.N,GPIO44*%
X208250000Y-57310000D02*
X210310000Y-57310000D01*
X226500000Y-65500000D02*
X230500000Y-65500000D01*
X227575000Y-58640000D02*
X227575000Y-61425000D01*
X227575000Y-61425000D02*
X225000000Y-64000000D01*
X210310000Y-57310000D02*
X215500000Y-62500000D01*
X219000000Y-62500000D02*
X220500000Y-64000000D01*
X215500000Y-62500000D02*
X219000000Y-62500000D01*
X220500000Y-64000000D02*
X225000000Y-64000000D01*
X225000000Y-64000000D02*
X226500000Y-65500000D01*
%TO.N,Net-(D3-A)*%
X225885000Y-58680000D02*
X225925000Y-58640000D01*
X224000000Y-58680000D02*
X225885000Y-58680000D01*
%TO.N,GND*%
X198000000Y-58550000D02*
X198000000Y-58000000D01*
X199975000Y-103063603D02*
X199975000Y-104100000D01*
X200388603Y-104550000D02*
X199975000Y-104136397D01*
X197300000Y-101200000D02*
X197000000Y-101500000D01*
X214136397Y-100500000D02*
X212000000Y-100500000D01*
X212325000Y-98100000D02*
X212325000Y-98850000D01*
X190400000Y-116775000D02*
X190400000Y-116125000D01*
X217325000Y-110000000D02*
X217325000Y-111175000D01*
X217650000Y-68350000D02*
X217000000Y-69000000D01*
X173500700Y-52175000D02*
X174825000Y-52175000D01*
X202950000Y-100500000D02*
X203000000Y-100500000D01*
X199400000Y-58100000D02*
X200000000Y-57500000D01*
X196600000Y-61400000D02*
X195500000Y-62500000D01*
X199561397Y-102650000D02*
X199975000Y-103063603D01*
X205000000Y-98650000D02*
X205000000Y-100000000D01*
X215950000Y-102186397D02*
X216225000Y-102461397D01*
X179725000Y-120225000D02*
X180500000Y-121000000D01*
X217325000Y-107550000D02*
X217275000Y-107500000D01*
X220950000Y-95550000D02*
X221000000Y-95500000D01*
X198350000Y-101950000D02*
X198875000Y-102475000D01*
X199975000Y-105136397D02*
X200438603Y-105600000D01*
X212325000Y-98850000D02*
X213025000Y-99550000D01*
X174775000Y-53275000D02*
X177000000Y-53275000D01*
X190650000Y-75850000D02*
X190650000Y-75000000D01*
X186000000Y-80400000D02*
X185600000Y-80000000D01*
X198000000Y-59950000D02*
X196600000Y-59950000D01*
X190000000Y-76500000D02*
X190650000Y-75850000D01*
X222425000Y-58680000D02*
X222425000Y-56065000D01*
X209770000Y-52230000D02*
X210000000Y-52000000D01*
X201600000Y-109250000D02*
X201600000Y-107000000D01*
X190400000Y-121400000D02*
X190500000Y-121500000D01*
X196600000Y-59950000D02*
X195550000Y-59950000D01*
X215825000Y-57325000D02*
X215500000Y-57000000D01*
X198000000Y-59950000D02*
X198000000Y-61350000D01*
X214186397Y-99550000D02*
X214600000Y-99963603D01*
X222425000Y-56065000D02*
X222425000Y-53500000D01*
X199975000Y-104136397D02*
X199975000Y-104100000D01*
X216225000Y-102461397D02*
X216225000Y-103900000D01*
X200761397Y-104550000D02*
X200388603Y-104550000D01*
X222425000Y-59925000D02*
X222500000Y-60000000D01*
X216225000Y-106450000D02*
X217275000Y-107500000D01*
X181251471Y-93400000D02*
X180150000Y-94501471D01*
X217325000Y-111175000D02*
X217000000Y-111500000D01*
X220000000Y-95550000D02*
X220950000Y-95550000D01*
X199975000Y-104100000D02*
X199975000Y-105136397D01*
X183437500Y-81630000D02*
X185625000Y-81630000D01*
X180150000Y-94501471D02*
X180150000Y-95500000D01*
X196600000Y-57900000D02*
X197000000Y-57500000D01*
X190500000Y-121500000D02*
X191000000Y-121000000D01*
X196600000Y-58550000D02*
X196600000Y-57900000D01*
X216875000Y-98100000D02*
X216875000Y-98850000D01*
X197700000Y-101200000D02*
X197700000Y-101688603D01*
X202250000Y-101200000D02*
X202250000Y-100575000D01*
X212975000Y-98850000D02*
X213500000Y-99375000D01*
X195550000Y-59950000D02*
X195500000Y-60000000D01*
X202500000Y-113000000D02*
X192500000Y-113000000D01*
X187000000Y-118863603D02*
X187000000Y-120000000D01*
X217325000Y-110000000D02*
X217325000Y-107550000D01*
X217650000Y-67775000D02*
X218725000Y-67775000D01*
X198000000Y-59950000D02*
X198000000Y-58550000D01*
X198000000Y-61350000D02*
X198000000Y-62000000D01*
X198000000Y-62000000D02*
X197500000Y-62500000D01*
X202450000Y-112050000D02*
X202500000Y-112100000D01*
X202250000Y-101200000D02*
X202250000Y-101917872D01*
X190650000Y-75000000D02*
X190650000Y-76150000D01*
X215386397Y-101450000D02*
X215013603Y-101450000D01*
X174825000Y-52175000D02*
X175500000Y-51500000D01*
X173500700Y-52175000D02*
X173675000Y-52175000D01*
X215013603Y-101450000D02*
X214600000Y-101036397D01*
X203000000Y-100500000D02*
X203000000Y-98650000D01*
X183900000Y-93400000D02*
X181251471Y-93400000D01*
X216875000Y-98850000D02*
X215650000Y-100075000D01*
X201600000Y-106250000D02*
X201600000Y-107000000D01*
X190400000Y-115100000D02*
X190500000Y-115000000D01*
X201025000Y-104286397D02*
X200761397Y-104550000D01*
X185000000Y-53725000D02*
X186438953Y-52286047D01*
X189650000Y-116775000D02*
X189125000Y-117300000D01*
X222425000Y-58680000D02*
X222425000Y-59925000D01*
X193000000Y-128000000D02*
X193000000Y-124400000D01*
X202450000Y-110100000D02*
X201600000Y-109250000D01*
X190400000Y-116775000D02*
X189650000Y-116775000D01*
X190400000Y-116125000D02*
X190400000Y-115100000D01*
X184700000Y-94200000D02*
X183900000Y-93400000D01*
X212500000Y-56500000D02*
X213500000Y-56500000D01*
X218725000Y-67775000D02*
X219500000Y-67000000D01*
X190650000Y-76150000D02*
X191000000Y-76500000D01*
X186000000Y-81255000D02*
X186000000Y-80400000D01*
X180150000Y-100350000D02*
X180000000Y-100500000D01*
X197000000Y-132000000D02*
X193000000Y-128000000D01*
X190400000Y-120675000D02*
X190400000Y-121400000D01*
X202250000Y-101200000D02*
X202950000Y-100500000D01*
X197700000Y-101200000D02*
X198350000Y-101200000D01*
X183150000Y-102775000D02*
X182275000Y-102775000D01*
X216225000Y-103900000D02*
X216225000Y-106450000D01*
X169767900Y-59549850D02*
X171500000Y-57817750D01*
X184850000Y-94200000D02*
X184700000Y-94200000D01*
X211500000Y-100000000D02*
X205000000Y-100000000D01*
X181650000Y-120025000D02*
X184600000Y-120025000D01*
X179500000Y-120225000D02*
X179725000Y-120225000D01*
X208250000Y-52230000D02*
X209770000Y-52230000D01*
X214600000Y-100963603D02*
X215063603Y-100500000D01*
X184550000Y-53275000D02*
X185000000Y-53725000D01*
X200050000Y-59950000D02*
X200500000Y-59500000D01*
X202950000Y-100500000D02*
X203150000Y-100500000D01*
X188275000Y-76500000D02*
X190000000Y-76500000D01*
X217050000Y-98100000D02*
X217500000Y-97650000D01*
X198350000Y-101200000D02*
X198350000Y-101950000D01*
X198000000Y-59950000D02*
X199400000Y-59950000D01*
X203150000Y-100500000D02*
X205000000Y-98650000D01*
X202650000Y-104650000D02*
X203000000Y-105000000D01*
X187325000Y-75550000D02*
X188275000Y-76500000D01*
X180150000Y-97500000D02*
X180150000Y-99500000D01*
X199386397Y-102475000D02*
X199975000Y-103063603D01*
X198661397Y-102650000D02*
X199561397Y-102650000D01*
X189125000Y-117811397D02*
X188536397Y-118400000D01*
X214600000Y-101036397D02*
X214600000Y-101000000D01*
X199400000Y-59950000D02*
X200050000Y-59950000D01*
X199400000Y-61350000D02*
X199400000Y-62100000D01*
X188000000Y-118863603D02*
X188000000Y-121500000D01*
X197700000Y-101200000D02*
X197300000Y-101200000D01*
X191000000Y-121000000D02*
X193075000Y-121000000D01*
X200950000Y-105600000D02*
X201600000Y-106250000D01*
X212975000Y-98100000D02*
X212975000Y-98850000D01*
X171500000Y-57817750D02*
X171500000Y-57500000D01*
X202450000Y-110100000D02*
X202450000Y-112050000D01*
X171500000Y-57500000D02*
X171500000Y-59000000D01*
X198875000Y-102475000D02*
X199386397Y-102475000D01*
X215650000Y-100075000D02*
X215650000Y-101186397D01*
X192500000Y-113000000D02*
X190500000Y-115000000D01*
X199400000Y-62100000D02*
X198500000Y-63000000D01*
X185625000Y-81630000D02*
X186000000Y-81255000D01*
X180150000Y-99500000D02*
X180150000Y-100350000D01*
X214011397Y-99375000D02*
X214600000Y-99963603D01*
X198000000Y-58000000D02*
X198500000Y-57500000D01*
X200488603Y-104650000D02*
X202650000Y-104650000D01*
X196600000Y-61350000D02*
X196600000Y-61400000D01*
X217650000Y-67775000D02*
X217650000Y-68350000D01*
X210275000Y-73500000D02*
X210275000Y-71775000D01*
X181500000Y-120175000D02*
X181650000Y-120025000D01*
X169047200Y-53349850D02*
X170150150Y-53349850D01*
X177000000Y-53275000D02*
X184550000Y-53275000D01*
X213025000Y-99550000D02*
X214186397Y-99550000D01*
X182275000Y-102775000D02*
X180000000Y-100500000D01*
X215400000Y-101450000D02*
X215950000Y-102000000D01*
X202500000Y-112100000D02*
X202500000Y-113000000D01*
X199400000Y-58550000D02*
X199400000Y-58100000D01*
X215650000Y-101186397D02*
X215386397Y-101450000D01*
X169047200Y-59549850D02*
X169767900Y-59549850D01*
X187536397Y-118400000D02*
X188000000Y-118863603D01*
X215013603Y-101450000D02*
X215400000Y-101450000D01*
X179550000Y-120175000D02*
X179500000Y-120225000D01*
X218000000Y-95550000D02*
X220000000Y-95550000D01*
X200438603Y-105600000D02*
X200950000Y-105600000D01*
X215825000Y-58000000D02*
X215825000Y-57325000D01*
X193075000Y-123000000D02*
X193075000Y-124325000D01*
X186438953Y-52286047D02*
X190693953Y-52286047D01*
X171325000Y-52175000D02*
X173500700Y-52175000D01*
X201025000Y-103142872D02*
X201025000Y-104286397D01*
X199975000Y-104136397D02*
X200488603Y-104650000D01*
X170150150Y-53349850D02*
X171325000Y-52175000D01*
X215063603Y-100500000D02*
X217500000Y-100500000D01*
X189125000Y-117300000D02*
X189125000Y-117811397D01*
X210275000Y-71775000D02*
X210000000Y-71500000D01*
X180150000Y-95500000D02*
X180150000Y-97500000D01*
X215950000Y-102000000D02*
X215950000Y-102186397D01*
X193075000Y-124325000D02*
X193000000Y-124400000D01*
X187500000Y-118400000D02*
X187536397Y-118400000D01*
X181500000Y-120175000D02*
X179550000Y-120175000D01*
X173675000Y-52175000D02*
X174775000Y-53275000D01*
X213500000Y-99375000D02*
X214011397Y-99375000D01*
X193075000Y-121000000D02*
X193075000Y-123000000D01*
X214600000Y-101000000D02*
X214600000Y-100963603D01*
X202250000Y-101917872D02*
X201025000Y-103142872D01*
X214600000Y-99963603D02*
X214600000Y-101000000D01*
X212000000Y-100500000D02*
X211500000Y-100000000D01*
X214600000Y-100963603D02*
X214136397Y-100500000D01*
X197700000Y-101688603D02*
X198661397Y-102650000D01*
X188536397Y-118400000D02*
X187500000Y-118400000D01*
X216875000Y-98100000D02*
X217050000Y-98100000D01*
X171500000Y-57500000D02*
X171500000Y-56650000D01*
%TO.N,Net-(U7-VREF)*%
X181600000Y-118725000D02*
X181500000Y-118625000D01*
X181500000Y-118625000D02*
X179550000Y-118625000D01*
X181500000Y-116325000D02*
X181500000Y-118625000D01*
X184600000Y-118725000D02*
X181600000Y-118725000D01*
X179550000Y-118625000D02*
X179500000Y-118575000D01*
X184500000Y-118625000D02*
X184600000Y-118725000D01*
%TO.N,Net-(U7-CPH)*%
X192000000Y-117851304D02*
X192000000Y-117000000D01*
X190400000Y-118075000D02*
X191776304Y-118075000D01*
X191776304Y-118075000D02*
X192000000Y-117851304D01*
X192000000Y-117000000D02*
X192450000Y-117000000D01*
X192450000Y-117000000D02*
X193500000Y-115950000D01*
%TO.N,Net-(U7-CPL)*%
X191500000Y-116500000D02*
X193500000Y-114500000D01*
X191500000Y-117075000D02*
X191500000Y-116500000D01*
X193500000Y-114500000D02*
X193500000Y-114400000D01*
X191150000Y-117425000D02*
X191500000Y-117075000D01*
X190400000Y-117425000D02*
X191150000Y-117425000D01*
%TO.N,/motors2/EN{slash}IN1*%
X206485000Y-75985000D02*
X206485000Y-69990000D01*
X212425000Y-104000000D02*
X212450000Y-104000000D01*
X210000000Y-79500000D02*
X206485000Y-75985000D01*
X211925000Y-103500000D02*
X210000000Y-103500000D01*
X212325000Y-103900000D02*
X211925000Y-103500000D01*
%TO.N,/motors2/DIR{slash}IN2*%
X212975000Y-104650000D02*
X212125000Y-105500000D01*
X212125000Y-105500000D02*
X211000000Y-105500000D01*
X209100000Y-82000000D02*
X207400000Y-82000000D01*
X195500000Y-75348529D02*
X193785000Y-73633529D01*
X193785000Y-73633529D02*
X193785000Y-69990000D01*
X212975000Y-103900000D02*
X212975000Y-104650000D01*
X195500000Y-77500000D02*
X195500000Y-75348529D01*
X211000000Y-105500000D02*
X210500000Y-105000000D01*
X210500000Y-105000000D02*
X210500000Y-104900000D01*
%TO.N,+3V3*%
D54*
X227575000Y-56025000D02*
X228475000Y-56025000D01*
X196000000Y-109500000D02*
X196500000Y-109000000D01*
X211500000Y-106000000D02*
X210500000Y-107000000D01*
D56*
X212500000Y-63000000D02*
X213000000Y-62500000D01*
D54*
X210500000Y-107500000D02*
X210000000Y-108000000D01*
X182600000Y-96400000D02*
X181700000Y-95500000D01*
X197500000Y-74150000D02*
X200500000Y-74150000D01*
X182700000Y-96500000D02*
X182600000Y-96400000D01*
X182600000Y-96600000D02*
X182600000Y-96400000D01*
X181500000Y-114675000D02*
X182500000Y-115675000D01*
X181700000Y-99500000D02*
X181700000Y-97500000D01*
X186325000Y-57500000D02*
X187500000Y-57500000D01*
X212384294Y-106000000D02*
X211500000Y-106000000D01*
X228475000Y-56025000D02*
X228500000Y-56000000D01*
X198500000Y-80000000D02*
X199350000Y-80000000D01*
X198000000Y-80500000D02*
X197500000Y-80500000D01*
X181700000Y-95500000D02*
X181700000Y-94200000D01*
X181500000Y-114500000D02*
X180500000Y-113500000D01*
X213500000Y-66500000D02*
X213000000Y-66000000D01*
X184850000Y-96500000D02*
X191150000Y-96500000D01*
X213000000Y-66000000D02*
X213000000Y-62500000D01*
X182500000Y-116207106D02*
X182500000Y-115675000D01*
X200500000Y-74150000D02*
X200500000Y-74000000D01*
X199000000Y-109000000D02*
X199000000Y-107000000D01*
X196000000Y-110000000D02*
X196000000Y-109500000D01*
X184600000Y-117425000D02*
X183717894Y-117425000D01*
X200500000Y-74150000D02*
X202000000Y-74150000D01*
X210500000Y-107000000D02*
X210500000Y-107500000D01*
X181700000Y-94200000D02*
X181500000Y-94000000D01*
X198500000Y-80000000D02*
X198000000Y-80500000D01*
X198500000Y-77650000D02*
X198500000Y-80000000D01*
X196000000Y-110000000D02*
X194500000Y-110000000D01*
X213625000Y-103900000D02*
X213625000Y-104759294D01*
X183717894Y-117425000D02*
X182500000Y-116207106D01*
X200500000Y-74000000D02*
X201000000Y-73500000D01*
D56*
X212000000Y-63000000D02*
X212500000Y-63000000D01*
D54*
X181500000Y-114675000D02*
X181500000Y-114500000D01*
X184850000Y-96500000D02*
X182700000Y-96500000D01*
X199350000Y-80000000D02*
X200000000Y-80650000D01*
X181700000Y-97500000D02*
X182600000Y-96600000D01*
X190750000Y-53500000D02*
X188500000Y-53500000D01*
X213625000Y-104759294D02*
X212384294Y-106000000D01*
X202000000Y-74150000D02*
X198500000Y-77650000D01*
X196500000Y-109000000D02*
X199000000Y-109000000D01*
%TO.N,/motors2/NFAULT*%
D55*
X208000000Y-106000000D02*
X207000000Y-105000000D01*
X214275000Y-106225000D02*
X214000000Y-106500000D01*
X202000000Y-72500000D02*
X201405000Y-71905000D01*
X202000000Y-76000000D02*
X203000000Y-75000000D01*
X203000000Y-73500000D02*
X202000000Y-72500000D01*
X203000000Y-75000000D02*
X203000000Y-73500000D01*
X214000000Y-106500000D02*
X214000000Y-106400000D01*
X214275000Y-103900000D02*
X214275000Y-106225000D01*
X202000000Y-77500000D02*
X202000000Y-76000000D01*
X201405000Y-71905000D02*
X201405000Y-69990000D01*
%TO.N,Net-(U8-VREF)*%
X215675000Y-107825000D02*
X215675000Y-110000000D01*
X214925000Y-106700000D02*
X215725000Y-107500000D01*
X215725000Y-107775000D02*
X215675000Y-107825000D01*
X215725000Y-107500000D02*
X215725000Y-107775000D01*
X214925000Y-103900000D02*
X214925000Y-106700000D01*
X214925000Y-106700000D02*
X214625000Y-107000000D01*
X214625000Y-107000000D02*
X212150000Y-107000000D01*
X214925000Y-104625000D02*
X214925000Y-103900000D01*
%TO.N,Net-(U8-IPROPI)*%
X189000000Y-75000000D02*
X189000000Y-73000000D01*
X189500000Y-77500000D02*
X189000000Y-77000000D01*
X193600000Y-77500000D02*
X189500000Y-77500000D01*
X215575000Y-105450000D02*
X215525000Y-105500000D01*
X215575000Y-103900000D02*
X215575000Y-105450000D01*
X189000000Y-77000000D02*
X189000000Y-77100000D01*
X189000000Y-75900000D02*
X189000000Y-75000000D01*
X194600000Y-76500000D02*
X193600000Y-77500000D01*
X208600000Y-81000000D02*
X207400000Y-81000000D01*
%TO.N,Net-(M3-+)*%
X216875000Y-103900000D02*
X221475000Y-108500000D01*
X221475000Y-108500000D02*
X225672500Y-108500000D01*
%TO.N,Net-(M3--)*%
X216225000Y-98100000D02*
X216225000Y-97382128D01*
X219222500Y-97050000D02*
X225672500Y-103500000D01*
X216225000Y-97382128D02*
X216557128Y-97050000D01*
X216557128Y-97050000D02*
X219222500Y-97050000D01*
%TO.N,Net-(U8-VCP)*%
X214000000Y-95550000D02*
X214925000Y-96475000D01*
X214925000Y-96475000D02*
X214925000Y-98100000D01*
%TO.N,Net-(U8-CPH)*%
X214275000Y-97350000D02*
X214275000Y-98100000D01*
X211800000Y-95500000D02*
X212425000Y-95500000D01*
X212425000Y-95500000D02*
X214275000Y-97350000D01*
%TO.N,Net-(U8-CPL)*%
X210250000Y-95500000D02*
X211320343Y-96570343D01*
X211320343Y-96570343D02*
X212929657Y-96570343D01*
X212929657Y-96570343D02*
X213625000Y-97265686D01*
X213625000Y-97265686D02*
X213625000Y-98100000D01*
%TO.N,/motors2/IPROPI*%
X187325000Y-74000000D02*
X187325000Y-72500000D01*
X190650000Y-73000000D02*
X189650000Y-72000000D01*
X189650000Y-72000000D02*
X186825000Y-72000000D01*
X190650000Y-73000000D02*
X190650000Y-71855000D01*
X190650000Y-71855000D02*
X192515000Y-69990000D01*
X187325000Y-72500000D02*
X186825000Y-72000000D01*
%TO.N,EN*%
X183500000Y-57325000D02*
X183600000Y-57325000D01*
X185000000Y-55275000D02*
X185225000Y-55275000D01*
X185730000Y-54770000D02*
X190750000Y-54770000D01*
X185000000Y-55275000D02*
X183775000Y-55275000D01*
X183600000Y-57325000D02*
X184000000Y-57725000D01*
X177000000Y-57725000D02*
X184000000Y-57725000D01*
X227000000Y-76500000D02*
X230500000Y-76500000D01*
X185225000Y-55275000D02*
X185730000Y-54770000D01*
X184000000Y-57725000D02*
X184450000Y-57725000D01*
X184450000Y-57725000D02*
X184675000Y-57500000D01*
X192270000Y-54770000D02*
X192500000Y-55000000D01*
X190750000Y-54770000D02*
X192270000Y-54770000D01*
X183775000Y-55275000D02*
X183500000Y-55000000D01*
%TO.N,Net-(U5-IPROPI)*%
X202900000Y-108500000D02*
X204500000Y-108500000D01*
X200950000Y-108450000D02*
X201000000Y-108500000D01*
X214175000Y-59175000D02*
X214175000Y-58000000D01*
X214500000Y-59500000D02*
X214175000Y-59175000D01*
X214175000Y-58000000D02*
X214175000Y-55500000D01*
X200950000Y-107000000D02*
X200950000Y-108450000D01*
%TO.N,Net-(J2-CC1)*%
X170675000Y-53825000D02*
X173500700Y-53825000D01*
X169800550Y-54699450D02*
X170675000Y-53825000D01*
X169047200Y-54699450D02*
X169800550Y-54699450D01*
%TO.N,D-*%
X169771268Y-55699650D02*
X170066301Y-55994683D01*
X168226500Y-57165050D02*
X168226500Y-55734650D01*
X169047200Y-57200050D02*
X168261500Y-57200050D01*
X168261500Y-55699650D02*
X169047200Y-55699650D01*
X187530000Y-67470000D02*
X190750000Y-67470000D01*
X168261500Y-57200050D02*
X168226500Y-57165050D01*
X187500000Y-67500000D02*
X187530000Y-67470000D01*
X168226500Y-55734650D02*
X168261500Y-55699650D01*
X169047200Y-55699650D02*
X169771268Y-55699650D01*
%TO.N,D+*%
X169047200Y-56699950D02*
X169771584Y-56699950D01*
X169771584Y-56699950D02*
X170066274Y-56994640D01*
X169047200Y-56699950D02*
X169047200Y-56199750D01*
X187500000Y-69000000D02*
X187760000Y-68740000D01*
X187760000Y-68740000D02*
X190750000Y-68740000D01*
%TO.N,Net-(J2-CC2)*%
X169047200Y-57700150D02*
X170209293Y-57700150D01*
X170666301Y-57243142D02*
X170666301Y-55833699D01*
X170666301Y-55833699D02*
X171500000Y-55000000D01*
X170209293Y-57700150D02*
X170666301Y-57243142D01*
%TO.N,/motors/EN{slash}IN1*%
X193600000Y-86900000D02*
X194000000Y-86500000D01*
X194900000Y-73900000D02*
X194900000Y-70145000D01*
X196000000Y-107900000D02*
X196000000Y-107699997D01*
X196800000Y-107900000D02*
X196000000Y-107900000D01*
X193600000Y-90500000D02*
X193600000Y-86900000D01*
X194900000Y-70145000D02*
X195055000Y-69990000D01*
X197700000Y-107000000D02*
X196800000Y-107900000D01*
X195124265Y-74124265D02*
X194900000Y-73900000D01*
%TO.N,/motors/DIR{slash}IN2*%
X197600000Y-108500000D02*
X196000000Y-108500000D01*
X193000000Y-89500000D02*
X193000000Y-87500000D01*
X197595000Y-70805000D02*
X197595000Y-69990000D01*
X196500000Y-71900000D02*
X197595000Y-70805000D01*
X198350000Y-107000000D02*
X198350000Y-107750000D01*
X198350000Y-107750000D02*
X197600000Y-108500000D01*
%TO.N,/motors/NFAULT*%
X199500000Y-108500000D02*
X199700000Y-108500000D01*
X196500000Y-72500000D02*
X197500000Y-72500000D01*
X197500000Y-72500000D02*
X198865000Y-71135000D01*
X199650000Y-107000000D02*
X199650000Y-108350000D01*
X197500000Y-76000000D02*
X196000000Y-74500000D01*
X196000000Y-74500000D02*
X196000000Y-73000000D01*
X197500000Y-77500000D02*
X197500000Y-76000000D01*
X199650000Y-108350000D02*
X199500000Y-108500000D01*
X196000000Y-73000000D02*
X196500000Y-72500000D01*
X198865000Y-71135000D02*
X198865000Y-69990000D01*
%TO.N,Net-(U5-VREF)*%
X200850000Y-112100000D02*
X200850000Y-110150000D01*
X197650000Y-110000000D02*
X200800000Y-110000000D01*
X200850000Y-110150000D02*
X200900000Y-110100000D01*
X200300000Y-109500000D02*
X200300000Y-107000000D01*
X200900000Y-110100000D02*
X200300000Y-109500000D01*
X200800000Y-110000000D02*
X200900000Y-110100000D01*
%TO.N,Net-(M1-+)*%
X203500000Y-107000000D02*
X202250000Y-107000000D01*
%TO.N,Net-(M1--)*%
X201600000Y-101200000D02*
X201600000Y-99900000D01*
X201600000Y-99900000D02*
X202000000Y-99500000D01*
%TO.N,Net-(U5-VCP)*%
X200175000Y-98650000D02*
X200175000Y-101075000D01*
X200175000Y-101075000D02*
X200300000Y-101200000D01*
%TO.N,Net-(U5-CPH)*%
X199650000Y-101200000D02*
X199650000Y-100300000D01*
X199650000Y-100300000D02*
X197950000Y-98600000D01*
%TO.N,Net-(U5-CPL)*%
X199000000Y-100450000D02*
X197925000Y-99375000D01*
X199000000Y-101200000D02*
X199000000Y-100450000D01*
X197925000Y-99375000D02*
X197175000Y-99375000D01*
X197175000Y-99375000D02*
X196400000Y-98600000D01*
%TO.N,GPIO43*%
X210460000Y-56040000D02*
X211000000Y-55500000D01*
X208250000Y-56040000D02*
X210460000Y-56040000D01*
%TO.N,GPIO42*%
X210520000Y-58580000D02*
X210600000Y-58500000D01*
X208250000Y-58580000D02*
X210520000Y-58580000D01*
%TO.N,GPIO41*%
X210650000Y-59850000D02*
X211000000Y-59500000D01*
X208250000Y-59850000D02*
X210650000Y-59850000D01*
%TO.N,GPIO40*%
X208250000Y-61120000D02*
X209980000Y-61120000D01*
X209980000Y-61120000D02*
X210000000Y-61100000D01*
%TO.N,GPIO39*%
X209390000Y-62390000D02*
X210000000Y-63000000D01*
X208250000Y-62390000D02*
X209390000Y-62390000D01*
%TO.N,GPIO37*%
X208250000Y-64930000D02*
X208930000Y-64930000D01*
X208930000Y-64930000D02*
X210000000Y-66000000D01*
%TO.N,GPIO36*%
X208250000Y-66200000D02*
X209200000Y-66200000D01*
X209200000Y-66200000D02*
X210000000Y-67000000D01*
%TO.N,GPIO35*%
X208250000Y-67470000D02*
X209470000Y-67470000D01*
X209470000Y-67470000D02*
X210000000Y-68000000D01*
%TO.N,GPIO0*%
X214725000Y-73500000D02*
X230500000Y-73500000D01*
X214725000Y-73500000D02*
X209965000Y-68740000D01*
X209965000Y-68740000D02*
X208250000Y-68740000D01*
%TO.N,GPIO15*%
X191520000Y-61120000D02*
X192000000Y-61600000D01*
X190750000Y-61120000D02*
X191520000Y-61120000D01*
%TO.N,GPIO16*%
X190750000Y-62390000D02*
X191390000Y-62390000D01*
X191390000Y-62390000D02*
X192000000Y-63000000D01*
%TO.N,/switches/Pulse1*%
X208250000Y-63660000D02*
X208811471Y-63660000D01*
X208811471Y-63660000D02*
X211151471Y-66000000D01*
X212020876Y-65729124D02*
X212020876Y-63500876D01*
X211750000Y-66000000D02*
X212020876Y-65729124D01*
X211151471Y-66000000D02*
X211750000Y-66000000D01*
%TO.N,/motors1/IPROPI*%
X219500000Y-65000000D02*
X218650000Y-65000000D01*
X217650000Y-64000000D02*
X214500000Y-64000000D01*
X219500000Y-65000000D02*
X218875000Y-65000000D01*
X214000000Y-63500000D02*
X213900000Y-63500000D01*
X218650000Y-65000000D02*
X217650000Y-64000000D01*
X214500000Y-64000000D02*
X214000000Y-63500000D01*
X208480000Y-55000000D02*
X208250000Y-54770000D01*
X218875000Y-65000000D02*
X217650000Y-66225000D01*
X210000000Y-55000000D02*
X208480000Y-55000000D01*
%TO.N,Net-(U7-IPROPI)*%
X183050000Y-119375000D02*
X183000000Y-119425000D01*
X215792157Y-71140686D02*
X217009314Y-71140686D01*
X221150000Y-67000000D02*
X221150000Y-65000000D01*
X204000000Y-81000000D02*
X206000000Y-79000000D01*
X184600000Y-119375000D02*
X183050000Y-119375000D01*
X206000000Y-79000000D02*
X206000000Y-78500000D01*
X217009314Y-71140686D02*
X221150000Y-67000000D01*
%TO.N,Net-(D1-A)*%
X225885000Y-53500000D02*
X225925000Y-53460000D01*
X224000000Y-53500000D02*
X225885000Y-53500000D01*
%TO.N,Net-(D5-A)*%
X181000000Y-82017500D02*
X181562500Y-82580000D01*
X181000000Y-80500000D02*
X181000000Y-82017500D01*
X168827500Y-73000000D02*
X177987500Y-82160000D01*
X177987500Y-82160000D02*
X178500000Y-82160000D01*
%TO.N,Net-(J4-Pin_1)*%
X179900000Y-70100000D02*
X188500000Y-61500000D01*
X179900000Y-82739899D02*
X179900000Y-70100000D01*
X176600000Y-86039899D02*
X179900000Y-82739899D01*
X210500000Y-64500000D02*
X210500000Y-64200000D01*
X167000000Y-132000000D02*
X176600000Y-122400000D01*
X210500000Y-64200000D02*
X211199124Y-63500876D01*
X176600000Y-122400000D02*
X176600000Y-86039899D01*
%TO.N,/switches/Pulse2*%
X179500000Y-134000000D02*
X179500000Y-130500000D01*
X203400000Y-75165685D02*
X203400000Y-72712352D01*
X174500000Y-134500000D02*
X179000000Y-134500000D01*
X202800000Y-81765685D02*
X202800000Y-75765686D01*
X178000000Y-95680000D02*
X188300000Y-85380000D01*
X188300000Y-85380000D02*
X199185685Y-85380000D01*
X202800000Y-75765686D02*
X203400000Y-75165685D01*
X202675000Y-71987352D02*
X202675000Y-69990000D01*
X178000000Y-129000000D02*
X178000000Y-95680000D01*
X179000000Y-134500000D02*
X179500000Y-134000000D01*
X199185685Y-85380000D02*
X202800000Y-81765685D01*
X203400000Y-72712352D02*
X202675000Y-71987352D01*
X172000000Y-132000000D02*
X174500000Y-134500000D01*
X179500000Y-130500000D02*
X178000000Y-129000000D01*
%TO.N,/switches/Pulse3*%
X182659448Y-82230000D02*
X182400000Y-81970552D01*
X177000000Y-95317352D02*
X186625000Y-85692352D01*
X186412648Y-82030000D02*
X184415552Y-82030000D01*
X188274315Y-63660000D02*
X190750000Y-63660000D01*
X186625000Y-85692352D02*
X186625000Y-84092352D01*
X184415552Y-82030000D02*
X184215552Y-82230000D01*
X186775000Y-82392352D02*
X186412648Y-82030000D01*
X182400000Y-81970552D02*
X182400000Y-69534315D01*
X186625000Y-84092352D02*
X186775000Y-83942352D01*
X182400000Y-69534315D02*
X188274315Y-63660000D01*
X184215552Y-82230000D02*
X182659448Y-82230000D01*
X186775000Y-83942352D02*
X186775000Y-82392352D01*
X177000000Y-132000000D02*
X177000000Y-95317352D01*
%TO.N,/switches/DoorOpen*%
X212762742Y-118500000D02*
X219405773Y-118500000D01*
X192967157Y-130229899D02*
X196337258Y-133600000D01*
X196337258Y-133600000D02*
X197662742Y-133600000D01*
X182000000Y-132000000D02*
X183600000Y-133600000D01*
X191270101Y-130229899D02*
X192967157Y-130229899D01*
X227872500Y-110033272D02*
X227872500Y-98221029D01*
X183600000Y-133600000D02*
X187900000Y-133600000D01*
X197662742Y-133600000D02*
X212762742Y-118500000D01*
X227872500Y-98221029D02*
X205215000Y-75563529D01*
X219405773Y-118500000D02*
X227872500Y-110033272D01*
X187900000Y-133600000D02*
X191270101Y-130229899D01*
X205215000Y-75563529D02*
X205215000Y-69990000D01*
%TO.N,/switches/PulseInhibit*%
X187000000Y-132000000D02*
X178725000Y-123725000D01*
X203400000Y-87288642D02*
X203400000Y-78600000D01*
X178725000Y-123725000D02*
X178725000Y-111963642D01*
X178725000Y-111963642D02*
X203400000Y-87288642D01*
X203945000Y-78055000D02*
X203945000Y-69990000D01*
X203400000Y-78600000D02*
X203945000Y-78055000D01*
%TO.N,/motors/IPROPI*%
X214825000Y-54000000D02*
X215825000Y-55000000D01*
X211175000Y-53500000D02*
X208250000Y-53500000D01*
X212675000Y-54000000D02*
X214825000Y-54000000D01*
X211725000Y-57275000D02*
X211725000Y-54950000D01*
X212175000Y-54500000D02*
X211175000Y-53500000D01*
X211725000Y-54950000D02*
X212175000Y-54500000D01*
X212175000Y-54500000D02*
X212675000Y-54000000D01*
X212500000Y-58050000D02*
X211725000Y-57275000D01*
%TO.N,Net-(D2-A)*%
X225885000Y-56065000D02*
X225925000Y-56025000D01*
X224000000Y-56065000D02*
X225885000Y-56065000D01*
%TO.N,/motors1/NFAULT*%
X183075000Y-118075000D02*
X184600000Y-118075000D01*
X200000000Y-79000000D02*
X201500000Y-80500000D01*
X198850000Y-82650000D02*
X198500000Y-83000000D01*
X200000000Y-82650000D02*
X198850000Y-82650000D01*
X201350000Y-82650000D02*
X200000000Y-82650000D01*
X200000000Y-79000000D02*
X200000000Y-77500000D01*
X182500000Y-117500000D02*
X183075000Y-118075000D01*
X200135000Y-72865000D02*
X200135000Y-69990000D01*
X201500000Y-82500000D02*
X201350000Y-82650000D01*
X201500000Y-80500000D02*
X201500000Y-82500000D01*
X186000000Y-111500000D02*
X183000000Y-111500000D01*
X200000000Y-73000000D02*
X200135000Y-72865000D01*
%TO.N,Net-(M2-+)*%
X184600000Y-120675000D02*
X184600000Y-121100000D01*
X184600000Y-121100000D02*
X185000000Y-121500000D01*
%TO.N,Net-(M2--)*%
X190400000Y-120025000D02*
X191950000Y-120025000D01*
X191950000Y-120025000D02*
X192000000Y-120075000D01*
%TO.N,Net-(U7-VCP)*%
X192350000Y-118725000D02*
X190400000Y-118725000D01*
X193075000Y-118000000D02*
X192350000Y-118725000D01*
%TO.N,/switches/MaxY*%
X189980000Y-57310000D02*
X190750000Y-57310000D01*
X171000000Y-90828428D02*
X169828427Y-92000000D01*
X171000000Y-82000000D02*
X171000000Y-90828428D01*
X168171572Y-92000000D02*
X166427500Y-90255927D01*
X189395000Y-56725000D02*
X189980000Y-57310000D01*
X166427500Y-66383884D02*
X176086384Y-56725000D01*
X176086384Y-56725000D02*
X189395000Y-56725000D01*
X169000000Y-80000000D02*
X171000000Y-82000000D01*
X166427500Y-90255927D02*
X166427500Y-66383884D01*
X169828427Y-92000000D02*
X168171572Y-92000000D01*
%TO.N,/switches/MinY*%
X170600000Y-86600000D02*
X170600000Y-90662742D01*
X169662742Y-91600000D02*
X168337258Y-91600000D01*
X166827500Y-90090242D02*
X166827500Y-66549570D01*
X169000000Y-85000000D02*
X170600000Y-86600000D01*
X174797070Y-58580000D02*
X190750000Y-58580000D01*
X170600000Y-90662742D02*
X169662742Y-91600000D01*
X168337258Y-91600000D02*
X166827500Y-90090242D01*
X166827500Y-66549570D02*
X174797070Y-58580000D01*
%TO.N,/switches/MinX*%
X174092756Y-59850000D02*
X190750000Y-59850000D01*
X169000000Y-90000000D02*
X167227500Y-88227500D01*
X167227500Y-66715256D02*
X174092756Y-59850000D01*
X167227500Y-88227500D02*
X167227500Y-66715256D01*
%TO.N,/switches/Fused*%
X175460000Y-56040000D02*
X190750000Y-56040000D01*
X169000000Y-95000000D02*
X164500000Y-90500000D01*
X164500000Y-90500000D02*
X164500000Y-67000000D01*
X164500000Y-67000000D02*
X175460000Y-56040000D01*
%TO.N,/switches/Grip*%
X189500000Y-84580000D02*
X189500000Y-82500000D01*
X189500000Y-82500000D02*
X183500000Y-76500000D01*
X183500000Y-76500000D02*
X183500000Y-69000000D01*
X187325000Y-84580000D02*
X189500000Y-84580000D01*
X187570000Y-64930000D02*
X190750000Y-64930000D01*
X183500000Y-69000000D02*
X187570000Y-64930000D01*
%TO.N,/motors1/EN{slash}IN1*%
X187500000Y-66000000D02*
X188000000Y-66000000D01*
X188000000Y-66000000D02*
X188200000Y-66200000D01*
X188200000Y-66200000D02*
X190750000Y-66200000D01*
X184000000Y-115525000D02*
X184000000Y-115000000D01*
X184600000Y-116125000D02*
X184000000Y-115525000D01*
%TO.N,/motors1/DIR{slash}IN2*%
X184000000Y-114000000D02*
X184600000Y-114000000D01*
X183000000Y-116000000D02*
X183000000Y-115000000D01*
X183000000Y-115000000D02*
X184000000Y-114000000D01*
X183775000Y-116775000D02*
X183000000Y-116000000D01*
X195500000Y-72000000D02*
X196325000Y-71175000D01*
X196325000Y-71175000D02*
X196325000Y-69990000D01*
X184600000Y-116775000D02*
X183775000Y-116775000D01*
%TO.N,Net-(Q2-G)*%
X185375000Y-83530000D02*
X186000000Y-82905000D01*
X183437500Y-83530000D02*
X185375000Y-83530000D01*
X185675000Y-84580000D02*
X185675000Y-83230000D01*
X185675000Y-83230000D02*
X186000000Y-82905000D01*
%TD*%
M02*
