%TF.GenerationSoftware,KiCad,Pcbnew,10.0.0*%
%TF.CreationDate,2026-05-13T23:48:43-07:00*%
%TF.ProjectId,clawtronics,636c6177-7472-46f6-9e69-63732e6b6963,rev?*%
%TF.SameCoordinates,Original*%
%TF.FileFunction,Copper,L4,Bot*%
%TF.FilePolarity,Positive*%
%FSLAX46Y46*%
G04 Gerber Fmt 4.6, Leading zero omitted, Abs format (unit mm)*
G04 Created by KiCad (PCBNEW 10.0.0) date 2026-05-13 23:48:43*
%MOMM*%
%LPD*%
G01*
G04 APERTURE LIST*
G04 Aperture macros list*
%AMRoundRect*
0 Rectangle with rounded corners*
0 $1 Rounding radius*
0 $2 $3 $4 $5 $6 $7 $8 $9 X,Y pos of 4 corners*
0 Add a 4 corners polygon primitive as box body*
4,1,4,$2,$3,$4,$5,$6,$7,$8,$9,$2,$3,0*
0 Add four circle primitives for the rounded corners*
1,1,$1+$1,$2,$3*
1,1,$1+$1,$4,$5*
1,1,$1+$1,$6,$7*
1,1,$1+$1,$8,$9*
0 Add four rect primitives between the rounded corners*
20,1,$1+$1,$2,$3,$4,$5,0*
20,1,$1+$1,$4,$5,$6,$7,0*
20,1,$1+$1,$6,$7,$8,$9,0*
20,1,$1+$1,$8,$9,$2,$3,0*%
G04 Aperture macros list end*
%TA.AperFunction,ComponentPad*%
%ADD10C,0.450000*%
%TD*%
%TA.AperFunction,ComponentPad*%
%ADD11RoundRect,0.250000X1.050000X-1.050000X1.050000X1.050000X-1.050000X1.050000X-1.050000X-1.050000X0*%
%TD*%
%TA.AperFunction,ComponentPad*%
%ADD12C,2.600000*%
%TD*%
%TA.AperFunction,ComponentPad*%
%ADD13C,0.300000*%
%TD*%
%TA.AperFunction,ComponentPad*%
%ADD14C,0.609600*%
%TD*%
%TA.AperFunction,ComponentPad*%
%ADD15R,0.850000X0.850000*%
%TD*%
%TA.AperFunction,ComponentPad*%
%ADD16C,0.850000*%
%TD*%
%TA.AperFunction,ComponentPad*%
%ADD17RoundRect,0.249999X-0.850001X0.850001X-0.850001X-0.850001X0.850001X-0.850001X0.850001X0.850001X0*%
%TD*%
%TA.AperFunction,ComponentPad*%
%ADD18C,2.200000*%
%TD*%
%TA.AperFunction,ComponentPad*%
%ADD19RoundRect,0.250000X-1.050000X-1.050000X1.050000X-1.050000X1.050000X1.050000X-1.050000X1.050000X0*%
%TD*%
%TA.AperFunction,ComponentPad*%
%ADD20RoundRect,0.250000X-1.050000X1.050000X-1.050000X-1.050000X1.050000X-1.050000X1.050000X1.050000X0*%
%TD*%
%TA.AperFunction,ViaPad*%
%ADD21C,0.600000*%
%TD*%
%TA.AperFunction,Conductor*%
%ADD22C,0.400000*%
%TD*%
%TA.AperFunction,Conductor*%
%ADD23C,0.200000*%
%TD*%
G04 APERTURE END LIST*
D10*
%TO.P,U9,3,GND_3*%
%TO.N,GND*%
X211610000Y-63240000D03*
%TD*%
D11*
%TO.P,J5,1,Pin_1_1*%
%TO.N,+24V*%
X169500000Y-122000000D03*
D12*
%TO.P,J5,2,Pin_2_2*%
%TO.N,+12V*%
X169500000Y-117000000D03*
%TO.P,J5,3,Pin_3_3*%
%TO.N,+5V*%
X169500000Y-112000000D03*
%TO.P,J5,4,Pin_4_4*%
%TO.N,GNDPWR*%
X169500000Y-107000000D03*
%TD*%
D13*
%TO.P,U8,18*%
%TO.N,N/C*%
X212800000Y-102000000D03*
%TO.P,U8,19*%
X212800000Y-101000000D03*
%TO.P,U8,20*%
X212800000Y-100000000D03*
%TO.P,U8,21*%
X214000000Y-102000000D03*
%TO.P,U8,22*%
X214000000Y-101000000D03*
%TO.P,U8,23*%
X214000000Y-100000000D03*
%TO.P,U8,24*%
X215200000Y-102000000D03*
%TO.P,U8,25*%
X215200000Y-101000000D03*
%TO.P,U8,26*%
X215200000Y-100000000D03*
%TO.P,U8,27*%
X216400000Y-102000000D03*
%TO.P,U8,28*%
X216400000Y-101000000D03*
%TO.P,U8,29*%
X216400000Y-100000000D03*
%TD*%
D11*
%TO.P,M3,1,+_1*%
%TO.N,Net-(M3-+)*%
X225672500Y-108500000D03*
D12*
%TO.P,M3,2,-_2*%
%TO.N,Net-(M3--)*%
X225672500Y-103500000D03*
%TD*%
D14*
%TO.P,J2,19*%
%TO.N,N/C*%
X167932300Y-53449850D03*
%TO.P,J2,S_1_H1*%
X167932300Y-59564150D03*
%TO.P,J2,S_1_H2*%
X167932300Y-59335550D03*
%TO.P,J2,S_2_H1*%
X169147500Y-52129850D03*
%TO.P,J2,S_2_H2*%
X168156900Y-52129850D03*
%TO.P,J2,S_3_H1*%
X169147500Y-60769850D03*
%TO.P,J2,S_3_H2*%
X168156900Y-60769850D03*
%TO.P,J2,S_4_H1*%
X165479900Y-52129850D03*
%TO.P,J2,S_4_H2*%
X164184500Y-52129850D03*
%TO.P,J2,S_5_H1*%
X165479900Y-60769850D03*
%TO.P,J2,S_5_H2*%
X164184500Y-60769850D03*
%TD*%
D13*
%TO.P,U5,18*%
%TO.N,N/C*%
X198175000Y-105100000D03*
%TO.P,U5,19*%
X198175000Y-104100000D03*
%TO.P,U5,20*%
X198175000Y-103100000D03*
%TO.P,U5,21*%
X199375000Y-105100000D03*
%TO.P,U5,22*%
X199375000Y-104100000D03*
%TO.P,U5,23*%
X199375000Y-103100000D03*
%TO.P,U5,24*%
X200575000Y-105100000D03*
%TO.P,U5,25*%
X200575000Y-104100000D03*
%TO.P,U5,26*%
X200575000Y-103100000D03*
%TO.P,U5,27*%
X201775000Y-105100000D03*
%TO.P,U5,28*%
X201775000Y-104100000D03*
%TO.P,U5,29*%
X201775000Y-103100000D03*
%TD*%
D15*
%TO.P,J6,1,Pin_1_1*%
%TO.N,+5V*%
X230500000Y-62500000D03*
D16*
%TO.P,J6,2,Pin_2_2*%
%TO.N,+3V3*%
X230500000Y-63500000D03*
%TO.P,J6,3,Pin_3_3*%
%TO.N,GPIO43*%
X230500000Y-64500000D03*
%TO.P,J6,4,Pin_4_4*%
%TO.N,GPIO44*%
X230500000Y-65500000D03*
%TO.P,J6,5,Pin_5_5*%
%TO.N,GPIO42*%
X230500000Y-66500000D03*
%TO.P,J6,6,Pin_6_6*%
%TO.N,GPIO41*%
X230500000Y-67500000D03*
%TO.P,J6,7,Pin_7_7*%
%TO.N,GPIO40*%
X230500000Y-68500000D03*
%TO.P,J6,8,Pin_8_8*%
%TO.N,GPIO39*%
X230500000Y-69500000D03*
%TO.P,J6,9,Pin_9_9*%
%TO.N,GPIO37*%
X230500000Y-70500000D03*
%TO.P,J6,10,Pin_10_10*%
%TO.N,GPIO36*%
X230500000Y-71500000D03*
%TO.P,J6,11,Pin_11_11*%
%TO.N,GPIO35*%
X230500000Y-72500000D03*
%TO.P,J6,12,Pin_12_12*%
%TO.N,GPIO0*%
X230500000Y-73500000D03*
%TO.P,J6,13,Pin_13_13*%
%TO.N,GPIO15*%
X230500000Y-74500000D03*
%TO.P,J6,14,Pin_14_14*%
%TO.N,GPIO16*%
X230500000Y-75500000D03*
%TO.P,J6,15,Pin_15_15*%
%TO.N,EN*%
X230500000Y-76500000D03*
%TO.P,J6,16,Pin_16_16*%
%TO.N,GND*%
X230500000Y-77500000D03*
%TD*%
D17*
%TO.P,D5,1,K_1*%
%TO.N,+12V*%
X178500000Y-72000000D03*
D18*
%TO.P,D5,2,A_2*%
%TO.N,Net-(D5-A)*%
X178500000Y-82160000D03*
%TD*%
D19*
%TO.P,J4,1,Pin_1_1*%
%TO.N,Net-(J4-Pin_1)*%
X167000000Y-132000000D03*
D12*
%TO.P,J4,2,Pin_2_2*%
%TO.N,/switches/Pulse2*%
X172000000Y-132000000D03*
%TO.P,J4,3,Pin_3_3*%
%TO.N,/switches/Pulse3*%
X177000000Y-132000000D03*
%TO.P,J4,4,Pin_4_4*%
%TO.N,/switches/DoorOpen*%
X182000000Y-132000000D03*
%TO.P,J4,5,Pin_5_5*%
%TO.N,/switches/PulseInhibit*%
X187000000Y-132000000D03*
%TO.P,J4,6,Pin_6_6*%
%TO.N,+5V*%
X192000000Y-132000000D03*
%TO.P,J4,7,Pin_7_7*%
%TO.N,GND*%
X197000000Y-132000000D03*
%TO.P,J4,8,Pin_8_8*%
%TO.N,+24V*%
X202000000Y-132000000D03*
%TO.P,J4,9,Pin_9_9*%
%TO.N,GNDPWR*%
X207000000Y-132000000D03*
%TD*%
D11*
%TO.P,M2,1,+_1*%
%TO.N,Net-(M2-+)*%
X225672500Y-134000000D03*
D12*
%TO.P,M2,2,-_2*%
%TO.N,Net-(M2--)*%
X225672500Y-129000000D03*
%TD*%
D20*
%TO.P,J1,1,Pin_1_1*%
%TO.N,/switches/MaxY*%
X169000000Y-80000000D03*
D12*
%TO.P,J1,2,Pin_2_2*%
%TO.N,/switches/MinY*%
X169000000Y-85000000D03*
%TO.P,J1,3,Pin_3_3*%
%TO.N,/switches/MinX*%
X169000000Y-90000000D03*
%TO.P,J1,4,Pin_4_4*%
%TO.N,/switches/Fused*%
X169000000Y-95000000D03*
%TO.P,J1,5,Pin_5_5*%
%TO.N,GND*%
X169000000Y-100000000D03*
%TD*%
D11*
%TO.P,M1,1,+_1*%
%TO.N,Net-(M1-+)*%
X225672500Y-121000000D03*
D12*
%TO.P,M1,2,-_2*%
%TO.N,Net-(M1--)*%
X225672500Y-116000000D03*
%TD*%
D20*
%TO.P,J11,1,Pin_1_1*%
%TO.N,+12V*%
X168827500Y-68000000D03*
D12*
%TO.P,J11,2,Pin_2_2*%
%TO.N,Net-(D5-A)*%
X168827500Y-73000000D03*
%TD*%
D13*
%TO.P,U7,18*%
%TO.N,N/C*%
X186500000Y-116600000D03*
%TO.P,U7,19*%
X187500000Y-116600000D03*
%TO.P,U7,20*%
X188500000Y-116600000D03*
%TO.P,U7,21*%
X186500000Y-117800000D03*
%TO.P,U7,22*%
X187500000Y-117800000D03*
%TO.P,U7,23*%
X188500000Y-117800000D03*
%TO.P,U7,24*%
X186500000Y-119000000D03*
%TO.P,U7,25*%
X187500000Y-119000000D03*
%TO.P,U7,26*%
X188500000Y-119000000D03*
%TO.P,U7,27*%
X186500000Y-120200000D03*
%TO.P,U7,28*%
X187500000Y-120200000D03*
%TO.P,U7,29*%
X188500000Y-120200000D03*
%TD*%
D21*
%TO.N,+24V*%
X197000000Y-126000000D03*
X197000000Y-126000000D03*
X169500000Y-125500000D03*
%TO.N,+12V*%
X175000000Y-107500000D03*
X175000000Y-73000000D03*
%TO.N,+5V*%
X172000000Y-112000000D03*
X227500000Y-63900000D03*
X165000000Y-104000000D03*
X181500000Y-101000000D03*
X212000000Y-87500000D03*
X186600000Y-101500000D03*
%TO.N,GNDPWR*%
X172500000Y-107000000D03*
%TO.N,GND*%
X185600000Y-80000000D03*
X195500000Y-60000000D03*
X188000000Y-121500000D03*
X211500000Y-100000000D03*
X213500000Y-56500000D03*
X180000000Y-100500000D03*
X198500000Y-57500000D03*
X210000000Y-52000000D03*
X197000000Y-57500000D03*
X202500000Y-113000000D03*
X191000000Y-76500000D03*
X215500000Y-57000000D03*
X197500000Y-62500000D03*
X200500000Y-59500000D03*
X217500000Y-97650000D03*
X193000000Y-124400000D03*
X222500000Y-60000000D03*
X217000000Y-111500000D03*
X195500000Y-62500000D03*
X175500000Y-51500000D03*
X210500000Y-62000000D03*
X190500000Y-115000000D03*
X171500000Y-59000000D03*
X197000000Y-101500000D03*
X205000000Y-100000000D03*
X190500000Y-121500000D03*
X217000000Y-69000000D03*
X203000000Y-105000000D03*
X217500000Y-100500000D03*
X198500000Y-63000000D03*
X221000000Y-95500000D03*
X180500000Y-121000000D03*
X200000000Y-57500000D03*
X210000000Y-71500000D03*
%TO.N,/motors2/EN{slash}IN1*%
X210000000Y-79500000D03*
X210000000Y-103500000D03*
%TO.N,/motors2/DIR{slash}IN2*%
X207400000Y-82000000D03*
X195500000Y-77500000D03*
X210500000Y-104900000D03*
X209100000Y-82000000D03*
%TO.N,+3V3*%
X194500000Y-110000000D03*
X228500000Y-56000000D03*
X229000000Y-63500000D03*
X188500000Y-53500000D03*
X213500000Y-66500000D03*
X201000000Y-73500000D03*
X181500000Y-94000000D03*
X213000000Y-62500000D03*
X187500000Y-57500000D03*
X180500000Y-113500000D03*
X197500000Y-80500000D03*
X210000000Y-108000000D03*
%TO.N,/motors2/NFAULT*%
X214000000Y-106400000D03*
X207000000Y-105000000D03*
X208000000Y-106000000D03*
X202000000Y-77500000D03*
%TO.N,Net-(U8-IPROPI)*%
X189000000Y-75900000D03*
X207400000Y-81000000D03*
X194600000Y-76500000D03*
X208600000Y-81000000D03*
X189000000Y-77100000D03*
X215525000Y-105500000D03*
%TO.N,EN*%
X183500000Y-55000000D03*
X227000000Y-76500000D03*
X183500000Y-57325000D03*
X192500000Y-55000000D03*
%TO.N,Net-(U5-IPROPI)*%
X214500000Y-59500000D03*
X202900000Y-108500000D03*
X204500000Y-108500000D03*
X204500000Y-108500000D03*
X201000000Y-108500000D03*
%TO.N,D-*%
X170066301Y-55994683D03*
X187500000Y-67500000D03*
%TO.N,D+*%
X170066274Y-56994640D03*
X187500000Y-69000000D03*
%TO.N,/motors/EN{slash}IN1*%
X193600000Y-90500000D03*
X196000000Y-107699997D03*
X194000000Y-86500000D03*
X195124265Y-74124265D03*
%TO.N,/motors/DIR{slash}IN2*%
X196000000Y-108500000D03*
X196500000Y-71900000D03*
X193000000Y-89500000D03*
X193000000Y-87500000D03*
%TO.N,/motors/NFAULT*%
X199700000Y-108500000D03*
X197500000Y-77500000D03*
%TO.N,Net-(M1-+)*%
X203500000Y-107000000D03*
%TO.N,Net-(M1--)*%
X202000000Y-99500000D03*
X203500000Y-101000000D03*
%TO.N,GPIO43*%
X211000000Y-55500000D03*
%TO.N,GPIO42*%
X210600000Y-58500000D03*
%TO.N,GPIO41*%
X211000000Y-59500000D03*
%TO.N,GPIO40*%
X210000000Y-61100000D03*
%TO.N,GPIO39*%
X210000000Y-63000000D03*
%TO.N,GPIO37*%
X210000000Y-66000000D03*
%TO.N,GPIO36*%
X210000000Y-67000000D03*
%TO.N,GPIO35*%
X210000000Y-68000000D03*
%TO.N,GPIO15*%
X192000000Y-61600000D03*
%TO.N,GPIO16*%
X192000000Y-63000000D03*
%TO.N,/motors1/IPROPI*%
X213900000Y-63500000D03*
X210000000Y-55000000D03*
%TO.N,Net-(U7-IPROPI)*%
X215792157Y-71140686D03*
X204000000Y-81000000D03*
X183000000Y-119425000D03*
X206000000Y-78500000D03*
%TO.N,Net-(D5-A)*%
X181000000Y-80500000D03*
%TO.N,Net-(J4-Pin_1)*%
X188500000Y-61500000D03*
X210500000Y-64500000D03*
%TO.N,/motors1/NFAULT*%
X186000000Y-111500000D03*
X183000000Y-111500000D03*
X200000000Y-73000000D03*
X198500000Y-83000000D03*
X200000000Y-77500000D03*
X182500000Y-117500000D03*
%TO.N,Net-(M2-+)*%
X185000000Y-121500000D03*
%TO.N,Net-(M2--)*%
X192000000Y-120075000D03*
%TO.N,/motors1/EN{slash}IN1*%
X184000000Y-115000000D03*
X184000000Y-115000000D03*
X187500000Y-66000000D03*
%TO.N,/motors1/DIR{slash}IN2*%
X183000000Y-115000000D03*
X195500000Y-72000000D03*
X184600000Y-114000000D03*
%TD*%
%TO.N,+24V*%
D22*
X169500000Y-125500000D02*
X195500000Y-125500000D01*
X195500000Y-125500000D02*
X196000000Y-126000000D01*
X196000000Y-126000000D02*
X202000000Y-132000000D01*
X197000000Y-126000000D02*
X196000000Y-126000000D01*
%TO.N,+12V*%
X175000000Y-107500000D02*
X175000000Y-73000000D01*
%TO.N,+5V*%
X181500000Y-102500000D02*
X181500000Y-101000000D01*
X227500000Y-63900000D02*
X227500000Y-70000000D01*
X227500000Y-70000000D02*
X212000000Y-85500000D01*
X212000000Y-85500000D02*
X212000000Y-87500000D01*
X172000000Y-112000000D02*
X181500000Y-102500000D01*
%TO.N,/motors2/EN{slash}IN1*%
D23*
X210000000Y-103500000D02*
X210000000Y-79500000D01*
%TO.N,/motors2/DIR{slash}IN2*%
X208900000Y-81800000D02*
X209100000Y-82000000D01*
X207400000Y-82000000D02*
X202300000Y-76900000D01*
X196100000Y-76900000D02*
X195500000Y-77500000D01*
X202300000Y-76900000D02*
X196100000Y-76900000D01*
X208900000Y-103300000D02*
X208900000Y-81800000D01*
X210500000Y-104900000D02*
X208900000Y-103300000D01*
%TO.N,+3V3*%
D22*
X206500000Y-73500000D02*
X213500000Y-66500000D01*
X201000000Y-73500000D02*
X206500000Y-73500000D01*
%TO.N,/motors2/NFAULT*%
D23*
X214000000Y-106400000D02*
X213600000Y-106000000D01*
X213600000Y-106000000D02*
X208000000Y-106000000D01*
X207000000Y-105000000D02*
X207000000Y-82500000D01*
X207000000Y-82500000D02*
X202000000Y-77500000D01*
%TO.N,Net-(U8-IPROPI)*%
X208500000Y-105000000D02*
X208500000Y-81000000D01*
X189000000Y-77100000D02*
X189000000Y-75900000D01*
X207400000Y-81000000D02*
X202900000Y-76500000D01*
X215525000Y-105500000D02*
X209000000Y-105500000D01*
X209000000Y-105500000D02*
X208500000Y-105000000D01*
X208500000Y-81000000D02*
X208600000Y-81000000D01*
X202900000Y-76500000D02*
X194600000Y-76500000D01*
%TO.N,EN*%
X183500000Y-55000000D02*
X183500000Y-57325000D01*
%TO.N,Net-(U5-IPROPI)*%
X211500000Y-77000000D02*
X216500000Y-77000000D01*
X214500000Y-69000000D02*
X214500000Y-59500000D01*
X201000000Y-108500000D02*
X202900000Y-108500000D01*
X216500000Y-71000000D02*
X214500000Y-69000000D01*
X208000000Y-105000000D02*
X208000000Y-80500000D01*
X216500000Y-77000000D02*
X216500000Y-71000000D01*
X204500000Y-108500000D02*
X208000000Y-105000000D01*
X208000000Y-80500000D02*
X211500000Y-77000000D01*
%TO.N,/motors/EN{slash}IN1*%
X194000000Y-75000000D02*
X195000000Y-74000000D01*
X193699997Y-107699997D02*
X193500000Y-107500000D01*
X194000000Y-86500000D02*
X194000000Y-75000000D01*
X196000000Y-107699997D02*
X193699997Y-107699997D01*
X193500000Y-107500000D02*
X193500000Y-90500000D01*
X195000000Y-74000000D02*
X195124265Y-74124265D01*
X193500000Y-90500000D02*
X193600000Y-90500000D01*
%TO.N,/motors/DIR{slash}IN2*%
X196000000Y-108500000D02*
X193000000Y-108500000D01*
X193000000Y-75400000D02*
X196500000Y-71900000D01*
X193000000Y-87500000D02*
X193000000Y-75400000D01*
X193000000Y-108500000D02*
X193000000Y-89500000D01*
%TO.N,/motors/NFAULT*%
X199700000Y-108500000D02*
X198900000Y-107700000D01*
X198900000Y-83448529D02*
X199100000Y-83248529D01*
X199100000Y-83248529D02*
X199100000Y-79100000D01*
X199100000Y-79100000D02*
X197500000Y-77500000D01*
X198900000Y-107700000D02*
X198900000Y-83448529D01*
%TO.N,Net-(M1-+)*%
X215000000Y-121000000D02*
X225672500Y-121000000D01*
X203500000Y-109500000D02*
X215000000Y-121000000D01*
X203500000Y-107000000D02*
X203500000Y-109500000D01*
%TO.N,Net-(M1--)*%
X204251471Y-107900000D02*
X203900000Y-108251471D01*
X203900000Y-108251471D02*
X203900000Y-108748529D01*
X211151471Y-116000000D02*
X225672500Y-116000000D01*
X203900000Y-108748529D02*
X211151471Y-116000000D01*
X202000000Y-99500000D02*
X203500000Y-101000000D01*
X204251471Y-101751471D02*
X204251471Y-107900000D01*
X203500000Y-101000000D02*
X204251471Y-101751471D01*
%TO.N,/motors1/IPROPI*%
X213900000Y-61900000D02*
X212500000Y-60500000D01*
X210000000Y-60500000D02*
X210000000Y-55000000D01*
X212500000Y-60500000D02*
X210000000Y-60500000D01*
X213900000Y-63500000D02*
X213900000Y-61900000D01*
%TO.N,Net-(U7-IPROPI)*%
X193325000Y-109100000D02*
X200048529Y-109100000D01*
X206000000Y-78500000D02*
X208000000Y-76500000D01*
X215967157Y-71032843D02*
X215859314Y-71140686D01*
X200400000Y-108251471D02*
X201248529Y-107402942D01*
X201248529Y-107402942D02*
X201248529Y-83751471D01*
X200048529Y-109100000D02*
X200400000Y-108748529D01*
X216000000Y-71065686D02*
X215967157Y-71032843D01*
X216000000Y-76500000D02*
X216000000Y-71065686D01*
X201248529Y-83751471D02*
X204000000Y-81000000D01*
X215859314Y-71140686D02*
X215792157Y-71140686D01*
X200400000Y-108748529D02*
X200400000Y-108251471D01*
X183000000Y-119425000D02*
X193325000Y-109100000D01*
X208000000Y-76500000D02*
X216000000Y-76500000D01*
%TO.N,Net-(D5-A)*%
X180160000Y-80500000D02*
X181000000Y-80500000D01*
X178500000Y-82160000D02*
X180160000Y-80500000D01*
%TO.N,Net-(J4-Pin_1)*%
X203000000Y-61000000D02*
X206500000Y-64500000D01*
X189000000Y-61000000D02*
X203000000Y-61000000D01*
X188500000Y-61500000D02*
X189000000Y-61000000D01*
X206500000Y-64500000D02*
X210500000Y-64500000D01*
%TO.N,/motors1/NFAULT*%
X186000000Y-95500000D02*
X186000000Y-111500000D01*
X198500000Y-83000000D02*
X186000000Y-95500000D01*
X182400000Y-117400000D02*
X182500000Y-117500000D01*
X182400000Y-112100000D02*
X182400000Y-117400000D01*
X183000000Y-111500000D02*
X182400000Y-112100000D01*
%TO.N,Net-(M2-+)*%
X219000000Y-134000000D02*
X225672500Y-134000000D01*
X188500000Y-125000000D02*
X210000000Y-125000000D01*
X210000000Y-125000000D02*
X219000000Y-134000000D01*
X185000000Y-121500000D02*
X188500000Y-125000000D01*
%TO.N,Net-(M2--)*%
X192000000Y-120075000D02*
X206075000Y-120075000D01*
X206075000Y-120075000D02*
X215000000Y-129000000D01*
X215000000Y-129000000D02*
X225672500Y-129000000D01*
%TO.N,/motors1/EN{slash}IN1*%
X184000000Y-69500000D02*
X187500000Y-66000000D01*
X184000000Y-115000000D02*
X184000000Y-69500000D01*
%TO.N,/motors1/DIR{slash}IN2*%
X185000000Y-72000000D02*
X195500000Y-72000000D01*
X184600000Y-114000000D02*
X185000000Y-113600000D01*
X185000000Y-113600000D02*
X185000000Y-72000000D01*
%TD*%
M02*
