%TF.GenerationSoftware,KiCad,Pcbnew,10.0.0*%
%TF.CreationDate,2026-05-13T23:48:44-07:00*%
%TF.ProjectId,clawtronics,636c6177-7472-46f6-9e69-63732e6b6963,rev?*%
%TF.SameCoordinates,Original*%
%TF.FileFunction,Legend,Top*%
%TF.FilePolarity,Positive*%
%FSLAX46Y46*%
G04 Gerber Fmt 4.6, Leading zero omitted, Abs format (unit mm)*
G04 Created by KiCad (PCBNEW 10.0.0) date 2026-05-13 23:48:44*
%MOMM*%
%LPD*%
G01*
G04 APERTURE LIST*
%ADD10C,0.150000*%
%ADD11C,0.050000*%
%ADD12C,0.140357*%
%ADD13C,0.120000*%
%ADD14C,0.127000*%
%ADD15C,0.200000*%
%ADD16C,0.152400*%
G04 APERTURE END LIST*
D10*
X210848095Y-61194819D02*
X210848095Y-62004342D01*
X210848095Y-62004342D02*
X210895714Y-62099580D01*
X210895714Y-62099580D02*
X210943333Y-62147200D01*
X210943333Y-62147200D02*
X211038571Y-62194819D01*
X211038571Y-62194819D02*
X211229047Y-62194819D01*
X211229047Y-62194819D02*
X211324285Y-62147200D01*
X211324285Y-62147200D02*
X211371904Y-62099580D01*
X211371904Y-62099580D02*
X211419523Y-62004342D01*
X211419523Y-62004342D02*
X211419523Y-61194819D01*
X211943333Y-62194819D02*
X212133809Y-62194819D01*
X212133809Y-62194819D02*
X212229047Y-62147200D01*
X212229047Y-62147200D02*
X212276666Y-62099580D01*
X212276666Y-62099580D02*
X212371904Y-61956723D01*
X212371904Y-61956723D02*
X212419523Y-61766247D01*
X212419523Y-61766247D02*
X212419523Y-61385295D01*
X212419523Y-61385295D02*
X212371904Y-61290057D01*
X212371904Y-61290057D02*
X212324285Y-61242438D01*
X212324285Y-61242438D02*
X212229047Y-61194819D01*
X212229047Y-61194819D02*
X212038571Y-61194819D01*
X212038571Y-61194819D02*
X211943333Y-61242438D01*
X211943333Y-61242438D02*
X211895714Y-61290057D01*
X211895714Y-61290057D02*
X211848095Y-61385295D01*
X211848095Y-61385295D02*
X211848095Y-61623390D01*
X211848095Y-61623390D02*
X211895714Y-61718628D01*
X211895714Y-61718628D02*
X211943333Y-61766247D01*
X211943333Y-61766247D02*
X212038571Y-61813866D01*
X212038571Y-61813866D02*
X212229047Y-61813866D01*
X212229047Y-61813866D02*
X212324285Y-61766247D01*
X212324285Y-61766247D02*
X212371904Y-61718628D01*
X212371904Y-61718628D02*
X212419523Y-61623390D01*
X175454819Y-122333333D02*
X176169104Y-122333333D01*
X176169104Y-122333333D02*
X176311961Y-122380952D01*
X176311961Y-122380952D02*
X176407200Y-122476190D01*
X176407200Y-122476190D02*
X176454819Y-122619047D01*
X176454819Y-122619047D02*
X176454819Y-122714285D01*
X175454819Y-121380952D02*
X175454819Y-121857142D01*
X175454819Y-121857142D02*
X175931009Y-121904761D01*
X175931009Y-121904761D02*
X175883390Y-121857142D01*
X175883390Y-121857142D02*
X175835771Y-121761904D01*
X175835771Y-121761904D02*
X175835771Y-121523809D01*
X175835771Y-121523809D02*
X175883390Y-121428571D01*
X175883390Y-121428571D02*
X175931009Y-121380952D01*
X175931009Y-121380952D02*
X176026247Y-121333333D01*
X176026247Y-121333333D02*
X176264342Y-121333333D01*
X176264342Y-121333333D02*
X176359580Y-121380952D01*
X176359580Y-121380952D02*
X176407200Y-121428571D01*
X176407200Y-121428571D02*
X176454819Y-121523809D01*
X176454819Y-121523809D02*
X176454819Y-121761904D01*
X176454819Y-121761904D02*
X176407200Y-121857142D01*
X176407200Y-121857142D02*
X176359580Y-121904761D01*
X229258333Y-59094819D02*
X228925000Y-58618628D01*
X228686905Y-59094819D02*
X228686905Y-58094819D01*
X228686905Y-58094819D02*
X229067857Y-58094819D01*
X229067857Y-58094819D02*
X229163095Y-58142438D01*
X229163095Y-58142438D02*
X229210714Y-58190057D01*
X229210714Y-58190057D02*
X229258333Y-58285295D01*
X229258333Y-58285295D02*
X229258333Y-58428152D01*
X229258333Y-58428152D02*
X229210714Y-58523390D01*
X229210714Y-58523390D02*
X229163095Y-58571009D01*
X229163095Y-58571009D02*
X229067857Y-58618628D01*
X229067857Y-58618628D02*
X228686905Y-58618628D01*
X230163095Y-58094819D02*
X229686905Y-58094819D01*
X229686905Y-58094819D02*
X229639286Y-58571009D01*
X229639286Y-58571009D02*
X229686905Y-58523390D01*
X229686905Y-58523390D02*
X229782143Y-58475771D01*
X229782143Y-58475771D02*
X230020238Y-58475771D01*
X230020238Y-58475771D02*
X230115476Y-58523390D01*
X230115476Y-58523390D02*
X230163095Y-58571009D01*
X230163095Y-58571009D02*
X230210714Y-58666247D01*
X230210714Y-58666247D02*
X230210714Y-58904342D01*
X230210714Y-58904342D02*
X230163095Y-58999580D01*
X230163095Y-58999580D02*
X230115476Y-59047200D01*
X230115476Y-59047200D02*
X230020238Y-59094819D01*
X230020238Y-59094819D02*
X229782143Y-59094819D01*
X229782143Y-59094819D02*
X229686905Y-59047200D01*
X229686905Y-59047200D02*
X229639286Y-58999580D01*
X181357142Y-122259580D02*
X181309523Y-122307200D01*
X181309523Y-122307200D02*
X181166666Y-122354819D01*
X181166666Y-122354819D02*
X181071428Y-122354819D01*
X181071428Y-122354819D02*
X180928571Y-122307200D01*
X180928571Y-122307200D02*
X180833333Y-122211961D01*
X180833333Y-122211961D02*
X180785714Y-122116723D01*
X180785714Y-122116723D02*
X180738095Y-121926247D01*
X180738095Y-121926247D02*
X180738095Y-121783390D01*
X180738095Y-121783390D02*
X180785714Y-121592914D01*
X180785714Y-121592914D02*
X180833333Y-121497676D01*
X180833333Y-121497676D02*
X180928571Y-121402438D01*
X180928571Y-121402438D02*
X181071428Y-121354819D01*
X181071428Y-121354819D02*
X181166666Y-121354819D01*
X181166666Y-121354819D02*
X181309523Y-121402438D01*
X181309523Y-121402438D02*
X181357142Y-121450057D01*
X182309523Y-122354819D02*
X181738095Y-122354819D01*
X182023809Y-122354819D02*
X182023809Y-121354819D01*
X182023809Y-121354819D02*
X181928571Y-121497676D01*
X181928571Y-121497676D02*
X181833333Y-121592914D01*
X181833333Y-121592914D02*
X181738095Y-121640533D01*
X183166666Y-121354819D02*
X182976190Y-121354819D01*
X182976190Y-121354819D02*
X182880952Y-121402438D01*
X182880952Y-121402438D02*
X182833333Y-121450057D01*
X182833333Y-121450057D02*
X182738095Y-121592914D01*
X182738095Y-121592914D02*
X182690476Y-121783390D01*
X182690476Y-121783390D02*
X182690476Y-122164342D01*
X182690476Y-122164342D02*
X182738095Y-122259580D01*
X182738095Y-122259580D02*
X182785714Y-122307200D01*
X182785714Y-122307200D02*
X182880952Y-122354819D01*
X182880952Y-122354819D02*
X183071428Y-122354819D01*
X183071428Y-122354819D02*
X183166666Y-122307200D01*
X183166666Y-122307200D02*
X183214285Y-122259580D01*
X183214285Y-122259580D02*
X183261904Y-122164342D01*
X183261904Y-122164342D02*
X183261904Y-121926247D01*
X183261904Y-121926247D02*
X183214285Y-121831009D01*
X183214285Y-121831009D02*
X183166666Y-121783390D01*
X183166666Y-121783390D02*
X183071428Y-121735771D01*
X183071428Y-121735771D02*
X182880952Y-121735771D01*
X182880952Y-121735771D02*
X182785714Y-121783390D01*
X182785714Y-121783390D02*
X182738095Y-121831009D01*
X182738095Y-121831009D02*
X182690476Y-121926247D01*
X195859580Y-115817857D02*
X195907200Y-115865476D01*
X195907200Y-115865476D02*
X195954819Y-116008333D01*
X195954819Y-116008333D02*
X195954819Y-116103571D01*
X195954819Y-116103571D02*
X195907200Y-116246428D01*
X195907200Y-116246428D02*
X195811961Y-116341666D01*
X195811961Y-116341666D02*
X195716723Y-116389285D01*
X195716723Y-116389285D02*
X195526247Y-116436904D01*
X195526247Y-116436904D02*
X195383390Y-116436904D01*
X195383390Y-116436904D02*
X195192914Y-116389285D01*
X195192914Y-116389285D02*
X195097676Y-116341666D01*
X195097676Y-116341666D02*
X195002438Y-116246428D01*
X195002438Y-116246428D02*
X194954819Y-116103571D01*
X194954819Y-116103571D02*
X194954819Y-116008333D01*
X194954819Y-116008333D02*
X195002438Y-115865476D01*
X195002438Y-115865476D02*
X195050057Y-115817857D01*
X195050057Y-115436904D02*
X195002438Y-115389285D01*
X195002438Y-115389285D02*
X194954819Y-115294047D01*
X194954819Y-115294047D02*
X194954819Y-115055952D01*
X194954819Y-115055952D02*
X195002438Y-114960714D01*
X195002438Y-114960714D02*
X195050057Y-114913095D01*
X195050057Y-114913095D02*
X195145295Y-114865476D01*
X195145295Y-114865476D02*
X195240533Y-114865476D01*
X195240533Y-114865476D02*
X195383390Y-114913095D01*
X195383390Y-114913095D02*
X195954819Y-115484523D01*
X195954819Y-115484523D02*
X195954819Y-114865476D01*
X195288152Y-114008333D02*
X195954819Y-114008333D01*
X194907200Y-114246428D02*
X195621485Y-114484523D01*
X195621485Y-114484523D02*
X195621485Y-113865476D01*
X210677295Y-102889523D02*
X211324914Y-102889523D01*
X211324914Y-102889523D02*
X211401104Y-102851428D01*
X211401104Y-102851428D02*
X211439200Y-102813333D01*
X211439200Y-102813333D02*
X211477295Y-102737142D01*
X211477295Y-102737142D02*
X211477295Y-102584761D01*
X211477295Y-102584761D02*
X211439200Y-102508571D01*
X211439200Y-102508571D02*
X211401104Y-102470476D01*
X211401104Y-102470476D02*
X211324914Y-102432380D01*
X211324914Y-102432380D02*
X210677295Y-102432380D01*
X211020152Y-101937143D02*
X210982057Y-102013333D01*
X210982057Y-102013333D02*
X210943961Y-102051428D01*
X210943961Y-102051428D02*
X210867771Y-102089524D01*
X210867771Y-102089524D02*
X210829676Y-102089524D01*
X210829676Y-102089524D02*
X210753485Y-102051428D01*
X210753485Y-102051428D02*
X210715390Y-102013333D01*
X210715390Y-102013333D02*
X210677295Y-101937143D01*
X210677295Y-101937143D02*
X210677295Y-101784762D01*
X210677295Y-101784762D02*
X210715390Y-101708571D01*
X210715390Y-101708571D02*
X210753485Y-101670476D01*
X210753485Y-101670476D02*
X210829676Y-101632381D01*
X210829676Y-101632381D02*
X210867771Y-101632381D01*
X210867771Y-101632381D02*
X210943961Y-101670476D01*
X210943961Y-101670476D02*
X210982057Y-101708571D01*
X210982057Y-101708571D02*
X211020152Y-101784762D01*
X211020152Y-101784762D02*
X211020152Y-101937143D01*
X211020152Y-101937143D02*
X211058247Y-102013333D01*
X211058247Y-102013333D02*
X211096342Y-102051428D01*
X211096342Y-102051428D02*
X211172533Y-102089524D01*
X211172533Y-102089524D02*
X211324914Y-102089524D01*
X211324914Y-102089524D02*
X211401104Y-102051428D01*
X211401104Y-102051428D02*
X211439200Y-102013333D01*
X211439200Y-102013333D02*
X211477295Y-101937143D01*
X211477295Y-101937143D02*
X211477295Y-101784762D01*
X211477295Y-101784762D02*
X211439200Y-101708571D01*
X211439200Y-101708571D02*
X211401104Y-101670476D01*
X211401104Y-101670476D02*
X211324914Y-101632381D01*
X211324914Y-101632381D02*
X211172533Y-101632381D01*
X211172533Y-101632381D02*
X211096342Y-101670476D01*
X211096342Y-101670476D02*
X211058247Y-101708571D01*
X211058247Y-101708571D02*
X211020152Y-101784762D01*
X178258333Y-99859580D02*
X178210714Y-99907200D01*
X178210714Y-99907200D02*
X178067857Y-99954819D01*
X178067857Y-99954819D02*
X177972619Y-99954819D01*
X177972619Y-99954819D02*
X177829762Y-99907200D01*
X177829762Y-99907200D02*
X177734524Y-99811961D01*
X177734524Y-99811961D02*
X177686905Y-99716723D01*
X177686905Y-99716723D02*
X177639286Y-99526247D01*
X177639286Y-99526247D02*
X177639286Y-99383390D01*
X177639286Y-99383390D02*
X177686905Y-99192914D01*
X177686905Y-99192914D02*
X177734524Y-99097676D01*
X177734524Y-99097676D02*
X177829762Y-99002438D01*
X177829762Y-99002438D02*
X177972619Y-98954819D01*
X177972619Y-98954819D02*
X178067857Y-98954819D01*
X178067857Y-98954819D02*
X178210714Y-99002438D01*
X178210714Y-99002438D02*
X178258333Y-99050057D01*
X179115476Y-99288152D02*
X179115476Y-99954819D01*
X178877381Y-98907200D02*
X178639286Y-99621485D01*
X178639286Y-99621485D02*
X179258333Y-99621485D01*
X186254580Y-75417857D02*
X186302200Y-75465476D01*
X186302200Y-75465476D02*
X186349819Y-75608333D01*
X186349819Y-75608333D02*
X186349819Y-75703571D01*
X186349819Y-75703571D02*
X186302200Y-75846428D01*
X186302200Y-75846428D02*
X186206961Y-75941666D01*
X186206961Y-75941666D02*
X186111723Y-75989285D01*
X186111723Y-75989285D02*
X185921247Y-76036904D01*
X185921247Y-76036904D02*
X185778390Y-76036904D01*
X185778390Y-76036904D02*
X185587914Y-75989285D01*
X185587914Y-75989285D02*
X185492676Y-75941666D01*
X185492676Y-75941666D02*
X185397438Y-75846428D01*
X185397438Y-75846428D02*
X185349819Y-75703571D01*
X185349819Y-75703571D02*
X185349819Y-75608333D01*
X185349819Y-75608333D02*
X185397438Y-75465476D01*
X185397438Y-75465476D02*
X185445057Y-75417857D01*
X185445057Y-75036904D02*
X185397438Y-74989285D01*
X185397438Y-74989285D02*
X185349819Y-74894047D01*
X185349819Y-74894047D02*
X185349819Y-74655952D01*
X185349819Y-74655952D02*
X185397438Y-74560714D01*
X185397438Y-74560714D02*
X185445057Y-74513095D01*
X185445057Y-74513095D02*
X185540295Y-74465476D01*
X185540295Y-74465476D02*
X185635533Y-74465476D01*
X185635533Y-74465476D02*
X185778390Y-74513095D01*
X185778390Y-74513095D02*
X186349819Y-75084523D01*
X186349819Y-75084523D02*
X186349819Y-74465476D01*
X185349819Y-73560714D02*
X185349819Y-74036904D01*
X185349819Y-74036904D02*
X185826009Y-74084523D01*
X185826009Y-74084523D02*
X185778390Y-74036904D01*
X185778390Y-74036904D02*
X185730771Y-73941666D01*
X185730771Y-73941666D02*
X185730771Y-73703571D01*
X185730771Y-73703571D02*
X185778390Y-73608333D01*
X185778390Y-73608333D02*
X185826009Y-73560714D01*
X185826009Y-73560714D02*
X185921247Y-73513095D01*
X185921247Y-73513095D02*
X186159342Y-73513095D01*
X186159342Y-73513095D02*
X186254580Y-73560714D01*
X186254580Y-73560714D02*
X186302200Y-73608333D01*
X186302200Y-73608333D02*
X186349819Y-73703571D01*
X186349819Y-73703571D02*
X186349819Y-73941666D01*
X186349819Y-73941666D02*
X186302200Y-74036904D01*
X186302200Y-74036904D02*
X186254580Y-74084523D01*
X226127319Y-99309523D02*
X225127319Y-99309523D01*
X225127319Y-99309523D02*
X225841604Y-98976190D01*
X225841604Y-98976190D02*
X225127319Y-98642857D01*
X225127319Y-98642857D02*
X226127319Y-98642857D01*
X225127319Y-98261904D02*
X225127319Y-97642857D01*
X225127319Y-97642857D02*
X225508271Y-97976190D01*
X225508271Y-97976190D02*
X225508271Y-97833333D01*
X225508271Y-97833333D02*
X225555890Y-97738095D01*
X225555890Y-97738095D02*
X225603509Y-97690476D01*
X225603509Y-97690476D02*
X225698747Y-97642857D01*
X225698747Y-97642857D02*
X225936842Y-97642857D01*
X225936842Y-97642857D02*
X226032080Y-97690476D01*
X226032080Y-97690476D02*
X226079700Y-97738095D01*
X226079700Y-97738095D02*
X226127319Y-97833333D01*
X226127319Y-97833333D02*
X226127319Y-98119047D01*
X226127319Y-98119047D02*
X226079700Y-98214285D01*
X226079700Y-98214285D02*
X226032080Y-98261904D01*
X185333333Y-59384819D02*
X185000000Y-58908628D01*
X184761905Y-59384819D02*
X184761905Y-58384819D01*
X184761905Y-58384819D02*
X185142857Y-58384819D01*
X185142857Y-58384819D02*
X185238095Y-58432438D01*
X185238095Y-58432438D02*
X185285714Y-58480057D01*
X185285714Y-58480057D02*
X185333333Y-58575295D01*
X185333333Y-58575295D02*
X185333333Y-58718152D01*
X185333333Y-58718152D02*
X185285714Y-58813390D01*
X185285714Y-58813390D02*
X185238095Y-58861009D01*
X185238095Y-58861009D02*
X185142857Y-58908628D01*
X185142857Y-58908628D02*
X184761905Y-58908628D01*
X186190476Y-58384819D02*
X186000000Y-58384819D01*
X186000000Y-58384819D02*
X185904762Y-58432438D01*
X185904762Y-58432438D02*
X185857143Y-58480057D01*
X185857143Y-58480057D02*
X185761905Y-58622914D01*
X185761905Y-58622914D02*
X185714286Y-58813390D01*
X185714286Y-58813390D02*
X185714286Y-59194342D01*
X185714286Y-59194342D02*
X185761905Y-59289580D01*
X185761905Y-59289580D02*
X185809524Y-59337200D01*
X185809524Y-59337200D02*
X185904762Y-59384819D01*
X185904762Y-59384819D02*
X186095238Y-59384819D01*
X186095238Y-59384819D02*
X186190476Y-59337200D01*
X186190476Y-59337200D02*
X186238095Y-59289580D01*
X186238095Y-59289580D02*
X186285714Y-59194342D01*
X186285714Y-59194342D02*
X186285714Y-58956247D01*
X186285714Y-58956247D02*
X186238095Y-58861009D01*
X186238095Y-58861009D02*
X186190476Y-58813390D01*
X186190476Y-58813390D02*
X186095238Y-58765771D01*
X186095238Y-58765771D02*
X185904762Y-58765771D01*
X185904762Y-58765771D02*
X185809524Y-58813390D01*
X185809524Y-58813390D02*
X185761905Y-58861009D01*
X185761905Y-58861009D02*
X185714286Y-58956247D01*
X178258333Y-95859580D02*
X178210714Y-95907200D01*
X178210714Y-95907200D02*
X178067857Y-95954819D01*
X178067857Y-95954819D02*
X177972619Y-95954819D01*
X177972619Y-95954819D02*
X177829762Y-95907200D01*
X177829762Y-95907200D02*
X177734524Y-95811961D01*
X177734524Y-95811961D02*
X177686905Y-95716723D01*
X177686905Y-95716723D02*
X177639286Y-95526247D01*
X177639286Y-95526247D02*
X177639286Y-95383390D01*
X177639286Y-95383390D02*
X177686905Y-95192914D01*
X177686905Y-95192914D02*
X177734524Y-95097676D01*
X177734524Y-95097676D02*
X177829762Y-95002438D01*
X177829762Y-95002438D02*
X177972619Y-94954819D01*
X177972619Y-94954819D02*
X178067857Y-94954819D01*
X178067857Y-94954819D02*
X178210714Y-95002438D01*
X178210714Y-95002438D02*
X178258333Y-95050057D01*
X178639286Y-95050057D02*
X178686905Y-95002438D01*
X178686905Y-95002438D02*
X178782143Y-94954819D01*
X178782143Y-94954819D02*
X179020238Y-94954819D01*
X179020238Y-94954819D02*
X179115476Y-95002438D01*
X179115476Y-95002438D02*
X179163095Y-95050057D01*
X179163095Y-95050057D02*
X179210714Y-95145295D01*
X179210714Y-95145295D02*
X179210714Y-95240533D01*
X179210714Y-95240533D02*
X179163095Y-95383390D01*
X179163095Y-95383390D02*
X178591667Y-95954819D01*
X178591667Y-95954819D02*
X179210714Y-95954819D01*
X217944819Y-58642857D02*
X217468628Y-58976190D01*
X217944819Y-59214285D02*
X216944819Y-59214285D01*
X216944819Y-59214285D02*
X216944819Y-58833333D01*
X216944819Y-58833333D02*
X216992438Y-58738095D01*
X216992438Y-58738095D02*
X217040057Y-58690476D01*
X217040057Y-58690476D02*
X217135295Y-58642857D01*
X217135295Y-58642857D02*
X217278152Y-58642857D01*
X217278152Y-58642857D02*
X217373390Y-58690476D01*
X217373390Y-58690476D02*
X217421009Y-58738095D01*
X217421009Y-58738095D02*
X217468628Y-58833333D01*
X217468628Y-58833333D02*
X217468628Y-59214285D01*
X217944819Y-57690476D02*
X217944819Y-58261904D01*
X217944819Y-57976190D02*
X216944819Y-57976190D01*
X216944819Y-57976190D02*
X217087676Y-58071428D01*
X217087676Y-58071428D02*
X217182914Y-58166666D01*
X217182914Y-58166666D02*
X217230533Y-58261904D01*
X217373390Y-57119047D02*
X217325771Y-57214285D01*
X217325771Y-57214285D02*
X217278152Y-57261904D01*
X217278152Y-57261904D02*
X217182914Y-57309523D01*
X217182914Y-57309523D02*
X217135295Y-57309523D01*
X217135295Y-57309523D02*
X217040057Y-57261904D01*
X217040057Y-57261904D02*
X216992438Y-57214285D01*
X216992438Y-57214285D02*
X216944819Y-57119047D01*
X216944819Y-57119047D02*
X216944819Y-56928571D01*
X216944819Y-56928571D02*
X216992438Y-56833333D01*
X216992438Y-56833333D02*
X217040057Y-56785714D01*
X217040057Y-56785714D02*
X217135295Y-56738095D01*
X217135295Y-56738095D02*
X217182914Y-56738095D01*
X217182914Y-56738095D02*
X217278152Y-56785714D01*
X217278152Y-56785714D02*
X217325771Y-56833333D01*
X217325771Y-56833333D02*
X217373390Y-56928571D01*
X217373390Y-56928571D02*
X217373390Y-57119047D01*
X217373390Y-57119047D02*
X217421009Y-57214285D01*
X217421009Y-57214285D02*
X217468628Y-57261904D01*
X217468628Y-57261904D02*
X217563866Y-57309523D01*
X217563866Y-57309523D02*
X217754342Y-57309523D01*
X217754342Y-57309523D02*
X217849580Y-57261904D01*
X217849580Y-57261904D02*
X217897200Y-57214285D01*
X217897200Y-57214285D02*
X217944819Y-57119047D01*
X217944819Y-57119047D02*
X217944819Y-56928571D01*
X217944819Y-56928571D02*
X217897200Y-56833333D01*
X217897200Y-56833333D02*
X217849580Y-56785714D01*
X217849580Y-56785714D02*
X217754342Y-56738095D01*
X217754342Y-56738095D02*
X217563866Y-56738095D01*
X217563866Y-56738095D02*
X217468628Y-56785714D01*
X217468628Y-56785714D02*
X217421009Y-56833333D01*
X217421009Y-56833333D02*
X217373390Y-56928571D01*
X168740819Y-56686983D02*
X169455104Y-56686983D01*
X169455104Y-56686983D02*
X169597961Y-56734602D01*
X169597961Y-56734602D02*
X169693200Y-56829840D01*
X169693200Y-56829840D02*
X169740819Y-56972697D01*
X169740819Y-56972697D02*
X169740819Y-57067935D01*
X168836057Y-56258411D02*
X168788438Y-56210792D01*
X168788438Y-56210792D02*
X168740819Y-56115554D01*
X168740819Y-56115554D02*
X168740819Y-55877459D01*
X168740819Y-55877459D02*
X168788438Y-55782221D01*
X168788438Y-55782221D02*
X168836057Y-55734602D01*
X168836057Y-55734602D02*
X168931295Y-55686983D01*
X168931295Y-55686983D02*
X169026533Y-55686983D01*
X169026533Y-55686983D02*
X169169390Y-55734602D01*
X169169390Y-55734602D02*
X169740819Y-56306030D01*
X169740819Y-56306030D02*
X169740819Y-55686983D01*
X196052295Y-105989523D02*
X196699914Y-105989523D01*
X196699914Y-105989523D02*
X196776104Y-105951428D01*
X196776104Y-105951428D02*
X196814200Y-105913333D01*
X196814200Y-105913333D02*
X196852295Y-105837142D01*
X196852295Y-105837142D02*
X196852295Y-105684761D01*
X196852295Y-105684761D02*
X196814200Y-105608571D01*
X196814200Y-105608571D02*
X196776104Y-105570476D01*
X196776104Y-105570476D02*
X196699914Y-105532380D01*
X196699914Y-105532380D02*
X196052295Y-105532380D01*
X196052295Y-104770476D02*
X196052295Y-105151428D01*
X196052295Y-105151428D02*
X196433247Y-105189524D01*
X196433247Y-105189524D02*
X196395152Y-105151428D01*
X196395152Y-105151428D02*
X196357057Y-105075238D01*
X196357057Y-105075238D02*
X196357057Y-104884762D01*
X196357057Y-104884762D02*
X196395152Y-104808571D01*
X196395152Y-104808571D02*
X196433247Y-104770476D01*
X196433247Y-104770476D02*
X196509438Y-104732381D01*
X196509438Y-104732381D02*
X196699914Y-104732381D01*
X196699914Y-104732381D02*
X196776104Y-104770476D01*
X196776104Y-104770476D02*
X196814200Y-104808571D01*
X196814200Y-104808571D02*
X196852295Y-104884762D01*
X196852295Y-104884762D02*
X196852295Y-105075238D01*
X196852295Y-105075238D02*
X196814200Y-105151428D01*
X196814200Y-105151428D02*
X196776104Y-105189524D01*
X230166666Y-60344819D02*
X230166666Y-61059104D01*
X230166666Y-61059104D02*
X230119047Y-61201961D01*
X230119047Y-61201961D02*
X230023809Y-61297200D01*
X230023809Y-61297200D02*
X229880952Y-61344819D01*
X229880952Y-61344819D02*
X229785714Y-61344819D01*
X231071428Y-60344819D02*
X230880952Y-60344819D01*
X230880952Y-60344819D02*
X230785714Y-60392438D01*
X230785714Y-60392438D02*
X230738095Y-60440057D01*
X230738095Y-60440057D02*
X230642857Y-60582914D01*
X230642857Y-60582914D02*
X230595238Y-60773390D01*
X230595238Y-60773390D02*
X230595238Y-61154342D01*
X230595238Y-61154342D02*
X230642857Y-61249580D01*
X230642857Y-61249580D02*
X230690476Y-61297200D01*
X230690476Y-61297200D02*
X230785714Y-61344819D01*
X230785714Y-61344819D02*
X230976190Y-61344819D01*
X230976190Y-61344819D02*
X231071428Y-61297200D01*
X231071428Y-61297200D02*
X231119047Y-61249580D01*
X231119047Y-61249580D02*
X231166666Y-61154342D01*
X231166666Y-61154342D02*
X231166666Y-60916247D01*
X231166666Y-60916247D02*
X231119047Y-60821009D01*
X231119047Y-60821009D02*
X231071428Y-60773390D01*
X231071428Y-60773390D02*
X230976190Y-60725771D01*
X230976190Y-60725771D02*
X230785714Y-60725771D01*
X230785714Y-60725771D02*
X230690476Y-60773390D01*
X230690476Y-60773390D02*
X230642857Y-60821009D01*
X230642857Y-60821009D02*
X230595238Y-60916247D01*
X200534580Y-95242857D02*
X200582200Y-95290476D01*
X200582200Y-95290476D02*
X200629819Y-95433333D01*
X200629819Y-95433333D02*
X200629819Y-95528571D01*
X200629819Y-95528571D02*
X200582200Y-95671428D01*
X200582200Y-95671428D02*
X200486961Y-95766666D01*
X200486961Y-95766666D02*
X200391723Y-95814285D01*
X200391723Y-95814285D02*
X200201247Y-95861904D01*
X200201247Y-95861904D02*
X200058390Y-95861904D01*
X200058390Y-95861904D02*
X199867914Y-95814285D01*
X199867914Y-95814285D02*
X199772676Y-95766666D01*
X199772676Y-95766666D02*
X199677438Y-95671428D01*
X199677438Y-95671428D02*
X199629819Y-95528571D01*
X199629819Y-95528571D02*
X199629819Y-95433333D01*
X199629819Y-95433333D02*
X199677438Y-95290476D01*
X199677438Y-95290476D02*
X199725057Y-95242857D01*
X200629819Y-94290476D02*
X200629819Y-94861904D01*
X200629819Y-94576190D02*
X199629819Y-94576190D01*
X199629819Y-94576190D02*
X199772676Y-94671428D01*
X199772676Y-94671428D02*
X199867914Y-94766666D01*
X199867914Y-94766666D02*
X199915533Y-94861904D01*
X199629819Y-93957142D02*
X199629819Y-93290476D01*
X199629819Y-93290476D02*
X200629819Y-93719047D01*
D11*
X211402381Y-64441923D02*
X211516667Y-64441923D01*
X211459524Y-64641923D02*
X211459524Y-64441923D01*
X211583334Y-64641923D02*
X211583334Y-64441923D01*
X211583334Y-64441923D02*
X211659524Y-64441923D01*
X211659524Y-64441923D02*
X211678572Y-64451447D01*
X211678572Y-64451447D02*
X211688095Y-64460971D01*
X211688095Y-64460971D02*
X211697619Y-64480019D01*
X211697619Y-64480019D02*
X211697619Y-64508590D01*
X211697619Y-64508590D02*
X211688095Y-64527638D01*
X211688095Y-64527638D02*
X211678572Y-64537161D01*
X211678572Y-64537161D02*
X211659524Y-64546685D01*
X211659524Y-64546685D02*
X211583334Y-64546685D01*
X211888095Y-64641923D02*
X211773810Y-64641923D01*
X211830953Y-64641923D02*
X211830953Y-64441923D01*
X211830953Y-64441923D02*
X211811905Y-64470495D01*
X211811905Y-64470495D02*
X211792857Y-64489542D01*
X211792857Y-64489542D02*
X211773810Y-64499066D01*
X212078571Y-64641923D02*
X211964286Y-64641923D01*
X212021429Y-64641923D02*
X212021429Y-64441923D01*
X212021429Y-64441923D02*
X212002381Y-64470495D01*
X212002381Y-64470495D02*
X211983333Y-64489542D01*
X211983333Y-64489542D02*
X211964286Y-64499066D01*
D10*
X222682142Y-65454819D02*
X222348809Y-64978628D01*
X222110714Y-65454819D02*
X222110714Y-64454819D01*
X222110714Y-64454819D02*
X222491666Y-64454819D01*
X222491666Y-64454819D02*
X222586904Y-64502438D01*
X222586904Y-64502438D02*
X222634523Y-64550057D01*
X222634523Y-64550057D02*
X222682142Y-64645295D01*
X222682142Y-64645295D02*
X222682142Y-64788152D01*
X222682142Y-64788152D02*
X222634523Y-64883390D01*
X222634523Y-64883390D02*
X222586904Y-64931009D01*
X222586904Y-64931009D02*
X222491666Y-64978628D01*
X222491666Y-64978628D02*
X222110714Y-64978628D01*
X223063095Y-64550057D02*
X223110714Y-64502438D01*
X223110714Y-64502438D02*
X223205952Y-64454819D01*
X223205952Y-64454819D02*
X223444047Y-64454819D01*
X223444047Y-64454819D02*
X223539285Y-64502438D01*
X223539285Y-64502438D02*
X223586904Y-64550057D01*
X223586904Y-64550057D02*
X223634523Y-64645295D01*
X223634523Y-64645295D02*
X223634523Y-64740533D01*
X223634523Y-64740533D02*
X223586904Y-64883390D01*
X223586904Y-64883390D02*
X223015476Y-65454819D01*
X223015476Y-65454819D02*
X223634523Y-65454819D01*
X224253571Y-64454819D02*
X224348809Y-64454819D01*
X224348809Y-64454819D02*
X224444047Y-64502438D01*
X224444047Y-64502438D02*
X224491666Y-64550057D01*
X224491666Y-64550057D02*
X224539285Y-64645295D01*
X224539285Y-64645295D02*
X224586904Y-64835771D01*
X224586904Y-64835771D02*
X224586904Y-65073866D01*
X224586904Y-65073866D02*
X224539285Y-65264342D01*
X224539285Y-65264342D02*
X224491666Y-65359580D01*
X224491666Y-65359580D02*
X224444047Y-65407200D01*
X224444047Y-65407200D02*
X224348809Y-65454819D01*
X224348809Y-65454819D02*
X224253571Y-65454819D01*
X224253571Y-65454819D02*
X224158333Y-65407200D01*
X224158333Y-65407200D02*
X224110714Y-65359580D01*
X224110714Y-65359580D02*
X224063095Y-65264342D01*
X224063095Y-65264342D02*
X224015476Y-65073866D01*
X224015476Y-65073866D02*
X224015476Y-64835771D01*
X224015476Y-64835771D02*
X224063095Y-64645295D01*
X224063095Y-64645295D02*
X224110714Y-64550057D01*
X224110714Y-64550057D02*
X224158333Y-64502438D01*
X224158333Y-64502438D02*
X224253571Y-64454819D01*
X219761905Y-53954819D02*
X219761905Y-52954819D01*
X219761905Y-52954819D02*
X220000000Y-52954819D01*
X220000000Y-52954819D02*
X220142857Y-53002438D01*
X220142857Y-53002438D02*
X220238095Y-53097676D01*
X220238095Y-53097676D02*
X220285714Y-53192914D01*
X220285714Y-53192914D02*
X220333333Y-53383390D01*
X220333333Y-53383390D02*
X220333333Y-53526247D01*
X220333333Y-53526247D02*
X220285714Y-53716723D01*
X220285714Y-53716723D02*
X220238095Y-53811961D01*
X220238095Y-53811961D02*
X220142857Y-53907200D01*
X220142857Y-53907200D02*
X220000000Y-53954819D01*
X220000000Y-53954819D02*
X219761905Y-53954819D01*
X221285714Y-53954819D02*
X220714286Y-53954819D01*
X221000000Y-53954819D02*
X221000000Y-52954819D01*
X221000000Y-52954819D02*
X220904762Y-53097676D01*
X220904762Y-53097676D02*
X220809524Y-53192914D01*
X220809524Y-53192914D02*
X220714286Y-53240533D01*
X178258333Y-97859580D02*
X178210714Y-97907200D01*
X178210714Y-97907200D02*
X178067857Y-97954819D01*
X178067857Y-97954819D02*
X177972619Y-97954819D01*
X177972619Y-97954819D02*
X177829762Y-97907200D01*
X177829762Y-97907200D02*
X177734524Y-97811961D01*
X177734524Y-97811961D02*
X177686905Y-97716723D01*
X177686905Y-97716723D02*
X177639286Y-97526247D01*
X177639286Y-97526247D02*
X177639286Y-97383390D01*
X177639286Y-97383390D02*
X177686905Y-97192914D01*
X177686905Y-97192914D02*
X177734524Y-97097676D01*
X177734524Y-97097676D02*
X177829762Y-97002438D01*
X177829762Y-97002438D02*
X177972619Y-96954819D01*
X177972619Y-96954819D02*
X178067857Y-96954819D01*
X178067857Y-96954819D02*
X178210714Y-97002438D01*
X178210714Y-97002438D02*
X178258333Y-97050057D01*
X178591667Y-96954819D02*
X179210714Y-96954819D01*
X179210714Y-96954819D02*
X178877381Y-97335771D01*
X178877381Y-97335771D02*
X179020238Y-97335771D01*
X179020238Y-97335771D02*
X179115476Y-97383390D01*
X179115476Y-97383390D02*
X179163095Y-97431009D01*
X179163095Y-97431009D02*
X179210714Y-97526247D01*
X179210714Y-97526247D02*
X179210714Y-97764342D01*
X179210714Y-97764342D02*
X179163095Y-97859580D01*
X179163095Y-97859580D02*
X179115476Y-97907200D01*
X179115476Y-97907200D02*
X179020238Y-97954819D01*
X179020238Y-97954819D02*
X178734524Y-97954819D01*
X178734524Y-97954819D02*
X178639286Y-97907200D01*
X178639286Y-97907200D02*
X178591667Y-97859580D01*
X180057200Y-56833332D02*
X180104819Y-56690475D01*
X180104819Y-56690475D02*
X180104819Y-56452380D01*
X180104819Y-56452380D02*
X180057200Y-56357142D01*
X180057200Y-56357142D02*
X180009580Y-56309523D01*
X180009580Y-56309523D02*
X179914342Y-56261904D01*
X179914342Y-56261904D02*
X179819104Y-56261904D01*
X179819104Y-56261904D02*
X179723866Y-56309523D01*
X179723866Y-56309523D02*
X179676247Y-56357142D01*
X179676247Y-56357142D02*
X179628628Y-56452380D01*
X179628628Y-56452380D02*
X179581009Y-56642856D01*
X179581009Y-56642856D02*
X179533390Y-56738094D01*
X179533390Y-56738094D02*
X179485771Y-56785713D01*
X179485771Y-56785713D02*
X179390533Y-56833332D01*
X179390533Y-56833332D02*
X179295295Y-56833332D01*
X179295295Y-56833332D02*
X179200057Y-56785713D01*
X179200057Y-56785713D02*
X179152438Y-56738094D01*
X179152438Y-56738094D02*
X179104819Y-56642856D01*
X179104819Y-56642856D02*
X179104819Y-56404761D01*
X179104819Y-56404761D02*
X179152438Y-56261904D01*
X179104819Y-55928570D02*
X180104819Y-55690475D01*
X180104819Y-55690475D02*
X179390533Y-55499999D01*
X179390533Y-55499999D02*
X180104819Y-55309523D01*
X180104819Y-55309523D02*
X179104819Y-55071428D01*
X179200057Y-54738094D02*
X179152438Y-54690475D01*
X179152438Y-54690475D02*
X179104819Y-54595237D01*
X179104819Y-54595237D02*
X179104819Y-54357142D01*
X179104819Y-54357142D02*
X179152438Y-54261904D01*
X179152438Y-54261904D02*
X179200057Y-54214285D01*
X179200057Y-54214285D02*
X179295295Y-54166666D01*
X179295295Y-54166666D02*
X179390533Y-54166666D01*
X179390533Y-54166666D02*
X179533390Y-54214285D01*
X179533390Y-54214285D02*
X180104819Y-54785713D01*
X180104819Y-54785713D02*
X180104819Y-54166666D01*
D11*
X186572619Y-70441923D02*
X186686905Y-70441923D01*
X186629762Y-70641923D02*
X186629762Y-70441923D01*
X186753572Y-70641923D02*
X186753572Y-70441923D01*
X186753572Y-70441923D02*
X186829762Y-70441923D01*
X186829762Y-70441923D02*
X186848810Y-70451447D01*
X186848810Y-70451447D02*
X186858333Y-70460971D01*
X186858333Y-70460971D02*
X186867857Y-70480019D01*
X186867857Y-70480019D02*
X186867857Y-70508590D01*
X186867857Y-70508590D02*
X186858333Y-70527638D01*
X186858333Y-70527638D02*
X186848810Y-70537161D01*
X186848810Y-70537161D02*
X186829762Y-70546685D01*
X186829762Y-70546685D02*
X186753572Y-70546685D01*
X186934524Y-70441923D02*
X187067857Y-70441923D01*
X187067857Y-70441923D02*
X186982143Y-70641923D01*
D10*
X173334033Y-50779819D02*
X173000700Y-50303628D01*
X172762605Y-50779819D02*
X172762605Y-49779819D01*
X172762605Y-49779819D02*
X173143557Y-49779819D01*
X173143557Y-49779819D02*
X173238795Y-49827438D01*
X173238795Y-49827438D02*
X173286414Y-49875057D01*
X173286414Y-49875057D02*
X173334033Y-49970295D01*
X173334033Y-49970295D02*
X173334033Y-50113152D01*
X173334033Y-50113152D02*
X173286414Y-50208390D01*
X173286414Y-50208390D02*
X173238795Y-50256009D01*
X173238795Y-50256009D02*
X173143557Y-50303628D01*
X173143557Y-50303628D02*
X172762605Y-50303628D01*
X174286414Y-50779819D02*
X173714986Y-50779819D01*
X174000700Y-50779819D02*
X174000700Y-49779819D01*
X174000700Y-49779819D02*
X173905462Y-49922676D01*
X173905462Y-49922676D02*
X173810224Y-50017914D01*
X173810224Y-50017914D02*
X173714986Y-50065533D01*
X181424819Y-77818094D02*
X180424819Y-77818094D01*
X180424819Y-77818094D02*
X180424819Y-77579999D01*
X180424819Y-77579999D02*
X180472438Y-77437142D01*
X180472438Y-77437142D02*
X180567676Y-77341904D01*
X180567676Y-77341904D02*
X180662914Y-77294285D01*
X180662914Y-77294285D02*
X180853390Y-77246666D01*
X180853390Y-77246666D02*
X180996247Y-77246666D01*
X180996247Y-77246666D02*
X181186723Y-77294285D01*
X181186723Y-77294285D02*
X181281961Y-77341904D01*
X181281961Y-77341904D02*
X181377200Y-77437142D01*
X181377200Y-77437142D02*
X181424819Y-77579999D01*
X181424819Y-77579999D02*
X181424819Y-77818094D01*
X180424819Y-76341904D02*
X180424819Y-76818094D01*
X180424819Y-76818094D02*
X180901009Y-76865713D01*
X180901009Y-76865713D02*
X180853390Y-76818094D01*
X180853390Y-76818094D02*
X180805771Y-76722856D01*
X180805771Y-76722856D02*
X180805771Y-76484761D01*
X180805771Y-76484761D02*
X180853390Y-76389523D01*
X180853390Y-76389523D02*
X180901009Y-76341904D01*
X180901009Y-76341904D02*
X180996247Y-76294285D01*
X180996247Y-76294285D02*
X181234342Y-76294285D01*
X181234342Y-76294285D02*
X181329580Y-76341904D01*
X181329580Y-76341904D02*
X181377200Y-76389523D01*
X181377200Y-76389523D02*
X181424819Y-76484761D01*
X181424819Y-76484761D02*
X181424819Y-76722856D01*
X181424819Y-76722856D02*
X181377200Y-76818094D01*
X181377200Y-76818094D02*
X181329580Y-76865713D01*
X181054819Y-72261904D02*
X180054819Y-72261904D01*
X181054819Y-71690476D02*
X180483390Y-72119047D01*
X180054819Y-71690476D02*
X180626247Y-72261904D01*
X186666666Y-125134819D02*
X186666666Y-125849104D01*
X186666666Y-125849104D02*
X186619047Y-125991961D01*
X186619047Y-125991961D02*
X186523809Y-126087200D01*
X186523809Y-126087200D02*
X186380952Y-126134819D01*
X186380952Y-126134819D02*
X186285714Y-126134819D01*
X187571428Y-125468152D02*
X187571428Y-126134819D01*
X187333333Y-125087200D02*
X187095238Y-125801485D01*
X187095238Y-125801485D02*
X187714285Y-125801485D01*
X195309580Y-99242857D02*
X195357200Y-99290476D01*
X195357200Y-99290476D02*
X195404819Y-99433333D01*
X195404819Y-99433333D02*
X195404819Y-99528571D01*
X195404819Y-99528571D02*
X195357200Y-99671428D01*
X195357200Y-99671428D02*
X195261961Y-99766666D01*
X195261961Y-99766666D02*
X195166723Y-99814285D01*
X195166723Y-99814285D02*
X194976247Y-99861904D01*
X194976247Y-99861904D02*
X194833390Y-99861904D01*
X194833390Y-99861904D02*
X194642914Y-99814285D01*
X194642914Y-99814285D02*
X194547676Y-99766666D01*
X194547676Y-99766666D02*
X194452438Y-99671428D01*
X194452438Y-99671428D02*
X194404819Y-99528571D01*
X194404819Y-99528571D02*
X194404819Y-99433333D01*
X194404819Y-99433333D02*
X194452438Y-99290476D01*
X194452438Y-99290476D02*
X194500057Y-99242857D01*
X194500057Y-98861904D02*
X194452438Y-98814285D01*
X194452438Y-98814285D02*
X194404819Y-98719047D01*
X194404819Y-98719047D02*
X194404819Y-98480952D01*
X194404819Y-98480952D02*
X194452438Y-98385714D01*
X194452438Y-98385714D02*
X194500057Y-98338095D01*
X194500057Y-98338095D02*
X194595295Y-98290476D01*
X194595295Y-98290476D02*
X194690533Y-98290476D01*
X194690533Y-98290476D02*
X194833390Y-98338095D01*
X194833390Y-98338095D02*
X195404819Y-98909523D01*
X195404819Y-98909523D02*
X195404819Y-98290476D01*
X194404819Y-97957142D02*
X194404819Y-97338095D01*
X194404819Y-97338095D02*
X194785771Y-97671428D01*
X194785771Y-97671428D02*
X194785771Y-97528571D01*
X194785771Y-97528571D02*
X194833390Y-97433333D01*
X194833390Y-97433333D02*
X194881009Y-97385714D01*
X194881009Y-97385714D02*
X194976247Y-97338095D01*
X194976247Y-97338095D02*
X195214342Y-97338095D01*
X195214342Y-97338095D02*
X195309580Y-97385714D01*
X195309580Y-97385714D02*
X195357200Y-97433333D01*
X195357200Y-97433333D02*
X195404819Y-97528571D01*
X195404819Y-97528571D02*
X195404819Y-97814285D01*
X195404819Y-97814285D02*
X195357200Y-97909523D01*
X195357200Y-97909523D02*
X195309580Y-97957142D01*
X219359580Y-108142857D02*
X219407200Y-108190476D01*
X219407200Y-108190476D02*
X219454819Y-108333333D01*
X219454819Y-108333333D02*
X219454819Y-108428571D01*
X219454819Y-108428571D02*
X219407200Y-108571428D01*
X219407200Y-108571428D02*
X219311961Y-108666666D01*
X219311961Y-108666666D02*
X219216723Y-108714285D01*
X219216723Y-108714285D02*
X219026247Y-108761904D01*
X219026247Y-108761904D02*
X218883390Y-108761904D01*
X218883390Y-108761904D02*
X218692914Y-108714285D01*
X218692914Y-108714285D02*
X218597676Y-108666666D01*
X218597676Y-108666666D02*
X218502438Y-108571428D01*
X218502438Y-108571428D02*
X218454819Y-108428571D01*
X218454819Y-108428571D02*
X218454819Y-108333333D01*
X218454819Y-108333333D02*
X218502438Y-108190476D01*
X218502438Y-108190476D02*
X218550057Y-108142857D01*
X218550057Y-107761904D02*
X218502438Y-107714285D01*
X218502438Y-107714285D02*
X218454819Y-107619047D01*
X218454819Y-107619047D02*
X218454819Y-107380952D01*
X218454819Y-107380952D02*
X218502438Y-107285714D01*
X218502438Y-107285714D02*
X218550057Y-107238095D01*
X218550057Y-107238095D02*
X218645295Y-107190476D01*
X218645295Y-107190476D02*
X218740533Y-107190476D01*
X218740533Y-107190476D02*
X218883390Y-107238095D01*
X218883390Y-107238095D02*
X219454819Y-107809523D01*
X219454819Y-107809523D02*
X219454819Y-107190476D01*
X218454819Y-106333333D02*
X218454819Y-106523809D01*
X218454819Y-106523809D02*
X218502438Y-106619047D01*
X218502438Y-106619047D02*
X218550057Y-106666666D01*
X218550057Y-106666666D02*
X218692914Y-106761904D01*
X218692914Y-106761904D02*
X218883390Y-106809523D01*
X218883390Y-106809523D02*
X219264342Y-106809523D01*
X219264342Y-106809523D02*
X219359580Y-106761904D01*
X219359580Y-106761904D02*
X219407200Y-106714285D01*
X219407200Y-106714285D02*
X219454819Y-106619047D01*
X219454819Y-106619047D02*
X219454819Y-106428571D01*
X219454819Y-106428571D02*
X219407200Y-106333333D01*
X219407200Y-106333333D02*
X219359580Y-106285714D01*
X219359580Y-106285714D02*
X219264342Y-106238095D01*
X219264342Y-106238095D02*
X219026247Y-106238095D01*
X219026247Y-106238095D02*
X218931009Y-106285714D01*
X218931009Y-106285714D02*
X218883390Y-106333333D01*
X218883390Y-106333333D02*
X218835771Y-106428571D01*
X218835771Y-106428571D02*
X218835771Y-106619047D01*
X218835771Y-106619047D02*
X218883390Y-106714285D01*
X218883390Y-106714285D02*
X218931009Y-106761904D01*
X218931009Y-106761904D02*
X219026247Y-106809523D01*
D11*
X211922619Y-52889923D02*
X212036905Y-52889923D01*
X211979762Y-53089923D02*
X211979762Y-52889923D01*
X212103572Y-53089923D02*
X212103572Y-52889923D01*
X212103572Y-52889923D02*
X212179762Y-52889923D01*
X212179762Y-52889923D02*
X212198810Y-52899447D01*
X212198810Y-52899447D02*
X212208333Y-52908971D01*
X212208333Y-52908971D02*
X212217857Y-52928019D01*
X212217857Y-52928019D02*
X212217857Y-52956590D01*
X212217857Y-52956590D02*
X212208333Y-52975638D01*
X212208333Y-52975638D02*
X212198810Y-52985161D01*
X212198810Y-52985161D02*
X212179762Y-52994685D01*
X212179762Y-52994685D02*
X212103572Y-52994685D01*
X212284524Y-52889923D02*
X212408333Y-52889923D01*
X212408333Y-52889923D02*
X212341667Y-52966114D01*
X212341667Y-52966114D02*
X212370238Y-52966114D01*
X212370238Y-52966114D02*
X212389286Y-52975638D01*
X212389286Y-52975638D02*
X212398810Y-52985161D01*
X212398810Y-52985161D02*
X212408333Y-53004209D01*
X212408333Y-53004209D02*
X212408333Y-53051828D01*
X212408333Y-53051828D02*
X212398810Y-53070876D01*
X212398810Y-53070876D02*
X212389286Y-53080400D01*
X212389286Y-53080400D02*
X212370238Y-53089923D01*
X212370238Y-53089923D02*
X212313095Y-53089923D01*
X212313095Y-53089923D02*
X212294048Y-53080400D01*
X212294048Y-53080400D02*
X212284524Y-53070876D01*
D10*
X229258333Y-56489819D02*
X228925000Y-56013628D01*
X228686905Y-56489819D02*
X228686905Y-55489819D01*
X228686905Y-55489819D02*
X229067857Y-55489819D01*
X229067857Y-55489819D02*
X229163095Y-55537438D01*
X229163095Y-55537438D02*
X229210714Y-55585057D01*
X229210714Y-55585057D02*
X229258333Y-55680295D01*
X229258333Y-55680295D02*
X229258333Y-55823152D01*
X229258333Y-55823152D02*
X229210714Y-55918390D01*
X229210714Y-55918390D02*
X229163095Y-55966009D01*
X229163095Y-55966009D02*
X229067857Y-56013628D01*
X229067857Y-56013628D02*
X228686905Y-56013628D01*
X230115476Y-55823152D02*
X230115476Y-56489819D01*
X229877381Y-55442200D02*
X229639286Y-56156485D01*
X229639286Y-56156485D02*
X230258333Y-56156485D01*
X178357142Y-122354819D02*
X178023809Y-121878628D01*
X177785714Y-122354819D02*
X177785714Y-121354819D01*
X177785714Y-121354819D02*
X178166666Y-121354819D01*
X178166666Y-121354819D02*
X178261904Y-121402438D01*
X178261904Y-121402438D02*
X178309523Y-121450057D01*
X178309523Y-121450057D02*
X178357142Y-121545295D01*
X178357142Y-121545295D02*
X178357142Y-121688152D01*
X178357142Y-121688152D02*
X178309523Y-121783390D01*
X178309523Y-121783390D02*
X178261904Y-121831009D01*
X178261904Y-121831009D02*
X178166666Y-121878628D01*
X178166666Y-121878628D02*
X177785714Y-121878628D01*
X179309523Y-122354819D02*
X178738095Y-122354819D01*
X179023809Y-122354819D02*
X179023809Y-121354819D01*
X179023809Y-121354819D02*
X178928571Y-121497676D01*
X178928571Y-121497676D02*
X178833333Y-121592914D01*
X178833333Y-121592914D02*
X178738095Y-121640533D01*
X179785714Y-122354819D02*
X179976190Y-122354819D01*
X179976190Y-122354819D02*
X180071428Y-122307200D01*
X180071428Y-122307200D02*
X180119047Y-122259580D01*
X180119047Y-122259580D02*
X180214285Y-122116723D01*
X180214285Y-122116723D02*
X180261904Y-121926247D01*
X180261904Y-121926247D02*
X180261904Y-121545295D01*
X180261904Y-121545295D02*
X180214285Y-121450057D01*
X180214285Y-121450057D02*
X180166666Y-121402438D01*
X180166666Y-121402438D02*
X180071428Y-121354819D01*
X180071428Y-121354819D02*
X179880952Y-121354819D01*
X179880952Y-121354819D02*
X179785714Y-121402438D01*
X179785714Y-121402438D02*
X179738095Y-121450057D01*
X179738095Y-121450057D02*
X179690476Y-121545295D01*
X179690476Y-121545295D02*
X179690476Y-121783390D01*
X179690476Y-121783390D02*
X179738095Y-121878628D01*
X179738095Y-121878628D02*
X179785714Y-121926247D01*
X179785714Y-121926247D02*
X179880952Y-121973866D01*
X179880952Y-121973866D02*
X180071428Y-121973866D01*
X180071428Y-121973866D02*
X180166666Y-121926247D01*
X180166666Y-121926247D02*
X180214285Y-121878628D01*
X180214285Y-121878628D02*
X180261904Y-121783390D01*
D11*
X199747619Y-84039923D02*
X199861905Y-84039923D01*
X199804762Y-84239923D02*
X199804762Y-84039923D01*
X199928572Y-84239923D02*
X199928572Y-84039923D01*
X199928572Y-84039923D02*
X200004762Y-84039923D01*
X200004762Y-84039923D02*
X200023810Y-84049447D01*
X200023810Y-84049447D02*
X200033333Y-84058971D01*
X200033333Y-84058971D02*
X200042857Y-84078019D01*
X200042857Y-84078019D02*
X200042857Y-84106590D01*
X200042857Y-84106590D02*
X200033333Y-84125638D01*
X200033333Y-84125638D02*
X200023810Y-84135161D01*
X200023810Y-84135161D02*
X200004762Y-84144685D01*
X200004762Y-84144685D02*
X199928572Y-84144685D01*
X200214286Y-84039923D02*
X200176191Y-84039923D01*
X200176191Y-84039923D02*
X200157143Y-84049447D01*
X200157143Y-84049447D02*
X200147619Y-84058971D01*
X200147619Y-84058971D02*
X200128572Y-84087542D01*
X200128572Y-84087542D02*
X200119048Y-84125638D01*
X200119048Y-84125638D02*
X200119048Y-84201828D01*
X200119048Y-84201828D02*
X200128572Y-84220876D01*
X200128572Y-84220876D02*
X200138095Y-84230400D01*
X200138095Y-84230400D02*
X200157143Y-84239923D01*
X200157143Y-84239923D02*
X200195238Y-84239923D01*
X200195238Y-84239923D02*
X200214286Y-84230400D01*
X200214286Y-84230400D02*
X200223810Y-84220876D01*
X200223810Y-84220876D02*
X200233333Y-84201828D01*
X200233333Y-84201828D02*
X200233333Y-84154209D01*
X200233333Y-84154209D02*
X200223810Y-84135161D01*
X200223810Y-84135161D02*
X200214286Y-84125638D01*
X200214286Y-84125638D02*
X200195238Y-84116114D01*
X200195238Y-84116114D02*
X200157143Y-84116114D01*
X200157143Y-84116114D02*
X200138095Y-84125638D01*
X200138095Y-84125638D02*
X200128572Y-84135161D01*
X200128572Y-84135161D02*
X200119048Y-84154209D01*
D10*
X204454819Y-73967857D02*
X203978628Y-74301190D01*
X204454819Y-74539285D02*
X203454819Y-74539285D01*
X203454819Y-74539285D02*
X203454819Y-74158333D01*
X203454819Y-74158333D02*
X203502438Y-74063095D01*
X203502438Y-74063095D02*
X203550057Y-74015476D01*
X203550057Y-74015476D02*
X203645295Y-73967857D01*
X203645295Y-73967857D02*
X203788152Y-73967857D01*
X203788152Y-73967857D02*
X203883390Y-74015476D01*
X203883390Y-74015476D02*
X203931009Y-74063095D01*
X203931009Y-74063095D02*
X203978628Y-74158333D01*
X203978628Y-74158333D02*
X203978628Y-74539285D01*
X203454819Y-73634523D02*
X203454819Y-73015476D01*
X203454819Y-73015476D02*
X203835771Y-73348809D01*
X203835771Y-73348809D02*
X203835771Y-73205952D01*
X203835771Y-73205952D02*
X203883390Y-73110714D01*
X203883390Y-73110714D02*
X203931009Y-73063095D01*
X203931009Y-73063095D02*
X204026247Y-73015476D01*
X204026247Y-73015476D02*
X204264342Y-73015476D01*
X204264342Y-73015476D02*
X204359580Y-73063095D01*
X204359580Y-73063095D02*
X204407200Y-73110714D01*
X204407200Y-73110714D02*
X204454819Y-73205952D01*
X204454819Y-73205952D02*
X204454819Y-73491666D01*
X204454819Y-73491666D02*
X204407200Y-73586904D01*
X204407200Y-73586904D02*
X204359580Y-73634523D01*
X203454819Y-72396428D02*
X203454819Y-72301190D01*
X203454819Y-72301190D02*
X203502438Y-72205952D01*
X203502438Y-72205952D02*
X203550057Y-72158333D01*
X203550057Y-72158333D02*
X203645295Y-72110714D01*
X203645295Y-72110714D02*
X203835771Y-72063095D01*
X203835771Y-72063095D02*
X204073866Y-72063095D01*
X204073866Y-72063095D02*
X204264342Y-72110714D01*
X204264342Y-72110714D02*
X204359580Y-72158333D01*
X204359580Y-72158333D02*
X204407200Y-72205952D01*
X204407200Y-72205952D02*
X204454819Y-72301190D01*
X204454819Y-72301190D02*
X204454819Y-72396428D01*
X204454819Y-72396428D02*
X204407200Y-72491666D01*
X204407200Y-72491666D02*
X204359580Y-72539285D01*
X204359580Y-72539285D02*
X204264342Y-72586904D01*
X204264342Y-72586904D02*
X204073866Y-72634523D01*
X204073866Y-72634523D02*
X203835771Y-72634523D01*
X203835771Y-72634523D02*
X203645295Y-72586904D01*
X203645295Y-72586904D02*
X203550057Y-72539285D01*
X203550057Y-72539285D02*
X203502438Y-72491666D01*
X203502438Y-72491666D02*
X203454819Y-72396428D01*
X192357142Y-75454819D02*
X192023809Y-74978628D01*
X191785714Y-75454819D02*
X191785714Y-74454819D01*
X191785714Y-74454819D02*
X192166666Y-74454819D01*
X192166666Y-74454819D02*
X192261904Y-74502438D01*
X192261904Y-74502438D02*
X192309523Y-74550057D01*
X192309523Y-74550057D02*
X192357142Y-74645295D01*
X192357142Y-74645295D02*
X192357142Y-74788152D01*
X192357142Y-74788152D02*
X192309523Y-74883390D01*
X192309523Y-74883390D02*
X192261904Y-74931009D01*
X192261904Y-74931009D02*
X192166666Y-74978628D01*
X192166666Y-74978628D02*
X191785714Y-74978628D01*
X192738095Y-74550057D02*
X192785714Y-74502438D01*
X192785714Y-74502438D02*
X192880952Y-74454819D01*
X192880952Y-74454819D02*
X193119047Y-74454819D01*
X193119047Y-74454819D02*
X193214285Y-74502438D01*
X193214285Y-74502438D02*
X193261904Y-74550057D01*
X193261904Y-74550057D02*
X193309523Y-74645295D01*
X193309523Y-74645295D02*
X193309523Y-74740533D01*
X193309523Y-74740533D02*
X193261904Y-74883390D01*
X193261904Y-74883390D02*
X192690476Y-75454819D01*
X192690476Y-75454819D02*
X193309523Y-75454819D01*
X193642857Y-74454819D02*
X194309523Y-74454819D01*
X194309523Y-74454819D02*
X193880952Y-75454819D01*
X216579580Y-67642857D02*
X216627200Y-67690476D01*
X216627200Y-67690476D02*
X216674819Y-67833333D01*
X216674819Y-67833333D02*
X216674819Y-67928571D01*
X216674819Y-67928571D02*
X216627200Y-68071428D01*
X216627200Y-68071428D02*
X216531961Y-68166666D01*
X216531961Y-68166666D02*
X216436723Y-68214285D01*
X216436723Y-68214285D02*
X216246247Y-68261904D01*
X216246247Y-68261904D02*
X216103390Y-68261904D01*
X216103390Y-68261904D02*
X215912914Y-68214285D01*
X215912914Y-68214285D02*
X215817676Y-68166666D01*
X215817676Y-68166666D02*
X215722438Y-68071428D01*
X215722438Y-68071428D02*
X215674819Y-67928571D01*
X215674819Y-67928571D02*
X215674819Y-67833333D01*
X215674819Y-67833333D02*
X215722438Y-67690476D01*
X215722438Y-67690476D02*
X215770057Y-67642857D01*
X216674819Y-66690476D02*
X216674819Y-67261904D01*
X216674819Y-66976190D02*
X215674819Y-66976190D01*
X215674819Y-66976190D02*
X215817676Y-67071428D01*
X215817676Y-67071428D02*
X215912914Y-67166666D01*
X215912914Y-67166666D02*
X215960533Y-67261904D01*
X215674819Y-65785714D02*
X215674819Y-66261904D01*
X215674819Y-66261904D02*
X216151009Y-66309523D01*
X216151009Y-66309523D02*
X216103390Y-66261904D01*
X216103390Y-66261904D02*
X216055771Y-66166666D01*
X216055771Y-66166666D02*
X216055771Y-65928571D01*
X216055771Y-65928571D02*
X216103390Y-65833333D01*
X216103390Y-65833333D02*
X216151009Y-65785714D01*
X216151009Y-65785714D02*
X216246247Y-65738095D01*
X216246247Y-65738095D02*
X216484342Y-65738095D01*
X216484342Y-65738095D02*
X216579580Y-65785714D01*
X216579580Y-65785714D02*
X216627200Y-65833333D01*
X216627200Y-65833333D02*
X216674819Y-65928571D01*
X216674819Y-65928571D02*
X216674819Y-66166666D01*
X216674819Y-66166666D02*
X216627200Y-66261904D01*
X216627200Y-66261904D02*
X216579580Y-66309523D01*
X204629819Y-113742857D02*
X204153628Y-114076190D01*
X204629819Y-114314285D02*
X203629819Y-114314285D01*
X203629819Y-114314285D02*
X203629819Y-113933333D01*
X203629819Y-113933333D02*
X203677438Y-113838095D01*
X203677438Y-113838095D02*
X203725057Y-113790476D01*
X203725057Y-113790476D02*
X203820295Y-113742857D01*
X203820295Y-113742857D02*
X203963152Y-113742857D01*
X203963152Y-113742857D02*
X204058390Y-113790476D01*
X204058390Y-113790476D02*
X204106009Y-113838095D01*
X204106009Y-113838095D02*
X204153628Y-113933333D01*
X204153628Y-113933333D02*
X204153628Y-114314285D01*
X204629819Y-112790476D02*
X204629819Y-113361904D01*
X204629819Y-113076190D02*
X203629819Y-113076190D01*
X203629819Y-113076190D02*
X203772676Y-113171428D01*
X203772676Y-113171428D02*
X203867914Y-113266666D01*
X203867914Y-113266666D02*
X203915533Y-113361904D01*
X203629819Y-111885714D02*
X203629819Y-112361904D01*
X203629819Y-112361904D02*
X204106009Y-112409523D01*
X204106009Y-112409523D02*
X204058390Y-112361904D01*
X204058390Y-112361904D02*
X204010771Y-112266666D01*
X204010771Y-112266666D02*
X204010771Y-112028571D01*
X204010771Y-112028571D02*
X204058390Y-111933333D01*
X204058390Y-111933333D02*
X204106009Y-111885714D01*
X204106009Y-111885714D02*
X204201247Y-111838095D01*
X204201247Y-111838095D02*
X204439342Y-111838095D01*
X204439342Y-111838095D02*
X204534580Y-111885714D01*
X204534580Y-111885714D02*
X204582200Y-111933333D01*
X204582200Y-111933333D02*
X204629819Y-112028571D01*
X204629819Y-112028571D02*
X204629819Y-112266666D01*
X204629819Y-112266666D02*
X204582200Y-112361904D01*
X204582200Y-112361904D02*
X204534580Y-112409523D01*
X229258333Y-53914819D02*
X228925000Y-53438628D01*
X228686905Y-53914819D02*
X228686905Y-52914819D01*
X228686905Y-52914819D02*
X229067857Y-52914819D01*
X229067857Y-52914819D02*
X229163095Y-52962438D01*
X229163095Y-52962438D02*
X229210714Y-53010057D01*
X229210714Y-53010057D02*
X229258333Y-53105295D01*
X229258333Y-53105295D02*
X229258333Y-53248152D01*
X229258333Y-53248152D02*
X229210714Y-53343390D01*
X229210714Y-53343390D02*
X229163095Y-53391009D01*
X229163095Y-53391009D02*
X229067857Y-53438628D01*
X229067857Y-53438628D02*
X228686905Y-53438628D01*
X229591667Y-52914819D02*
X230210714Y-52914819D01*
X230210714Y-52914819D02*
X229877381Y-53295771D01*
X229877381Y-53295771D02*
X230020238Y-53295771D01*
X230020238Y-53295771D02*
X230115476Y-53343390D01*
X230115476Y-53343390D02*
X230163095Y-53391009D01*
X230163095Y-53391009D02*
X230210714Y-53486247D01*
X230210714Y-53486247D02*
X230210714Y-53724342D01*
X230210714Y-53724342D02*
X230163095Y-53819580D01*
X230163095Y-53819580D02*
X230115476Y-53867200D01*
X230115476Y-53867200D02*
X230020238Y-53914819D01*
X230020238Y-53914819D02*
X229734524Y-53914819D01*
X229734524Y-53914819D02*
X229639286Y-53867200D01*
X229639286Y-53867200D02*
X229591667Y-53819580D01*
X213507319Y-131184523D02*
X212507319Y-131184523D01*
X212507319Y-131184523D02*
X213221604Y-130851190D01*
X213221604Y-130851190D02*
X212507319Y-130517857D01*
X212507319Y-130517857D02*
X213507319Y-130517857D01*
X212602557Y-130089285D02*
X212554938Y-130041666D01*
X212554938Y-130041666D02*
X212507319Y-129946428D01*
X212507319Y-129946428D02*
X212507319Y-129708333D01*
X212507319Y-129708333D02*
X212554938Y-129613095D01*
X212554938Y-129613095D02*
X212602557Y-129565476D01*
X212602557Y-129565476D02*
X212697795Y-129517857D01*
X212697795Y-129517857D02*
X212793033Y-129517857D01*
X212793033Y-129517857D02*
X212935890Y-129565476D01*
X212935890Y-129565476D02*
X213507319Y-130136904D01*
X213507319Y-130136904D02*
X213507319Y-129517857D01*
X196482142Y-123349580D02*
X196434523Y-123397200D01*
X196434523Y-123397200D02*
X196291666Y-123444819D01*
X196291666Y-123444819D02*
X196196428Y-123444819D01*
X196196428Y-123444819D02*
X196053571Y-123397200D01*
X196053571Y-123397200D02*
X195958333Y-123301961D01*
X195958333Y-123301961D02*
X195910714Y-123206723D01*
X195910714Y-123206723D02*
X195863095Y-123016247D01*
X195863095Y-123016247D02*
X195863095Y-122873390D01*
X195863095Y-122873390D02*
X195910714Y-122682914D01*
X195910714Y-122682914D02*
X195958333Y-122587676D01*
X195958333Y-122587676D02*
X196053571Y-122492438D01*
X196053571Y-122492438D02*
X196196428Y-122444819D01*
X196196428Y-122444819D02*
X196291666Y-122444819D01*
X196291666Y-122444819D02*
X196434523Y-122492438D01*
X196434523Y-122492438D02*
X196482142Y-122540057D01*
X196863095Y-122540057D02*
X196910714Y-122492438D01*
X196910714Y-122492438D02*
X197005952Y-122444819D01*
X197005952Y-122444819D02*
X197244047Y-122444819D01*
X197244047Y-122444819D02*
X197339285Y-122492438D01*
X197339285Y-122492438D02*
X197386904Y-122540057D01*
X197386904Y-122540057D02*
X197434523Y-122635295D01*
X197434523Y-122635295D02*
X197434523Y-122730533D01*
X197434523Y-122730533D02*
X197386904Y-122873390D01*
X197386904Y-122873390D02*
X196815476Y-123444819D01*
X196815476Y-123444819D02*
X197434523Y-123444819D01*
X197815476Y-122540057D02*
X197863095Y-122492438D01*
X197863095Y-122492438D02*
X197958333Y-122444819D01*
X197958333Y-122444819D02*
X198196428Y-122444819D01*
X198196428Y-122444819D02*
X198291666Y-122492438D01*
X198291666Y-122492438D02*
X198339285Y-122540057D01*
X198339285Y-122540057D02*
X198386904Y-122635295D01*
X198386904Y-122635295D02*
X198386904Y-122730533D01*
X198386904Y-122730533D02*
X198339285Y-122873390D01*
X198339285Y-122873390D02*
X197767857Y-123444819D01*
X197767857Y-123444819D02*
X198386904Y-123444819D01*
X182833333Y-54859580D02*
X182785714Y-54907200D01*
X182785714Y-54907200D02*
X182642857Y-54954819D01*
X182642857Y-54954819D02*
X182547619Y-54954819D01*
X182547619Y-54954819D02*
X182404762Y-54907200D01*
X182404762Y-54907200D02*
X182309524Y-54811961D01*
X182309524Y-54811961D02*
X182261905Y-54716723D01*
X182261905Y-54716723D02*
X182214286Y-54526247D01*
X182214286Y-54526247D02*
X182214286Y-54383390D01*
X182214286Y-54383390D02*
X182261905Y-54192914D01*
X182261905Y-54192914D02*
X182309524Y-54097676D01*
X182309524Y-54097676D02*
X182404762Y-54002438D01*
X182404762Y-54002438D02*
X182547619Y-53954819D01*
X182547619Y-53954819D02*
X182642857Y-53954819D01*
X182642857Y-53954819D02*
X182785714Y-54002438D01*
X182785714Y-54002438D02*
X182833333Y-54050057D01*
X183738095Y-53954819D02*
X183261905Y-53954819D01*
X183261905Y-53954819D02*
X183214286Y-54431009D01*
X183214286Y-54431009D02*
X183261905Y-54383390D01*
X183261905Y-54383390D02*
X183357143Y-54335771D01*
X183357143Y-54335771D02*
X183595238Y-54335771D01*
X183595238Y-54335771D02*
X183690476Y-54383390D01*
X183690476Y-54383390D02*
X183738095Y-54431009D01*
X183738095Y-54431009D02*
X183785714Y-54526247D01*
X183785714Y-54526247D02*
X183785714Y-54764342D01*
X183785714Y-54764342D02*
X183738095Y-54859580D01*
X183738095Y-54859580D02*
X183690476Y-54907200D01*
X183690476Y-54907200D02*
X183595238Y-54954819D01*
X183595238Y-54954819D02*
X183357143Y-54954819D01*
X183357143Y-54954819D02*
X183261905Y-54907200D01*
X183261905Y-54907200D02*
X183214286Y-54859580D01*
X219761905Y-56429819D02*
X219761905Y-55429819D01*
X219761905Y-55429819D02*
X220000000Y-55429819D01*
X220000000Y-55429819D02*
X220142857Y-55477438D01*
X220142857Y-55477438D02*
X220238095Y-55572676D01*
X220238095Y-55572676D02*
X220285714Y-55667914D01*
X220285714Y-55667914D02*
X220333333Y-55858390D01*
X220333333Y-55858390D02*
X220333333Y-56001247D01*
X220333333Y-56001247D02*
X220285714Y-56191723D01*
X220285714Y-56191723D02*
X220238095Y-56286961D01*
X220238095Y-56286961D02*
X220142857Y-56382200D01*
X220142857Y-56382200D02*
X220000000Y-56429819D01*
X220000000Y-56429819D02*
X219761905Y-56429819D01*
X220714286Y-55525057D02*
X220761905Y-55477438D01*
X220761905Y-55477438D02*
X220857143Y-55429819D01*
X220857143Y-55429819D02*
X221095238Y-55429819D01*
X221095238Y-55429819D02*
X221190476Y-55477438D01*
X221190476Y-55477438D02*
X221238095Y-55525057D01*
X221238095Y-55525057D02*
X221285714Y-55620295D01*
X221285714Y-55620295D02*
X221285714Y-55715533D01*
X221285714Y-55715533D02*
X221238095Y-55858390D01*
X221238095Y-55858390D02*
X220666667Y-56429819D01*
X220666667Y-56429819D02*
X221285714Y-56429819D01*
X220339580Y-92192857D02*
X220387200Y-92240476D01*
X220387200Y-92240476D02*
X220434819Y-92383333D01*
X220434819Y-92383333D02*
X220434819Y-92478571D01*
X220434819Y-92478571D02*
X220387200Y-92621428D01*
X220387200Y-92621428D02*
X220291961Y-92716666D01*
X220291961Y-92716666D02*
X220196723Y-92764285D01*
X220196723Y-92764285D02*
X220006247Y-92811904D01*
X220006247Y-92811904D02*
X219863390Y-92811904D01*
X219863390Y-92811904D02*
X219672914Y-92764285D01*
X219672914Y-92764285D02*
X219577676Y-92716666D01*
X219577676Y-92716666D02*
X219482438Y-92621428D01*
X219482438Y-92621428D02*
X219434819Y-92478571D01*
X219434819Y-92478571D02*
X219434819Y-92383333D01*
X219434819Y-92383333D02*
X219482438Y-92240476D01*
X219482438Y-92240476D02*
X219530057Y-92192857D01*
X219530057Y-91811904D02*
X219482438Y-91764285D01*
X219482438Y-91764285D02*
X219434819Y-91669047D01*
X219434819Y-91669047D02*
X219434819Y-91430952D01*
X219434819Y-91430952D02*
X219482438Y-91335714D01*
X219482438Y-91335714D02*
X219530057Y-91288095D01*
X219530057Y-91288095D02*
X219625295Y-91240476D01*
X219625295Y-91240476D02*
X219720533Y-91240476D01*
X219720533Y-91240476D02*
X219863390Y-91288095D01*
X219863390Y-91288095D02*
X220434819Y-91859523D01*
X220434819Y-91859523D02*
X220434819Y-91240476D01*
X220434819Y-90764285D02*
X220434819Y-90573809D01*
X220434819Y-90573809D02*
X220387200Y-90478571D01*
X220387200Y-90478571D02*
X220339580Y-90430952D01*
X220339580Y-90430952D02*
X220196723Y-90335714D01*
X220196723Y-90335714D02*
X220006247Y-90288095D01*
X220006247Y-90288095D02*
X219625295Y-90288095D01*
X219625295Y-90288095D02*
X219530057Y-90335714D01*
X219530057Y-90335714D02*
X219482438Y-90383333D01*
X219482438Y-90383333D02*
X219434819Y-90478571D01*
X219434819Y-90478571D02*
X219434819Y-90669047D01*
X219434819Y-90669047D02*
X219482438Y-90764285D01*
X219482438Y-90764285D02*
X219530057Y-90811904D01*
X219530057Y-90811904D02*
X219625295Y-90859523D01*
X219625295Y-90859523D02*
X219863390Y-90859523D01*
X219863390Y-90859523D02*
X219958628Y-90811904D01*
X219958628Y-90811904D02*
X220006247Y-90764285D01*
X220006247Y-90764285D02*
X220053866Y-90669047D01*
X220053866Y-90669047D02*
X220053866Y-90478571D01*
X220053866Y-90478571D02*
X220006247Y-90383333D01*
X220006247Y-90383333D02*
X219958628Y-90335714D01*
X219958628Y-90335714D02*
X219863390Y-90288095D01*
D11*
X197247619Y-77389923D02*
X197361905Y-77389923D01*
X197304762Y-77589923D02*
X197304762Y-77389923D01*
X197428572Y-77589923D02*
X197428572Y-77389923D01*
X197428572Y-77389923D02*
X197504762Y-77389923D01*
X197504762Y-77389923D02*
X197523810Y-77399447D01*
X197523810Y-77399447D02*
X197533333Y-77408971D01*
X197533333Y-77408971D02*
X197542857Y-77428019D01*
X197542857Y-77428019D02*
X197542857Y-77456590D01*
X197542857Y-77456590D02*
X197533333Y-77475638D01*
X197533333Y-77475638D02*
X197523810Y-77485161D01*
X197523810Y-77485161D02*
X197504762Y-77494685D01*
X197504762Y-77494685D02*
X197428572Y-77494685D01*
X197714286Y-77456590D02*
X197714286Y-77589923D01*
X197666667Y-77380400D02*
X197619048Y-77523257D01*
X197619048Y-77523257D02*
X197742857Y-77523257D01*
D10*
X217954819Y-54642857D02*
X217478628Y-54976190D01*
X217954819Y-55214285D02*
X216954819Y-55214285D01*
X216954819Y-55214285D02*
X216954819Y-54833333D01*
X216954819Y-54833333D02*
X217002438Y-54738095D01*
X217002438Y-54738095D02*
X217050057Y-54690476D01*
X217050057Y-54690476D02*
X217145295Y-54642857D01*
X217145295Y-54642857D02*
X217288152Y-54642857D01*
X217288152Y-54642857D02*
X217383390Y-54690476D01*
X217383390Y-54690476D02*
X217431009Y-54738095D01*
X217431009Y-54738095D02*
X217478628Y-54833333D01*
X217478628Y-54833333D02*
X217478628Y-55214285D01*
X217954819Y-53690476D02*
X217954819Y-54261904D01*
X217954819Y-53976190D02*
X216954819Y-53976190D01*
X216954819Y-53976190D02*
X217097676Y-54071428D01*
X217097676Y-54071428D02*
X217192914Y-54166666D01*
X217192914Y-54166666D02*
X217240533Y-54261904D01*
X216954819Y-53357142D02*
X216954819Y-52690476D01*
X216954819Y-52690476D02*
X217954819Y-53119047D01*
X196482142Y-118369580D02*
X196434523Y-118417200D01*
X196434523Y-118417200D02*
X196291666Y-118464819D01*
X196291666Y-118464819D02*
X196196428Y-118464819D01*
X196196428Y-118464819D02*
X196053571Y-118417200D01*
X196053571Y-118417200D02*
X195958333Y-118321961D01*
X195958333Y-118321961D02*
X195910714Y-118226723D01*
X195910714Y-118226723D02*
X195863095Y-118036247D01*
X195863095Y-118036247D02*
X195863095Y-117893390D01*
X195863095Y-117893390D02*
X195910714Y-117702914D01*
X195910714Y-117702914D02*
X195958333Y-117607676D01*
X195958333Y-117607676D02*
X196053571Y-117512438D01*
X196053571Y-117512438D02*
X196196428Y-117464819D01*
X196196428Y-117464819D02*
X196291666Y-117464819D01*
X196291666Y-117464819D02*
X196434523Y-117512438D01*
X196434523Y-117512438D02*
X196482142Y-117560057D01*
X197434523Y-118464819D02*
X196863095Y-118464819D01*
X197148809Y-118464819D02*
X197148809Y-117464819D01*
X197148809Y-117464819D02*
X197053571Y-117607676D01*
X197053571Y-117607676D02*
X196958333Y-117702914D01*
X196958333Y-117702914D02*
X196863095Y-117750533D01*
X198005952Y-117893390D02*
X197910714Y-117845771D01*
X197910714Y-117845771D02*
X197863095Y-117798152D01*
X197863095Y-117798152D02*
X197815476Y-117702914D01*
X197815476Y-117702914D02*
X197815476Y-117655295D01*
X197815476Y-117655295D02*
X197863095Y-117560057D01*
X197863095Y-117560057D02*
X197910714Y-117512438D01*
X197910714Y-117512438D02*
X198005952Y-117464819D01*
X198005952Y-117464819D02*
X198196428Y-117464819D01*
X198196428Y-117464819D02*
X198291666Y-117512438D01*
X198291666Y-117512438D02*
X198339285Y-117560057D01*
X198339285Y-117560057D02*
X198386904Y-117655295D01*
X198386904Y-117655295D02*
X198386904Y-117702914D01*
X198386904Y-117702914D02*
X198339285Y-117798152D01*
X198339285Y-117798152D02*
X198291666Y-117845771D01*
X198291666Y-117845771D02*
X198196428Y-117893390D01*
X198196428Y-117893390D02*
X198005952Y-117893390D01*
X198005952Y-117893390D02*
X197910714Y-117941009D01*
X197910714Y-117941009D02*
X197863095Y-117988628D01*
X197863095Y-117988628D02*
X197815476Y-118083866D01*
X197815476Y-118083866D02*
X197815476Y-118274342D01*
X197815476Y-118274342D02*
X197863095Y-118369580D01*
X197863095Y-118369580D02*
X197910714Y-118417200D01*
X197910714Y-118417200D02*
X198005952Y-118464819D01*
X198005952Y-118464819D02*
X198196428Y-118464819D01*
X198196428Y-118464819D02*
X198291666Y-118417200D01*
X198291666Y-118417200D02*
X198339285Y-118369580D01*
X198339285Y-118369580D02*
X198386904Y-118274342D01*
X198386904Y-118274342D02*
X198386904Y-118083866D01*
X198386904Y-118083866D02*
X198339285Y-117988628D01*
X198339285Y-117988628D02*
X198291666Y-117941009D01*
X198291666Y-117941009D02*
X198196428Y-117893390D01*
X174774819Y-90333333D02*
X175489104Y-90333333D01*
X175489104Y-90333333D02*
X175631961Y-90380952D01*
X175631961Y-90380952D02*
X175727200Y-90476190D01*
X175727200Y-90476190D02*
X175774819Y-90619047D01*
X175774819Y-90619047D02*
X175774819Y-90714285D01*
X175774819Y-89333333D02*
X175774819Y-89904761D01*
X175774819Y-89619047D02*
X174774819Y-89619047D01*
X174774819Y-89619047D02*
X174917676Y-89714285D01*
X174917676Y-89714285D02*
X175012914Y-89809523D01*
X175012914Y-89809523D02*
X175060533Y-89904761D01*
X203349580Y-95242857D02*
X203397200Y-95290476D01*
X203397200Y-95290476D02*
X203444819Y-95433333D01*
X203444819Y-95433333D02*
X203444819Y-95528571D01*
X203444819Y-95528571D02*
X203397200Y-95671428D01*
X203397200Y-95671428D02*
X203301961Y-95766666D01*
X203301961Y-95766666D02*
X203206723Y-95814285D01*
X203206723Y-95814285D02*
X203016247Y-95861904D01*
X203016247Y-95861904D02*
X202873390Y-95861904D01*
X202873390Y-95861904D02*
X202682914Y-95814285D01*
X202682914Y-95814285D02*
X202587676Y-95766666D01*
X202587676Y-95766666D02*
X202492438Y-95671428D01*
X202492438Y-95671428D02*
X202444819Y-95528571D01*
X202444819Y-95528571D02*
X202444819Y-95433333D01*
X202444819Y-95433333D02*
X202492438Y-95290476D01*
X202492438Y-95290476D02*
X202540057Y-95242857D01*
X203444819Y-94290476D02*
X203444819Y-94861904D01*
X203444819Y-94576190D02*
X202444819Y-94576190D01*
X202444819Y-94576190D02*
X202587676Y-94671428D01*
X202587676Y-94671428D02*
X202682914Y-94766666D01*
X202682914Y-94766666D02*
X202730533Y-94861904D01*
X203444819Y-93814285D02*
X203444819Y-93623809D01*
X203444819Y-93623809D02*
X203397200Y-93528571D01*
X203397200Y-93528571D02*
X203349580Y-93480952D01*
X203349580Y-93480952D02*
X203206723Y-93385714D01*
X203206723Y-93385714D02*
X203016247Y-93338095D01*
X203016247Y-93338095D02*
X202635295Y-93338095D01*
X202635295Y-93338095D02*
X202540057Y-93385714D01*
X202540057Y-93385714D02*
X202492438Y-93433333D01*
X202492438Y-93433333D02*
X202444819Y-93528571D01*
X202444819Y-93528571D02*
X202444819Y-93719047D01*
X202444819Y-93719047D02*
X202492438Y-93814285D01*
X202492438Y-93814285D02*
X202540057Y-93861904D01*
X202540057Y-93861904D02*
X202635295Y-93909523D01*
X202635295Y-93909523D02*
X202873390Y-93909523D01*
X202873390Y-93909523D02*
X202968628Y-93861904D01*
X202968628Y-93861904D02*
X203016247Y-93814285D01*
X203016247Y-93814285D02*
X203063866Y-93719047D01*
X203063866Y-93719047D02*
X203063866Y-93528571D01*
X203063866Y-93528571D02*
X203016247Y-93433333D01*
X203016247Y-93433333D02*
X202968628Y-93385714D01*
X202968628Y-93385714D02*
X202873390Y-93338095D01*
X194779819Y-110642857D02*
X194303628Y-110976190D01*
X194779819Y-111214285D02*
X193779819Y-111214285D01*
X193779819Y-111214285D02*
X193779819Y-110833333D01*
X193779819Y-110833333D02*
X193827438Y-110738095D01*
X193827438Y-110738095D02*
X193875057Y-110690476D01*
X193875057Y-110690476D02*
X193970295Y-110642857D01*
X193970295Y-110642857D02*
X194113152Y-110642857D01*
X194113152Y-110642857D02*
X194208390Y-110690476D01*
X194208390Y-110690476D02*
X194256009Y-110738095D01*
X194256009Y-110738095D02*
X194303628Y-110833333D01*
X194303628Y-110833333D02*
X194303628Y-111214285D01*
X194779819Y-109690476D02*
X194779819Y-110261904D01*
X194779819Y-109976190D02*
X193779819Y-109976190D01*
X193779819Y-109976190D02*
X193922676Y-110071428D01*
X193922676Y-110071428D02*
X194017914Y-110166666D01*
X194017914Y-110166666D02*
X194065533Y-110261904D01*
X194113152Y-108833333D02*
X194779819Y-108833333D01*
X193732200Y-109071428D02*
X194446485Y-109309523D01*
X194446485Y-109309523D02*
X194446485Y-108690476D01*
X219807319Y-119309523D02*
X218807319Y-119309523D01*
X218807319Y-119309523D02*
X219521604Y-118976190D01*
X219521604Y-118976190D02*
X218807319Y-118642857D01*
X218807319Y-118642857D02*
X219807319Y-118642857D01*
X219807319Y-117642857D02*
X219807319Y-118214285D01*
X219807319Y-117928571D02*
X218807319Y-117928571D01*
X218807319Y-117928571D02*
X218950176Y-118023809D01*
X218950176Y-118023809D02*
X219045414Y-118119047D01*
X219045414Y-118119047D02*
X219093033Y-118214285D01*
X210382142Y-94359580D02*
X210334523Y-94407200D01*
X210334523Y-94407200D02*
X210191666Y-94454819D01*
X210191666Y-94454819D02*
X210096428Y-94454819D01*
X210096428Y-94454819D02*
X209953571Y-94407200D01*
X209953571Y-94407200D02*
X209858333Y-94311961D01*
X209858333Y-94311961D02*
X209810714Y-94216723D01*
X209810714Y-94216723D02*
X209763095Y-94026247D01*
X209763095Y-94026247D02*
X209763095Y-93883390D01*
X209763095Y-93883390D02*
X209810714Y-93692914D01*
X209810714Y-93692914D02*
X209858333Y-93597676D01*
X209858333Y-93597676D02*
X209953571Y-93502438D01*
X209953571Y-93502438D02*
X210096428Y-93454819D01*
X210096428Y-93454819D02*
X210191666Y-93454819D01*
X210191666Y-93454819D02*
X210334523Y-93502438D01*
X210334523Y-93502438D02*
X210382142Y-93550057D01*
X210715476Y-93454819D02*
X211334523Y-93454819D01*
X211334523Y-93454819D02*
X211001190Y-93835771D01*
X211001190Y-93835771D02*
X211144047Y-93835771D01*
X211144047Y-93835771D02*
X211239285Y-93883390D01*
X211239285Y-93883390D02*
X211286904Y-93931009D01*
X211286904Y-93931009D02*
X211334523Y-94026247D01*
X211334523Y-94026247D02*
X211334523Y-94264342D01*
X211334523Y-94264342D02*
X211286904Y-94359580D01*
X211286904Y-94359580D02*
X211239285Y-94407200D01*
X211239285Y-94407200D02*
X211144047Y-94454819D01*
X211144047Y-94454819D02*
X210858333Y-94454819D01*
X210858333Y-94454819D02*
X210763095Y-94407200D01*
X210763095Y-94407200D02*
X210715476Y-94359580D01*
X211953571Y-93454819D02*
X212048809Y-93454819D01*
X212048809Y-93454819D02*
X212144047Y-93502438D01*
X212144047Y-93502438D02*
X212191666Y-93550057D01*
X212191666Y-93550057D02*
X212239285Y-93645295D01*
X212239285Y-93645295D02*
X212286904Y-93835771D01*
X212286904Y-93835771D02*
X212286904Y-94073866D01*
X212286904Y-94073866D02*
X212239285Y-94264342D01*
X212239285Y-94264342D02*
X212191666Y-94359580D01*
X212191666Y-94359580D02*
X212144047Y-94407200D01*
X212144047Y-94407200D02*
X212048809Y-94454819D01*
X212048809Y-94454819D02*
X211953571Y-94454819D01*
X211953571Y-94454819D02*
X211858333Y-94407200D01*
X211858333Y-94407200D02*
X211810714Y-94359580D01*
X211810714Y-94359580D02*
X211763095Y-94264342D01*
X211763095Y-94264342D02*
X211715476Y-94073866D01*
X211715476Y-94073866D02*
X211715476Y-93835771D01*
X211715476Y-93835771D02*
X211763095Y-93645295D01*
X211763095Y-93645295D02*
X211810714Y-93550057D01*
X211810714Y-93550057D02*
X211858333Y-93502438D01*
X211858333Y-93502438D02*
X211953571Y-93454819D01*
X180887142Y-113454819D02*
X180553809Y-112978628D01*
X180315714Y-113454819D02*
X180315714Y-112454819D01*
X180315714Y-112454819D02*
X180696666Y-112454819D01*
X180696666Y-112454819D02*
X180791904Y-112502438D01*
X180791904Y-112502438D02*
X180839523Y-112550057D01*
X180839523Y-112550057D02*
X180887142Y-112645295D01*
X180887142Y-112645295D02*
X180887142Y-112788152D01*
X180887142Y-112788152D02*
X180839523Y-112883390D01*
X180839523Y-112883390D02*
X180791904Y-112931009D01*
X180791904Y-112931009D02*
X180696666Y-112978628D01*
X180696666Y-112978628D02*
X180315714Y-112978628D01*
X181839523Y-113454819D02*
X181268095Y-113454819D01*
X181553809Y-113454819D02*
X181553809Y-112454819D01*
X181553809Y-112454819D02*
X181458571Y-112597676D01*
X181458571Y-112597676D02*
X181363333Y-112692914D01*
X181363333Y-112692914D02*
X181268095Y-112740533D01*
X182696666Y-112454819D02*
X182506190Y-112454819D01*
X182506190Y-112454819D02*
X182410952Y-112502438D01*
X182410952Y-112502438D02*
X182363333Y-112550057D01*
X182363333Y-112550057D02*
X182268095Y-112692914D01*
X182268095Y-112692914D02*
X182220476Y-112883390D01*
X182220476Y-112883390D02*
X182220476Y-113264342D01*
X182220476Y-113264342D02*
X182268095Y-113359580D01*
X182268095Y-113359580D02*
X182315714Y-113407200D01*
X182315714Y-113407200D02*
X182410952Y-113454819D01*
X182410952Y-113454819D02*
X182601428Y-113454819D01*
X182601428Y-113454819D02*
X182696666Y-113407200D01*
X182696666Y-113407200D02*
X182744285Y-113359580D01*
X182744285Y-113359580D02*
X182791904Y-113264342D01*
X182791904Y-113264342D02*
X182791904Y-113026247D01*
X182791904Y-113026247D02*
X182744285Y-112931009D01*
X182744285Y-112931009D02*
X182696666Y-112883390D01*
X182696666Y-112883390D02*
X182601428Y-112835771D01*
X182601428Y-112835771D02*
X182410952Y-112835771D01*
X182410952Y-112835771D02*
X182315714Y-112883390D01*
X182315714Y-112883390D02*
X182268095Y-112931009D01*
X182268095Y-112931009D02*
X182220476Y-113026247D01*
D11*
X189152381Y-83021923D02*
X189266667Y-83021923D01*
X189209524Y-83221923D02*
X189209524Y-83021923D01*
X189333334Y-83221923D02*
X189333334Y-83021923D01*
X189333334Y-83021923D02*
X189409524Y-83021923D01*
X189409524Y-83021923D02*
X189428572Y-83031447D01*
X189428572Y-83031447D02*
X189438095Y-83040971D01*
X189438095Y-83040971D02*
X189447619Y-83060019D01*
X189447619Y-83060019D02*
X189447619Y-83088590D01*
X189447619Y-83088590D02*
X189438095Y-83107638D01*
X189438095Y-83107638D02*
X189428572Y-83117161D01*
X189428572Y-83117161D02*
X189409524Y-83126685D01*
X189409524Y-83126685D02*
X189333334Y-83126685D01*
X189638095Y-83221923D02*
X189523810Y-83221923D01*
X189580953Y-83221923D02*
X189580953Y-83021923D01*
X189580953Y-83021923D02*
X189561905Y-83050495D01*
X189561905Y-83050495D02*
X189542857Y-83069542D01*
X189542857Y-83069542D02*
X189523810Y-83079066D01*
X189714286Y-83040971D02*
X189723810Y-83031447D01*
X189723810Y-83031447D02*
X189742857Y-83021923D01*
X189742857Y-83021923D02*
X189790476Y-83021923D01*
X189790476Y-83021923D02*
X189809524Y-83031447D01*
X189809524Y-83031447D02*
X189819048Y-83040971D01*
X189819048Y-83040971D02*
X189828571Y-83060019D01*
X189828571Y-83060019D02*
X189828571Y-83079066D01*
X189828571Y-83079066D02*
X189819048Y-83107638D01*
X189819048Y-83107638D02*
X189704762Y-83221923D01*
X189704762Y-83221923D02*
X189828571Y-83221923D01*
D10*
X211359580Y-57917857D02*
X211407200Y-57965476D01*
X211407200Y-57965476D02*
X211454819Y-58108333D01*
X211454819Y-58108333D02*
X211454819Y-58203571D01*
X211454819Y-58203571D02*
X211407200Y-58346428D01*
X211407200Y-58346428D02*
X211311961Y-58441666D01*
X211311961Y-58441666D02*
X211216723Y-58489285D01*
X211216723Y-58489285D02*
X211026247Y-58536904D01*
X211026247Y-58536904D02*
X210883390Y-58536904D01*
X210883390Y-58536904D02*
X210692914Y-58489285D01*
X210692914Y-58489285D02*
X210597676Y-58441666D01*
X210597676Y-58441666D02*
X210502438Y-58346428D01*
X210502438Y-58346428D02*
X210454819Y-58203571D01*
X210454819Y-58203571D02*
X210454819Y-58108333D01*
X210454819Y-58108333D02*
X210502438Y-57965476D01*
X210502438Y-57965476D02*
X210550057Y-57917857D01*
X211454819Y-56965476D02*
X211454819Y-57536904D01*
X211454819Y-57251190D02*
X210454819Y-57251190D01*
X210454819Y-57251190D02*
X210597676Y-57346428D01*
X210597676Y-57346428D02*
X210692914Y-57441666D01*
X210692914Y-57441666D02*
X210740533Y-57536904D01*
X210454819Y-56632142D02*
X210454819Y-56013095D01*
X210454819Y-56013095D02*
X210835771Y-56346428D01*
X210835771Y-56346428D02*
X210835771Y-56203571D01*
X210835771Y-56203571D02*
X210883390Y-56108333D01*
X210883390Y-56108333D02*
X210931009Y-56060714D01*
X210931009Y-56060714D02*
X211026247Y-56013095D01*
X211026247Y-56013095D02*
X211264342Y-56013095D01*
X211264342Y-56013095D02*
X211359580Y-56060714D01*
X211359580Y-56060714D02*
X211407200Y-56108333D01*
X211407200Y-56108333D02*
X211454819Y-56203571D01*
X211454819Y-56203571D02*
X211454819Y-56489285D01*
X211454819Y-56489285D02*
X211407200Y-56584523D01*
X211407200Y-56584523D02*
X211359580Y-56632142D01*
X199954819Y-74142857D02*
X199478628Y-74476190D01*
X199954819Y-74714285D02*
X198954819Y-74714285D01*
X198954819Y-74714285D02*
X198954819Y-74333333D01*
X198954819Y-74333333D02*
X199002438Y-74238095D01*
X199002438Y-74238095D02*
X199050057Y-74190476D01*
X199050057Y-74190476D02*
X199145295Y-74142857D01*
X199145295Y-74142857D02*
X199288152Y-74142857D01*
X199288152Y-74142857D02*
X199383390Y-74190476D01*
X199383390Y-74190476D02*
X199431009Y-74238095D01*
X199431009Y-74238095D02*
X199478628Y-74333333D01*
X199478628Y-74333333D02*
X199478628Y-74714285D01*
X199050057Y-73761904D02*
X199002438Y-73714285D01*
X199002438Y-73714285D02*
X198954819Y-73619047D01*
X198954819Y-73619047D02*
X198954819Y-73380952D01*
X198954819Y-73380952D02*
X199002438Y-73285714D01*
X199002438Y-73285714D02*
X199050057Y-73238095D01*
X199050057Y-73238095D02*
X199145295Y-73190476D01*
X199145295Y-73190476D02*
X199240533Y-73190476D01*
X199240533Y-73190476D02*
X199383390Y-73238095D01*
X199383390Y-73238095D02*
X199954819Y-73809523D01*
X199954819Y-73809523D02*
X199954819Y-73190476D01*
X199954819Y-72238095D02*
X199954819Y-72809523D01*
X199954819Y-72523809D02*
X198954819Y-72523809D01*
X198954819Y-72523809D02*
X199097676Y-72619047D01*
X199097676Y-72619047D02*
X199192914Y-72714285D01*
X199192914Y-72714285D02*
X199240533Y-72809523D01*
X209454819Y-107642857D02*
X208978628Y-107976190D01*
X209454819Y-108214285D02*
X208454819Y-108214285D01*
X208454819Y-108214285D02*
X208454819Y-107833333D01*
X208454819Y-107833333D02*
X208502438Y-107738095D01*
X208502438Y-107738095D02*
X208550057Y-107690476D01*
X208550057Y-107690476D02*
X208645295Y-107642857D01*
X208645295Y-107642857D02*
X208788152Y-107642857D01*
X208788152Y-107642857D02*
X208883390Y-107690476D01*
X208883390Y-107690476D02*
X208931009Y-107738095D01*
X208931009Y-107738095D02*
X208978628Y-107833333D01*
X208978628Y-107833333D02*
X208978628Y-108214285D01*
X208550057Y-107261904D02*
X208502438Y-107214285D01*
X208502438Y-107214285D02*
X208454819Y-107119047D01*
X208454819Y-107119047D02*
X208454819Y-106880952D01*
X208454819Y-106880952D02*
X208502438Y-106785714D01*
X208502438Y-106785714D02*
X208550057Y-106738095D01*
X208550057Y-106738095D02*
X208645295Y-106690476D01*
X208645295Y-106690476D02*
X208740533Y-106690476D01*
X208740533Y-106690476D02*
X208883390Y-106738095D01*
X208883390Y-106738095D02*
X209454819Y-107309523D01*
X209454819Y-107309523D02*
X209454819Y-106690476D01*
X208788152Y-105833333D02*
X209454819Y-105833333D01*
X208407200Y-106071428D02*
X209121485Y-106309523D01*
X209121485Y-106309523D02*
X209121485Y-105690476D01*
X198738095Y-42894819D02*
X198738095Y-43704342D01*
X198738095Y-43704342D02*
X198785714Y-43799580D01*
X198785714Y-43799580D02*
X198833333Y-43847200D01*
X198833333Y-43847200D02*
X198928571Y-43894819D01*
X198928571Y-43894819D02*
X199119047Y-43894819D01*
X199119047Y-43894819D02*
X199214285Y-43847200D01*
X199214285Y-43847200D02*
X199261904Y-43799580D01*
X199261904Y-43799580D02*
X199309523Y-43704342D01*
X199309523Y-43704342D02*
X199309523Y-42894819D01*
X200309523Y-43894819D02*
X199738095Y-43894819D01*
X200023809Y-43894819D02*
X200023809Y-42894819D01*
X200023809Y-42894819D02*
X199928571Y-43037676D01*
X199928571Y-43037676D02*
X199833333Y-43132914D01*
X199833333Y-43132914D02*
X199738095Y-43180533D01*
X194738094Y-47909104D02*
X195214284Y-47909104D01*
X194642856Y-48194819D02*
X194976189Y-47194819D01*
X194976189Y-47194819D02*
X195309522Y-48194819D01*
X195642856Y-47528152D02*
X195642856Y-48194819D01*
X195642856Y-47623390D02*
X195690475Y-47575771D01*
X195690475Y-47575771D02*
X195785713Y-47528152D01*
X195785713Y-47528152D02*
X195928570Y-47528152D01*
X195928570Y-47528152D02*
X196023808Y-47575771D01*
X196023808Y-47575771D02*
X196071427Y-47671009D01*
X196071427Y-47671009D02*
X196071427Y-48194819D01*
X196404761Y-47528152D02*
X196785713Y-47528152D01*
X196547618Y-47194819D02*
X196547618Y-48051961D01*
X196547618Y-48051961D02*
X196595237Y-48147200D01*
X196595237Y-48147200D02*
X196690475Y-48194819D01*
X196690475Y-48194819D02*
X196785713Y-48194819D01*
X197499999Y-48147200D02*
X197404761Y-48194819D01*
X197404761Y-48194819D02*
X197214285Y-48194819D01*
X197214285Y-48194819D02*
X197119047Y-48147200D01*
X197119047Y-48147200D02*
X197071428Y-48051961D01*
X197071428Y-48051961D02*
X197071428Y-47671009D01*
X197071428Y-47671009D02*
X197119047Y-47575771D01*
X197119047Y-47575771D02*
X197214285Y-47528152D01*
X197214285Y-47528152D02*
X197404761Y-47528152D01*
X197404761Y-47528152D02*
X197499999Y-47575771D01*
X197499999Y-47575771D02*
X197547618Y-47671009D01*
X197547618Y-47671009D02*
X197547618Y-47766247D01*
X197547618Y-47766247D02*
X197071428Y-47861485D01*
X197976190Y-47528152D02*
X197976190Y-48194819D01*
X197976190Y-47623390D02*
X198023809Y-47575771D01*
X198023809Y-47575771D02*
X198119047Y-47528152D01*
X198119047Y-47528152D02*
X198261904Y-47528152D01*
X198261904Y-47528152D02*
X198357142Y-47575771D01*
X198357142Y-47575771D02*
X198404761Y-47671009D01*
X198404761Y-47671009D02*
X198404761Y-48194819D01*
X198880952Y-47528152D02*
X198880952Y-48194819D01*
X198880952Y-47623390D02*
X198928571Y-47575771D01*
X198928571Y-47575771D02*
X199023809Y-47528152D01*
X199023809Y-47528152D02*
X199166666Y-47528152D01*
X199166666Y-47528152D02*
X199261904Y-47575771D01*
X199261904Y-47575771D02*
X199309523Y-47671009D01*
X199309523Y-47671009D02*
X199309523Y-48194819D01*
X200214285Y-48194819D02*
X200214285Y-47671009D01*
X200214285Y-47671009D02*
X200166666Y-47575771D01*
X200166666Y-47575771D02*
X200071428Y-47528152D01*
X200071428Y-47528152D02*
X199880952Y-47528152D01*
X199880952Y-47528152D02*
X199785714Y-47575771D01*
X200214285Y-48147200D02*
X200119047Y-48194819D01*
X200119047Y-48194819D02*
X199880952Y-48194819D01*
X199880952Y-48194819D02*
X199785714Y-48147200D01*
X199785714Y-48147200D02*
X199738095Y-48051961D01*
X199738095Y-48051961D02*
X199738095Y-47956723D01*
X199738095Y-47956723D02*
X199785714Y-47861485D01*
X199785714Y-47861485D02*
X199880952Y-47813866D01*
X199880952Y-47813866D02*
X200119047Y-47813866D01*
X200119047Y-47813866D02*
X200214285Y-47766247D01*
X201404762Y-47909104D02*
X201880952Y-47909104D01*
X201309524Y-48194819D02*
X201642857Y-47194819D01*
X201642857Y-47194819D02*
X201976190Y-48194819D01*
X202309524Y-48194819D02*
X202309524Y-47528152D01*
X202309524Y-47718628D02*
X202357143Y-47623390D01*
X202357143Y-47623390D02*
X202404762Y-47575771D01*
X202404762Y-47575771D02*
X202500000Y-47528152D01*
X202500000Y-47528152D02*
X202595238Y-47528152D01*
X203309524Y-48147200D02*
X203214286Y-48194819D01*
X203214286Y-48194819D02*
X203023810Y-48194819D01*
X203023810Y-48194819D02*
X202928572Y-48147200D01*
X202928572Y-48147200D02*
X202880953Y-48051961D01*
X202880953Y-48051961D02*
X202880953Y-47671009D01*
X202880953Y-47671009D02*
X202928572Y-47575771D01*
X202928572Y-47575771D02*
X203023810Y-47528152D01*
X203023810Y-47528152D02*
X203214286Y-47528152D01*
X203214286Y-47528152D02*
X203309524Y-47575771D01*
X203309524Y-47575771D02*
X203357143Y-47671009D01*
X203357143Y-47671009D02*
X203357143Y-47766247D01*
X203357143Y-47766247D02*
X202880953Y-47861485D01*
X204214286Y-48194819D02*
X204214286Y-47671009D01*
X204214286Y-47671009D02*
X204166667Y-47575771D01*
X204166667Y-47575771D02*
X204071429Y-47528152D01*
X204071429Y-47528152D02*
X203880953Y-47528152D01*
X203880953Y-47528152D02*
X203785715Y-47575771D01*
X204214286Y-48147200D02*
X204119048Y-48194819D01*
X204119048Y-48194819D02*
X203880953Y-48194819D01*
X203880953Y-48194819D02*
X203785715Y-48147200D01*
X203785715Y-48147200D02*
X203738096Y-48051961D01*
X203738096Y-48051961D02*
X203738096Y-47956723D01*
X203738096Y-47956723D02*
X203785715Y-47861485D01*
X203785715Y-47861485D02*
X203880953Y-47813866D01*
X203880953Y-47813866D02*
X204119048Y-47813866D01*
X204119048Y-47813866D02*
X204214286Y-47766247D01*
X174602319Y-71309523D02*
X175316604Y-71309523D01*
X175316604Y-71309523D02*
X175459461Y-71357142D01*
X175459461Y-71357142D02*
X175554700Y-71452380D01*
X175554700Y-71452380D02*
X175602319Y-71595237D01*
X175602319Y-71595237D02*
X175602319Y-71690475D01*
X175602319Y-70309523D02*
X175602319Y-70880951D01*
X175602319Y-70595237D02*
X174602319Y-70595237D01*
X174602319Y-70595237D02*
X174745176Y-70690475D01*
X174745176Y-70690475D02*
X174840414Y-70785713D01*
X174840414Y-70785713D02*
X174888033Y-70880951D01*
X175602319Y-69357142D02*
X175602319Y-69928570D01*
X175602319Y-69642856D02*
X174602319Y-69642856D01*
X174602319Y-69642856D02*
X174745176Y-69738094D01*
X174745176Y-69738094D02*
X174840414Y-69833332D01*
X174840414Y-69833332D02*
X174888033Y-69928570D01*
X222682142Y-67454819D02*
X222348809Y-66978628D01*
X222110714Y-67454819D02*
X222110714Y-66454819D01*
X222110714Y-66454819D02*
X222491666Y-66454819D01*
X222491666Y-66454819D02*
X222586904Y-66502438D01*
X222586904Y-66502438D02*
X222634523Y-66550057D01*
X222634523Y-66550057D02*
X222682142Y-66645295D01*
X222682142Y-66645295D02*
X222682142Y-66788152D01*
X222682142Y-66788152D02*
X222634523Y-66883390D01*
X222634523Y-66883390D02*
X222586904Y-66931009D01*
X222586904Y-66931009D02*
X222491666Y-66978628D01*
X222491666Y-66978628D02*
X222110714Y-66978628D01*
X223063095Y-66550057D02*
X223110714Y-66502438D01*
X223110714Y-66502438D02*
X223205952Y-66454819D01*
X223205952Y-66454819D02*
X223444047Y-66454819D01*
X223444047Y-66454819D02*
X223539285Y-66502438D01*
X223539285Y-66502438D02*
X223586904Y-66550057D01*
X223586904Y-66550057D02*
X223634523Y-66645295D01*
X223634523Y-66645295D02*
X223634523Y-66740533D01*
X223634523Y-66740533D02*
X223586904Y-66883390D01*
X223586904Y-66883390D02*
X223015476Y-67454819D01*
X223015476Y-67454819D02*
X223634523Y-67454819D01*
X224015476Y-66550057D02*
X224063095Y-66502438D01*
X224063095Y-66502438D02*
X224158333Y-66454819D01*
X224158333Y-66454819D02*
X224396428Y-66454819D01*
X224396428Y-66454819D02*
X224491666Y-66502438D01*
X224491666Y-66502438D02*
X224539285Y-66550057D01*
X224539285Y-66550057D02*
X224586904Y-66645295D01*
X224586904Y-66645295D02*
X224586904Y-66740533D01*
X224586904Y-66740533D02*
X224539285Y-66883390D01*
X224539285Y-66883390D02*
X223967857Y-67454819D01*
X223967857Y-67454819D02*
X224586904Y-67454819D01*
X187238095Y-91454819D02*
X187238095Y-92264342D01*
X187238095Y-92264342D02*
X187285714Y-92359580D01*
X187285714Y-92359580D02*
X187333333Y-92407200D01*
X187333333Y-92407200D02*
X187428571Y-92454819D01*
X187428571Y-92454819D02*
X187619047Y-92454819D01*
X187619047Y-92454819D02*
X187714285Y-92407200D01*
X187714285Y-92407200D02*
X187761904Y-92359580D01*
X187761904Y-92359580D02*
X187809523Y-92264342D01*
X187809523Y-92264342D02*
X187809523Y-91454819D01*
X188238095Y-91550057D02*
X188285714Y-91502438D01*
X188285714Y-91502438D02*
X188380952Y-91454819D01*
X188380952Y-91454819D02*
X188619047Y-91454819D01*
X188619047Y-91454819D02*
X188714285Y-91502438D01*
X188714285Y-91502438D02*
X188761904Y-91550057D01*
X188761904Y-91550057D02*
X188809523Y-91645295D01*
X188809523Y-91645295D02*
X188809523Y-91740533D01*
X188809523Y-91740533D02*
X188761904Y-91883390D01*
X188761904Y-91883390D02*
X188190476Y-92454819D01*
X188190476Y-92454819D02*
X188809523Y-92454819D01*
X219761905Y-58954819D02*
X219761905Y-57954819D01*
X219761905Y-57954819D02*
X220000000Y-57954819D01*
X220000000Y-57954819D02*
X220142857Y-58002438D01*
X220142857Y-58002438D02*
X220238095Y-58097676D01*
X220238095Y-58097676D02*
X220285714Y-58192914D01*
X220285714Y-58192914D02*
X220333333Y-58383390D01*
X220333333Y-58383390D02*
X220333333Y-58526247D01*
X220333333Y-58526247D02*
X220285714Y-58716723D01*
X220285714Y-58716723D02*
X220238095Y-58811961D01*
X220238095Y-58811961D02*
X220142857Y-58907200D01*
X220142857Y-58907200D02*
X220000000Y-58954819D01*
X220000000Y-58954819D02*
X219761905Y-58954819D01*
X220666667Y-57954819D02*
X221285714Y-57954819D01*
X221285714Y-57954819D02*
X220952381Y-58335771D01*
X220952381Y-58335771D02*
X221095238Y-58335771D01*
X221095238Y-58335771D02*
X221190476Y-58383390D01*
X221190476Y-58383390D02*
X221238095Y-58431009D01*
X221238095Y-58431009D02*
X221285714Y-58526247D01*
X221285714Y-58526247D02*
X221285714Y-58764342D01*
X221285714Y-58764342D02*
X221238095Y-58859580D01*
X221238095Y-58859580D02*
X221190476Y-58907200D01*
X221190476Y-58907200D02*
X221095238Y-58954819D01*
X221095238Y-58954819D02*
X220809524Y-58954819D01*
X220809524Y-58954819D02*
X220714286Y-58907200D01*
X220714286Y-58907200D02*
X220666667Y-58859580D01*
X205339580Y-95242857D02*
X205387200Y-95290476D01*
X205387200Y-95290476D02*
X205434819Y-95433333D01*
X205434819Y-95433333D02*
X205434819Y-95528571D01*
X205434819Y-95528571D02*
X205387200Y-95671428D01*
X205387200Y-95671428D02*
X205291961Y-95766666D01*
X205291961Y-95766666D02*
X205196723Y-95814285D01*
X205196723Y-95814285D02*
X205006247Y-95861904D01*
X205006247Y-95861904D02*
X204863390Y-95861904D01*
X204863390Y-95861904D02*
X204672914Y-95814285D01*
X204672914Y-95814285D02*
X204577676Y-95766666D01*
X204577676Y-95766666D02*
X204482438Y-95671428D01*
X204482438Y-95671428D02*
X204434819Y-95528571D01*
X204434819Y-95528571D02*
X204434819Y-95433333D01*
X204434819Y-95433333D02*
X204482438Y-95290476D01*
X204482438Y-95290476D02*
X204530057Y-95242857D01*
X204530057Y-94861904D02*
X204482438Y-94814285D01*
X204482438Y-94814285D02*
X204434819Y-94719047D01*
X204434819Y-94719047D02*
X204434819Y-94480952D01*
X204434819Y-94480952D02*
X204482438Y-94385714D01*
X204482438Y-94385714D02*
X204530057Y-94338095D01*
X204530057Y-94338095D02*
X204625295Y-94290476D01*
X204625295Y-94290476D02*
X204720533Y-94290476D01*
X204720533Y-94290476D02*
X204863390Y-94338095D01*
X204863390Y-94338095D02*
X205434819Y-94909523D01*
X205434819Y-94909523D02*
X205434819Y-94290476D01*
X205434819Y-93338095D02*
X205434819Y-93909523D01*
X205434819Y-93623809D02*
X204434819Y-93623809D01*
X204434819Y-93623809D02*
X204577676Y-93719047D01*
X204577676Y-93719047D02*
X204672914Y-93814285D01*
X204672914Y-93814285D02*
X204720533Y-93909523D01*
X204534580Y-110242857D02*
X204582200Y-110290476D01*
X204582200Y-110290476D02*
X204629819Y-110433333D01*
X204629819Y-110433333D02*
X204629819Y-110528571D01*
X204629819Y-110528571D02*
X204582200Y-110671428D01*
X204582200Y-110671428D02*
X204486961Y-110766666D01*
X204486961Y-110766666D02*
X204391723Y-110814285D01*
X204391723Y-110814285D02*
X204201247Y-110861904D01*
X204201247Y-110861904D02*
X204058390Y-110861904D01*
X204058390Y-110861904D02*
X203867914Y-110814285D01*
X203867914Y-110814285D02*
X203772676Y-110766666D01*
X203772676Y-110766666D02*
X203677438Y-110671428D01*
X203677438Y-110671428D02*
X203629819Y-110528571D01*
X203629819Y-110528571D02*
X203629819Y-110433333D01*
X203629819Y-110433333D02*
X203677438Y-110290476D01*
X203677438Y-110290476D02*
X203725057Y-110242857D01*
X204629819Y-109290476D02*
X204629819Y-109861904D01*
X204629819Y-109576190D02*
X203629819Y-109576190D01*
X203629819Y-109576190D02*
X203772676Y-109671428D01*
X203772676Y-109671428D02*
X203867914Y-109766666D01*
X203867914Y-109766666D02*
X203915533Y-109861904D01*
X203963152Y-108433333D02*
X204629819Y-108433333D01*
X203582200Y-108671428D02*
X204296485Y-108909523D01*
X204296485Y-108909523D02*
X204296485Y-108290476D01*
X185857142Y-86464819D02*
X185523809Y-85988628D01*
X185285714Y-86464819D02*
X185285714Y-85464819D01*
X185285714Y-85464819D02*
X185666666Y-85464819D01*
X185666666Y-85464819D02*
X185761904Y-85512438D01*
X185761904Y-85512438D02*
X185809523Y-85560057D01*
X185809523Y-85560057D02*
X185857142Y-85655295D01*
X185857142Y-85655295D02*
X185857142Y-85798152D01*
X185857142Y-85798152D02*
X185809523Y-85893390D01*
X185809523Y-85893390D02*
X185761904Y-85941009D01*
X185761904Y-85941009D02*
X185666666Y-85988628D01*
X185666666Y-85988628D02*
X185285714Y-85988628D01*
X186190476Y-85464819D02*
X186809523Y-85464819D01*
X186809523Y-85464819D02*
X186476190Y-85845771D01*
X186476190Y-85845771D02*
X186619047Y-85845771D01*
X186619047Y-85845771D02*
X186714285Y-85893390D01*
X186714285Y-85893390D02*
X186761904Y-85941009D01*
X186761904Y-85941009D02*
X186809523Y-86036247D01*
X186809523Y-86036247D02*
X186809523Y-86274342D01*
X186809523Y-86274342D02*
X186761904Y-86369580D01*
X186761904Y-86369580D02*
X186714285Y-86417200D01*
X186714285Y-86417200D02*
X186619047Y-86464819D01*
X186619047Y-86464819D02*
X186333333Y-86464819D01*
X186333333Y-86464819D02*
X186238095Y-86417200D01*
X186238095Y-86417200D02*
X186190476Y-86369580D01*
X187761904Y-86464819D02*
X187190476Y-86464819D01*
X187476190Y-86464819D02*
X187476190Y-85464819D01*
X187476190Y-85464819D02*
X187380952Y-85607676D01*
X187380952Y-85607676D02*
X187285714Y-85702914D01*
X187285714Y-85702914D02*
X187190476Y-85750533D01*
X171333333Y-58779819D02*
X171000000Y-58303628D01*
X170761905Y-58779819D02*
X170761905Y-57779819D01*
X170761905Y-57779819D02*
X171142857Y-57779819D01*
X171142857Y-57779819D02*
X171238095Y-57827438D01*
X171238095Y-57827438D02*
X171285714Y-57875057D01*
X171285714Y-57875057D02*
X171333333Y-57970295D01*
X171333333Y-57970295D02*
X171333333Y-58113152D01*
X171333333Y-58113152D02*
X171285714Y-58208390D01*
X171285714Y-58208390D02*
X171238095Y-58256009D01*
X171238095Y-58256009D02*
X171142857Y-58303628D01*
X171142857Y-58303628D02*
X170761905Y-58303628D01*
X171714286Y-57875057D02*
X171761905Y-57827438D01*
X171761905Y-57827438D02*
X171857143Y-57779819D01*
X171857143Y-57779819D02*
X172095238Y-57779819D01*
X172095238Y-57779819D02*
X172190476Y-57827438D01*
X172190476Y-57827438D02*
X172238095Y-57875057D01*
X172238095Y-57875057D02*
X172285714Y-57970295D01*
X172285714Y-57970295D02*
X172285714Y-58065533D01*
X172285714Y-58065533D02*
X172238095Y-58208390D01*
X172238095Y-58208390D02*
X171666667Y-58779819D01*
X171666667Y-58779819D02*
X172285714Y-58779819D01*
D11*
X201747619Y-77389923D02*
X201861905Y-77389923D01*
X201804762Y-77589923D02*
X201804762Y-77389923D01*
X201928572Y-77589923D02*
X201928572Y-77389923D01*
X201928572Y-77389923D02*
X202004762Y-77389923D01*
X202004762Y-77389923D02*
X202023810Y-77399447D01*
X202023810Y-77399447D02*
X202033333Y-77408971D01*
X202033333Y-77408971D02*
X202042857Y-77428019D01*
X202042857Y-77428019D02*
X202042857Y-77456590D01*
X202042857Y-77456590D02*
X202033333Y-77475638D01*
X202033333Y-77475638D02*
X202023810Y-77485161D01*
X202023810Y-77485161D02*
X202004762Y-77494685D01*
X202004762Y-77494685D02*
X201928572Y-77494685D01*
X202138095Y-77589923D02*
X202176191Y-77589923D01*
X202176191Y-77589923D02*
X202195238Y-77580400D01*
X202195238Y-77580400D02*
X202204762Y-77570876D01*
X202204762Y-77570876D02*
X202223810Y-77542304D01*
X202223810Y-77542304D02*
X202233333Y-77504209D01*
X202233333Y-77504209D02*
X202233333Y-77428019D01*
X202233333Y-77428019D02*
X202223810Y-77408971D01*
X202223810Y-77408971D02*
X202214286Y-77399447D01*
X202214286Y-77399447D02*
X202195238Y-77389923D01*
X202195238Y-77389923D02*
X202157143Y-77389923D01*
X202157143Y-77389923D02*
X202138095Y-77399447D01*
X202138095Y-77399447D02*
X202128572Y-77408971D01*
X202128572Y-77408971D02*
X202119048Y-77428019D01*
X202119048Y-77428019D02*
X202119048Y-77475638D01*
X202119048Y-77475638D02*
X202128572Y-77494685D01*
X202128572Y-77494685D02*
X202138095Y-77504209D01*
X202138095Y-77504209D02*
X202157143Y-77513733D01*
X202157143Y-77513733D02*
X202195238Y-77513733D01*
X202195238Y-77513733D02*
X202214286Y-77504209D01*
X202214286Y-77504209D02*
X202223810Y-77494685D01*
X202223810Y-77494685D02*
X202233333Y-77475638D01*
D10*
X185610476Y-114477295D02*
X185610476Y-115124914D01*
X185610476Y-115124914D02*
X185648571Y-115201104D01*
X185648571Y-115201104D02*
X185686666Y-115239200D01*
X185686666Y-115239200D02*
X185762857Y-115277295D01*
X185762857Y-115277295D02*
X185915238Y-115277295D01*
X185915238Y-115277295D02*
X185991428Y-115239200D01*
X185991428Y-115239200D02*
X186029523Y-115201104D01*
X186029523Y-115201104D02*
X186067619Y-115124914D01*
X186067619Y-115124914D02*
X186067619Y-114477295D01*
X186372380Y-114477295D02*
X186905714Y-114477295D01*
X186905714Y-114477295D02*
X186562856Y-115277295D01*
X214359580Y-92192857D02*
X214407200Y-92240476D01*
X214407200Y-92240476D02*
X214454819Y-92383333D01*
X214454819Y-92383333D02*
X214454819Y-92478571D01*
X214454819Y-92478571D02*
X214407200Y-92621428D01*
X214407200Y-92621428D02*
X214311961Y-92716666D01*
X214311961Y-92716666D02*
X214216723Y-92764285D01*
X214216723Y-92764285D02*
X214026247Y-92811904D01*
X214026247Y-92811904D02*
X213883390Y-92811904D01*
X213883390Y-92811904D02*
X213692914Y-92764285D01*
X213692914Y-92764285D02*
X213597676Y-92716666D01*
X213597676Y-92716666D02*
X213502438Y-92621428D01*
X213502438Y-92621428D02*
X213454819Y-92478571D01*
X213454819Y-92478571D02*
X213454819Y-92383333D01*
X213454819Y-92383333D02*
X213502438Y-92240476D01*
X213502438Y-92240476D02*
X213550057Y-92192857D01*
X213550057Y-91811904D02*
X213502438Y-91764285D01*
X213502438Y-91764285D02*
X213454819Y-91669047D01*
X213454819Y-91669047D02*
X213454819Y-91430952D01*
X213454819Y-91430952D02*
X213502438Y-91335714D01*
X213502438Y-91335714D02*
X213550057Y-91288095D01*
X213550057Y-91288095D02*
X213645295Y-91240476D01*
X213645295Y-91240476D02*
X213740533Y-91240476D01*
X213740533Y-91240476D02*
X213883390Y-91288095D01*
X213883390Y-91288095D02*
X214454819Y-91859523D01*
X214454819Y-91859523D02*
X214454819Y-91240476D01*
X213454819Y-90907142D02*
X213454819Y-90240476D01*
X213454819Y-90240476D02*
X214454819Y-90669047D01*
X196482142Y-121359580D02*
X196434523Y-121407200D01*
X196434523Y-121407200D02*
X196291666Y-121454819D01*
X196291666Y-121454819D02*
X196196428Y-121454819D01*
X196196428Y-121454819D02*
X196053571Y-121407200D01*
X196053571Y-121407200D02*
X195958333Y-121311961D01*
X195958333Y-121311961D02*
X195910714Y-121216723D01*
X195910714Y-121216723D02*
X195863095Y-121026247D01*
X195863095Y-121026247D02*
X195863095Y-120883390D01*
X195863095Y-120883390D02*
X195910714Y-120692914D01*
X195910714Y-120692914D02*
X195958333Y-120597676D01*
X195958333Y-120597676D02*
X196053571Y-120502438D01*
X196053571Y-120502438D02*
X196196428Y-120454819D01*
X196196428Y-120454819D02*
X196291666Y-120454819D01*
X196291666Y-120454819D02*
X196434523Y-120502438D01*
X196434523Y-120502438D02*
X196482142Y-120550057D01*
X196863095Y-120550057D02*
X196910714Y-120502438D01*
X196910714Y-120502438D02*
X197005952Y-120454819D01*
X197005952Y-120454819D02*
X197244047Y-120454819D01*
X197244047Y-120454819D02*
X197339285Y-120502438D01*
X197339285Y-120502438D02*
X197386904Y-120550057D01*
X197386904Y-120550057D02*
X197434523Y-120645295D01*
X197434523Y-120645295D02*
X197434523Y-120740533D01*
X197434523Y-120740533D02*
X197386904Y-120883390D01*
X197386904Y-120883390D02*
X196815476Y-121454819D01*
X196815476Y-121454819D02*
X197434523Y-121454819D01*
X198053571Y-120454819D02*
X198148809Y-120454819D01*
X198148809Y-120454819D02*
X198244047Y-120502438D01*
X198244047Y-120502438D02*
X198291666Y-120550057D01*
X198291666Y-120550057D02*
X198339285Y-120645295D01*
X198339285Y-120645295D02*
X198386904Y-120835771D01*
X198386904Y-120835771D02*
X198386904Y-121073866D01*
X198386904Y-121073866D02*
X198339285Y-121264342D01*
X198339285Y-121264342D02*
X198291666Y-121359580D01*
X198291666Y-121359580D02*
X198244047Y-121407200D01*
X198244047Y-121407200D02*
X198148809Y-121454819D01*
X198148809Y-121454819D02*
X198053571Y-121454819D01*
X198053571Y-121454819D02*
X197958333Y-121407200D01*
X197958333Y-121407200D02*
X197910714Y-121359580D01*
X197910714Y-121359580D02*
X197863095Y-121264342D01*
X197863095Y-121264342D02*
X197815476Y-121073866D01*
X197815476Y-121073866D02*
X197815476Y-120835771D01*
X197815476Y-120835771D02*
X197863095Y-120645295D01*
X197863095Y-120645295D02*
X197910714Y-120550057D01*
X197910714Y-120550057D02*
X197958333Y-120502438D01*
X197958333Y-120502438D02*
X198053571Y-120454819D01*
X211166667Y-71257200D02*
X211309524Y-71304819D01*
X211309524Y-71304819D02*
X211547619Y-71304819D01*
X211547619Y-71304819D02*
X211642857Y-71257200D01*
X211642857Y-71257200D02*
X211690476Y-71209580D01*
X211690476Y-71209580D02*
X211738095Y-71114342D01*
X211738095Y-71114342D02*
X211738095Y-71019104D01*
X211738095Y-71019104D02*
X211690476Y-70923866D01*
X211690476Y-70923866D02*
X211642857Y-70876247D01*
X211642857Y-70876247D02*
X211547619Y-70828628D01*
X211547619Y-70828628D02*
X211357143Y-70781009D01*
X211357143Y-70781009D02*
X211261905Y-70733390D01*
X211261905Y-70733390D02*
X211214286Y-70685771D01*
X211214286Y-70685771D02*
X211166667Y-70590533D01*
X211166667Y-70590533D02*
X211166667Y-70495295D01*
X211166667Y-70495295D02*
X211214286Y-70400057D01*
X211214286Y-70400057D02*
X211261905Y-70352438D01*
X211261905Y-70352438D02*
X211357143Y-70304819D01*
X211357143Y-70304819D02*
X211595238Y-70304819D01*
X211595238Y-70304819D02*
X211738095Y-70352438D01*
X212071429Y-70304819D02*
X212309524Y-71304819D01*
X212309524Y-71304819D02*
X212500000Y-70590533D01*
X212500000Y-70590533D02*
X212690476Y-71304819D01*
X212690476Y-71304819D02*
X212928572Y-70304819D01*
X213833333Y-71304819D02*
X213261905Y-71304819D01*
X213547619Y-71304819D02*
X213547619Y-70304819D01*
X213547619Y-70304819D02*
X213452381Y-70447676D01*
X213452381Y-70447676D02*
X213357143Y-70542914D01*
X213357143Y-70542914D02*
X213261905Y-70590533D01*
X192357142Y-73454819D02*
X192023809Y-72978628D01*
X191785714Y-73454819D02*
X191785714Y-72454819D01*
X191785714Y-72454819D02*
X192166666Y-72454819D01*
X192166666Y-72454819D02*
X192261904Y-72502438D01*
X192261904Y-72502438D02*
X192309523Y-72550057D01*
X192309523Y-72550057D02*
X192357142Y-72645295D01*
X192357142Y-72645295D02*
X192357142Y-72788152D01*
X192357142Y-72788152D02*
X192309523Y-72883390D01*
X192309523Y-72883390D02*
X192261904Y-72931009D01*
X192261904Y-72931009D02*
X192166666Y-72978628D01*
X192166666Y-72978628D02*
X191785714Y-72978628D01*
X192738095Y-72550057D02*
X192785714Y-72502438D01*
X192785714Y-72502438D02*
X192880952Y-72454819D01*
X192880952Y-72454819D02*
X193119047Y-72454819D01*
X193119047Y-72454819D02*
X193214285Y-72502438D01*
X193214285Y-72502438D02*
X193261904Y-72550057D01*
X193261904Y-72550057D02*
X193309523Y-72645295D01*
X193309523Y-72645295D02*
X193309523Y-72740533D01*
X193309523Y-72740533D02*
X193261904Y-72883390D01*
X193261904Y-72883390D02*
X192690476Y-73454819D01*
X192690476Y-73454819D02*
X193309523Y-73454819D01*
X194166666Y-72454819D02*
X193976190Y-72454819D01*
X193976190Y-72454819D02*
X193880952Y-72502438D01*
X193880952Y-72502438D02*
X193833333Y-72550057D01*
X193833333Y-72550057D02*
X193738095Y-72692914D01*
X193738095Y-72692914D02*
X193690476Y-72883390D01*
X193690476Y-72883390D02*
X193690476Y-73264342D01*
X193690476Y-73264342D02*
X193738095Y-73359580D01*
X193738095Y-73359580D02*
X193785714Y-73407200D01*
X193785714Y-73407200D02*
X193880952Y-73454819D01*
X193880952Y-73454819D02*
X194071428Y-73454819D01*
X194071428Y-73454819D02*
X194166666Y-73407200D01*
X194166666Y-73407200D02*
X194214285Y-73359580D01*
X194214285Y-73359580D02*
X194261904Y-73264342D01*
X194261904Y-73264342D02*
X194261904Y-73026247D01*
X194261904Y-73026247D02*
X194214285Y-72931009D01*
X194214285Y-72931009D02*
X194166666Y-72883390D01*
X194166666Y-72883390D02*
X194071428Y-72835771D01*
X194071428Y-72835771D02*
X193880952Y-72835771D01*
X193880952Y-72835771D02*
X193785714Y-72883390D01*
X193785714Y-72883390D02*
X193738095Y-72931009D01*
X193738095Y-72931009D02*
X193690476Y-73026247D01*
X182983333Y-104859580D02*
X182935714Y-104907200D01*
X182935714Y-104907200D02*
X182792857Y-104954819D01*
X182792857Y-104954819D02*
X182697619Y-104954819D01*
X182697619Y-104954819D02*
X182554762Y-104907200D01*
X182554762Y-104907200D02*
X182459524Y-104811961D01*
X182459524Y-104811961D02*
X182411905Y-104716723D01*
X182411905Y-104716723D02*
X182364286Y-104526247D01*
X182364286Y-104526247D02*
X182364286Y-104383390D01*
X182364286Y-104383390D02*
X182411905Y-104192914D01*
X182411905Y-104192914D02*
X182459524Y-104097676D01*
X182459524Y-104097676D02*
X182554762Y-104002438D01*
X182554762Y-104002438D02*
X182697619Y-103954819D01*
X182697619Y-103954819D02*
X182792857Y-103954819D01*
X182792857Y-103954819D02*
X182935714Y-104002438D01*
X182935714Y-104002438D02*
X182983333Y-104050057D01*
X183935714Y-104954819D02*
X183364286Y-104954819D01*
X183650000Y-104954819D02*
X183650000Y-103954819D01*
X183650000Y-103954819D02*
X183554762Y-104097676D01*
X183554762Y-104097676D02*
X183459524Y-104192914D01*
X183459524Y-104192914D02*
X183364286Y-104240533D01*
X219454819Y-111142857D02*
X218978628Y-111476190D01*
X219454819Y-111714285D02*
X218454819Y-111714285D01*
X218454819Y-111714285D02*
X218454819Y-111333333D01*
X218454819Y-111333333D02*
X218502438Y-111238095D01*
X218502438Y-111238095D02*
X218550057Y-111190476D01*
X218550057Y-111190476D02*
X218645295Y-111142857D01*
X218645295Y-111142857D02*
X218788152Y-111142857D01*
X218788152Y-111142857D02*
X218883390Y-111190476D01*
X218883390Y-111190476D02*
X218931009Y-111238095D01*
X218931009Y-111238095D02*
X218978628Y-111333333D01*
X218978628Y-111333333D02*
X218978628Y-111714285D01*
X218550057Y-110761904D02*
X218502438Y-110714285D01*
X218502438Y-110714285D02*
X218454819Y-110619047D01*
X218454819Y-110619047D02*
X218454819Y-110380952D01*
X218454819Y-110380952D02*
X218502438Y-110285714D01*
X218502438Y-110285714D02*
X218550057Y-110238095D01*
X218550057Y-110238095D02*
X218645295Y-110190476D01*
X218645295Y-110190476D02*
X218740533Y-110190476D01*
X218740533Y-110190476D02*
X218883390Y-110238095D01*
X218883390Y-110238095D02*
X219454819Y-110809523D01*
X219454819Y-110809523D02*
X219454819Y-110190476D01*
X218454819Y-109285714D02*
X218454819Y-109761904D01*
X218454819Y-109761904D02*
X218931009Y-109809523D01*
X218931009Y-109809523D02*
X218883390Y-109761904D01*
X218883390Y-109761904D02*
X218835771Y-109666666D01*
X218835771Y-109666666D02*
X218835771Y-109428571D01*
X218835771Y-109428571D02*
X218883390Y-109333333D01*
X218883390Y-109333333D02*
X218931009Y-109285714D01*
X218931009Y-109285714D02*
X219026247Y-109238095D01*
X219026247Y-109238095D02*
X219264342Y-109238095D01*
X219264342Y-109238095D02*
X219359580Y-109285714D01*
X219359580Y-109285714D02*
X219407200Y-109333333D01*
X219407200Y-109333333D02*
X219454819Y-109428571D01*
X219454819Y-109428571D02*
X219454819Y-109666666D01*
X219454819Y-109666666D02*
X219407200Y-109761904D01*
X219407200Y-109761904D02*
X219359580Y-109809523D01*
X202454819Y-80292857D02*
X201978628Y-80626190D01*
X202454819Y-80864285D02*
X201454819Y-80864285D01*
X201454819Y-80864285D02*
X201454819Y-80483333D01*
X201454819Y-80483333D02*
X201502438Y-80388095D01*
X201502438Y-80388095D02*
X201550057Y-80340476D01*
X201550057Y-80340476D02*
X201645295Y-80292857D01*
X201645295Y-80292857D02*
X201788152Y-80292857D01*
X201788152Y-80292857D02*
X201883390Y-80340476D01*
X201883390Y-80340476D02*
X201931009Y-80388095D01*
X201931009Y-80388095D02*
X201978628Y-80483333D01*
X201978628Y-80483333D02*
X201978628Y-80864285D01*
X201550057Y-79911904D02*
X201502438Y-79864285D01*
X201502438Y-79864285D02*
X201454819Y-79769047D01*
X201454819Y-79769047D02*
X201454819Y-79530952D01*
X201454819Y-79530952D02*
X201502438Y-79435714D01*
X201502438Y-79435714D02*
X201550057Y-79388095D01*
X201550057Y-79388095D02*
X201645295Y-79340476D01*
X201645295Y-79340476D02*
X201740533Y-79340476D01*
X201740533Y-79340476D02*
X201883390Y-79388095D01*
X201883390Y-79388095D02*
X202454819Y-79959523D01*
X202454819Y-79959523D02*
X202454819Y-79340476D01*
X201454819Y-79007142D02*
X201454819Y-78388095D01*
X201454819Y-78388095D02*
X201835771Y-78721428D01*
X201835771Y-78721428D02*
X201835771Y-78578571D01*
X201835771Y-78578571D02*
X201883390Y-78483333D01*
X201883390Y-78483333D02*
X201931009Y-78435714D01*
X201931009Y-78435714D02*
X202026247Y-78388095D01*
X202026247Y-78388095D02*
X202264342Y-78388095D01*
X202264342Y-78388095D02*
X202359580Y-78435714D01*
X202359580Y-78435714D02*
X202407200Y-78483333D01*
X202407200Y-78483333D02*
X202454819Y-78578571D01*
X202454819Y-78578571D02*
X202454819Y-78864285D01*
X202454819Y-78864285D02*
X202407200Y-78959523D01*
X202407200Y-78959523D02*
X202359580Y-79007142D01*
X187954819Y-82547857D02*
X187478628Y-82881190D01*
X187954819Y-83119285D02*
X186954819Y-83119285D01*
X186954819Y-83119285D02*
X186954819Y-82738333D01*
X186954819Y-82738333D02*
X187002438Y-82643095D01*
X187002438Y-82643095D02*
X187050057Y-82595476D01*
X187050057Y-82595476D02*
X187145295Y-82547857D01*
X187145295Y-82547857D02*
X187288152Y-82547857D01*
X187288152Y-82547857D02*
X187383390Y-82595476D01*
X187383390Y-82595476D02*
X187431009Y-82643095D01*
X187431009Y-82643095D02*
X187478628Y-82738333D01*
X187478628Y-82738333D02*
X187478628Y-83119285D01*
X186954819Y-82214523D02*
X186954819Y-81595476D01*
X186954819Y-81595476D02*
X187335771Y-81928809D01*
X187335771Y-81928809D02*
X187335771Y-81785952D01*
X187335771Y-81785952D02*
X187383390Y-81690714D01*
X187383390Y-81690714D02*
X187431009Y-81643095D01*
X187431009Y-81643095D02*
X187526247Y-81595476D01*
X187526247Y-81595476D02*
X187764342Y-81595476D01*
X187764342Y-81595476D02*
X187859580Y-81643095D01*
X187859580Y-81643095D02*
X187907200Y-81690714D01*
X187907200Y-81690714D02*
X187954819Y-81785952D01*
X187954819Y-81785952D02*
X187954819Y-82071666D01*
X187954819Y-82071666D02*
X187907200Y-82166904D01*
X187907200Y-82166904D02*
X187859580Y-82214523D01*
X187050057Y-81214523D02*
X187002438Y-81166904D01*
X187002438Y-81166904D02*
X186954819Y-81071666D01*
X186954819Y-81071666D02*
X186954819Y-80833571D01*
X186954819Y-80833571D02*
X187002438Y-80738333D01*
X187002438Y-80738333D02*
X187050057Y-80690714D01*
X187050057Y-80690714D02*
X187145295Y-80643095D01*
X187145295Y-80643095D02*
X187240533Y-80643095D01*
X187240533Y-80643095D02*
X187383390Y-80690714D01*
X187383390Y-80690714D02*
X187954819Y-81262142D01*
X187954819Y-81262142D02*
X187954819Y-80643095D01*
X182404761Y-85530057D02*
X182309523Y-85482438D01*
X182309523Y-85482438D02*
X182214285Y-85387200D01*
X182214285Y-85387200D02*
X182071428Y-85244342D01*
X182071428Y-85244342D02*
X181976190Y-85196723D01*
X181976190Y-85196723D02*
X181880952Y-85196723D01*
X181928571Y-85434819D02*
X181833333Y-85387200D01*
X181833333Y-85387200D02*
X181738095Y-85291961D01*
X181738095Y-85291961D02*
X181690476Y-85101485D01*
X181690476Y-85101485D02*
X181690476Y-84768152D01*
X181690476Y-84768152D02*
X181738095Y-84577676D01*
X181738095Y-84577676D02*
X181833333Y-84482438D01*
X181833333Y-84482438D02*
X181928571Y-84434819D01*
X181928571Y-84434819D02*
X182119047Y-84434819D01*
X182119047Y-84434819D02*
X182214285Y-84482438D01*
X182214285Y-84482438D02*
X182309523Y-84577676D01*
X182309523Y-84577676D02*
X182357142Y-84768152D01*
X182357142Y-84768152D02*
X182357142Y-85101485D01*
X182357142Y-85101485D02*
X182309523Y-85291961D01*
X182309523Y-85291961D02*
X182214285Y-85387200D01*
X182214285Y-85387200D02*
X182119047Y-85434819D01*
X182119047Y-85434819D02*
X181928571Y-85434819D01*
X182738095Y-84530057D02*
X182785714Y-84482438D01*
X182785714Y-84482438D02*
X182880952Y-84434819D01*
X182880952Y-84434819D02*
X183119047Y-84434819D01*
X183119047Y-84434819D02*
X183214285Y-84482438D01*
X183214285Y-84482438D02*
X183261904Y-84530057D01*
X183261904Y-84530057D02*
X183309523Y-84625295D01*
X183309523Y-84625295D02*
X183309523Y-84720533D01*
X183309523Y-84720533D02*
X183261904Y-84863390D01*
X183261904Y-84863390D02*
X182690476Y-85434819D01*
X182690476Y-85434819D02*
X183309523Y-85434819D01*
X218349580Y-92192857D02*
X218397200Y-92240476D01*
X218397200Y-92240476D02*
X218444819Y-92383333D01*
X218444819Y-92383333D02*
X218444819Y-92478571D01*
X218444819Y-92478571D02*
X218397200Y-92621428D01*
X218397200Y-92621428D02*
X218301961Y-92716666D01*
X218301961Y-92716666D02*
X218206723Y-92764285D01*
X218206723Y-92764285D02*
X218016247Y-92811904D01*
X218016247Y-92811904D02*
X217873390Y-92811904D01*
X217873390Y-92811904D02*
X217682914Y-92764285D01*
X217682914Y-92764285D02*
X217587676Y-92716666D01*
X217587676Y-92716666D02*
X217492438Y-92621428D01*
X217492438Y-92621428D02*
X217444819Y-92478571D01*
X217444819Y-92478571D02*
X217444819Y-92383333D01*
X217444819Y-92383333D02*
X217492438Y-92240476D01*
X217492438Y-92240476D02*
X217540057Y-92192857D01*
X217540057Y-91811904D02*
X217492438Y-91764285D01*
X217492438Y-91764285D02*
X217444819Y-91669047D01*
X217444819Y-91669047D02*
X217444819Y-91430952D01*
X217444819Y-91430952D02*
X217492438Y-91335714D01*
X217492438Y-91335714D02*
X217540057Y-91288095D01*
X217540057Y-91288095D02*
X217635295Y-91240476D01*
X217635295Y-91240476D02*
X217730533Y-91240476D01*
X217730533Y-91240476D02*
X217873390Y-91288095D01*
X217873390Y-91288095D02*
X218444819Y-91859523D01*
X218444819Y-91859523D02*
X218444819Y-91240476D01*
X217873390Y-90669047D02*
X217825771Y-90764285D01*
X217825771Y-90764285D02*
X217778152Y-90811904D01*
X217778152Y-90811904D02*
X217682914Y-90859523D01*
X217682914Y-90859523D02*
X217635295Y-90859523D01*
X217635295Y-90859523D02*
X217540057Y-90811904D01*
X217540057Y-90811904D02*
X217492438Y-90764285D01*
X217492438Y-90764285D02*
X217444819Y-90669047D01*
X217444819Y-90669047D02*
X217444819Y-90478571D01*
X217444819Y-90478571D02*
X217492438Y-90383333D01*
X217492438Y-90383333D02*
X217540057Y-90335714D01*
X217540057Y-90335714D02*
X217635295Y-90288095D01*
X217635295Y-90288095D02*
X217682914Y-90288095D01*
X217682914Y-90288095D02*
X217778152Y-90335714D01*
X217778152Y-90335714D02*
X217825771Y-90383333D01*
X217825771Y-90383333D02*
X217873390Y-90478571D01*
X217873390Y-90478571D02*
X217873390Y-90669047D01*
X217873390Y-90669047D02*
X217921009Y-90764285D01*
X217921009Y-90764285D02*
X217968628Y-90811904D01*
X217968628Y-90811904D02*
X218063866Y-90859523D01*
X218063866Y-90859523D02*
X218254342Y-90859523D01*
X218254342Y-90859523D02*
X218349580Y-90811904D01*
X218349580Y-90811904D02*
X218397200Y-90764285D01*
X218397200Y-90764285D02*
X218444819Y-90669047D01*
X218444819Y-90669047D02*
X218444819Y-90478571D01*
X218444819Y-90478571D02*
X218397200Y-90383333D01*
X218397200Y-90383333D02*
X218349580Y-90335714D01*
X218349580Y-90335714D02*
X218254342Y-90288095D01*
X218254342Y-90288095D02*
X218063866Y-90288095D01*
X218063866Y-90288095D02*
X217968628Y-90335714D01*
X217968628Y-90335714D02*
X217921009Y-90383333D01*
X217921009Y-90383333D02*
X217873390Y-90478571D01*
D11*
X220897619Y-60941923D02*
X221011905Y-60941923D01*
X220954762Y-61141923D02*
X220954762Y-60941923D01*
X221078572Y-61141923D02*
X221078572Y-60941923D01*
X221078572Y-60941923D02*
X221154762Y-60941923D01*
X221154762Y-60941923D02*
X221173810Y-60951447D01*
X221173810Y-60951447D02*
X221183333Y-60960971D01*
X221183333Y-60960971D02*
X221192857Y-60980019D01*
X221192857Y-60980019D02*
X221192857Y-61008590D01*
X221192857Y-61008590D02*
X221183333Y-61027638D01*
X221183333Y-61027638D02*
X221173810Y-61037161D01*
X221173810Y-61037161D02*
X221154762Y-61046685D01*
X221154762Y-61046685D02*
X221078572Y-61046685D01*
X221373810Y-60941923D02*
X221278572Y-60941923D01*
X221278572Y-60941923D02*
X221269048Y-61037161D01*
X221269048Y-61037161D02*
X221278572Y-61027638D01*
X221278572Y-61027638D02*
X221297619Y-61018114D01*
X221297619Y-61018114D02*
X221345238Y-61018114D01*
X221345238Y-61018114D02*
X221364286Y-61027638D01*
X221364286Y-61027638D02*
X221373810Y-61037161D01*
X221373810Y-61037161D02*
X221383333Y-61056209D01*
X221383333Y-61056209D02*
X221383333Y-61103828D01*
X221383333Y-61103828D02*
X221373810Y-61122876D01*
X221373810Y-61122876D02*
X221364286Y-61132400D01*
X221364286Y-61132400D02*
X221345238Y-61141923D01*
X221345238Y-61141923D02*
X221297619Y-61141923D01*
X221297619Y-61141923D02*
X221278572Y-61132400D01*
X221278572Y-61132400D02*
X221269048Y-61122876D01*
%TO.C,U9*%
D12*
X210769822Y-62690000D02*
G75*
G02*
X210629466Y-62690000I-70178J0D01*
G01*
X210629466Y-62690000D02*
G75*
G02*
X210769822Y-62690000I70178J0D01*
G01*
D13*
X211210000Y-63900000D02*
X212010000Y-63900000D01*
X211210000Y-62580000D02*
X212010000Y-62580000D01*
%TO.C,J5*%
X164180000Y-104380000D02*
X174220000Y-104380000D01*
X164180000Y-124620000D02*
X164180000Y-104380000D01*
X167200000Y-124620000D02*
X167200000Y-104380000D01*
X172100000Y-124620000D02*
X172100000Y-104380000D01*
X173600000Y-124620000D02*
X173600000Y-104380000D01*
X174220000Y-104380000D02*
X174220000Y-121700000D01*
X174220000Y-122300000D02*
X174220000Y-124620000D01*
X174220000Y-124620000D02*
X164180000Y-124620000D01*
X174830000Y-122440000D02*
X174220000Y-122000000D01*
X174830000Y-121560000D01*
X174830000Y-122440000D01*
G36*
X174830000Y-122440000D02*
G01*
X174220000Y-122000000D01*
X174830000Y-121560000D01*
X174830000Y-122440000D01*
G37*
%TO.C,R5*%
X226987258Y-58117500D02*
X226512742Y-58117500D01*
X226987258Y-59162500D02*
X226512742Y-59162500D01*
%TO.C,C16*%
X180990000Y-119540580D02*
X180990000Y-119259420D01*
X182010000Y-119540580D02*
X182010000Y-119259420D01*
%TO.C,C24*%
X192990000Y-115315580D02*
X192990000Y-115034420D01*
X194010000Y-115315580D02*
X194010000Y-115034420D01*
%TO.C,U8*%
D14*
X212100000Y-102830000D02*
X212100000Y-99170000D01*
X217100000Y-102830000D02*
X217100000Y-99170000D01*
D15*
X212300000Y-105200000D02*
G75*
G02*
X212100000Y-105200000I-100000J0D01*
G01*
X212100000Y-105200000D02*
G75*
G02*
X212300000Y-105200000I100000J0D01*
G01*
%TO.C,C4*%
D13*
X181065580Y-98990000D02*
X180784420Y-98990000D01*
X181065580Y-100010000D02*
X180784420Y-100010000D01*
%TO.C,C25*%
X186815000Y-74915580D02*
X186815000Y-74634420D01*
X187835000Y-74915580D02*
X187835000Y-74634420D01*
%TO.C,M3*%
X220352500Y-100880000D02*
X230392500Y-100880000D01*
X220352500Y-111120000D02*
X220352500Y-100880000D01*
X223372500Y-111120000D02*
X223372500Y-100880000D01*
X228272500Y-111120000D02*
X228272500Y-100880000D01*
X229772500Y-111120000D02*
X229772500Y-100880000D01*
X230392500Y-100880000D02*
X230392500Y-108200000D01*
X230392500Y-108800000D02*
X230392500Y-111120000D01*
X230392500Y-111120000D02*
X220352500Y-111120000D01*
X231002500Y-108940000D02*
X230392500Y-108500000D01*
X231002500Y-108060000D01*
X231002500Y-108940000D01*
G36*
X231002500Y-108940000D02*
G01*
X230392500Y-108500000D01*
X231002500Y-108060000D01*
X231002500Y-108940000D01*
G37*
%TO.C,R6*%
X185737258Y-56977500D02*
X185262742Y-56977500D01*
X185737258Y-58022500D02*
X185262742Y-58022500D01*
%TO.C,C2*%
X181065580Y-94990000D02*
X180784420Y-94990000D01*
X181065580Y-96010000D02*
X180784420Y-96010000D01*
%TO.C,R18*%
X214762742Y-57477500D02*
X215237258Y-57477500D01*
X214762742Y-58522500D02*
X215237258Y-58522500D01*
%TO.C,J2*%
D16*
X162250200Y-51852450D02*
X163244100Y-51852450D01*
X162250200Y-61047250D02*
X162250200Y-51852450D01*
X163244100Y-61047250D02*
X162250200Y-61047250D01*
X166420300Y-51852450D02*
X167203800Y-51852450D01*
X167203800Y-61047250D02*
X166420300Y-61047250D01*
%TO.C,U5*%
D14*
X197475000Y-105930000D02*
X197475000Y-102270000D01*
X202475000Y-105930000D02*
X202475000Y-102270000D01*
D15*
X197675000Y-108300000D02*
G75*
G02*
X197475000Y-108300000I-100000J0D01*
G01*
X197475000Y-108300000D02*
G75*
G02*
X197675000Y-108300000I100000J0D01*
G01*
%TO.C,J6*%
D13*
X229755000Y-61765000D02*
X230500000Y-61765000D01*
X229755000Y-62500000D02*
X229755000Y-61765000D01*
X229755000Y-63235000D02*
X229755000Y-78110000D01*
X229755000Y-63235000D02*
X229814435Y-63235000D01*
X229755000Y-78110000D02*
X230089970Y-78110000D01*
X230910030Y-78110000D02*
X231245000Y-78110000D01*
X231185565Y-63235000D02*
X231245000Y-63235000D01*
X231245000Y-63235000D02*
X231245000Y-78110000D01*
%TO.C,C17*%
X199665000Y-98015580D02*
X199665000Y-97734420D01*
X200685000Y-98015580D02*
X200685000Y-97734420D01*
%TO.C,TP11*%
X211050000Y-65300000D02*
X212450000Y-65300000D01*
X211050000Y-66700000D02*
X211050000Y-65300000D01*
X212450000Y-65300000D02*
X212450000Y-66700000D01*
X212450000Y-66700000D02*
X211050000Y-66700000D01*
%TO.C,R20*%
X220087742Y-64477500D02*
X220562258Y-64477500D01*
X220087742Y-65522500D02*
X220562258Y-65522500D01*
%TO.C,D1*%
X221727500Y-52765000D02*
X221727500Y-54235000D01*
X221727500Y-54235000D02*
X224012500Y-54235000D01*
X224012500Y-52765000D02*
X221727500Y-52765000D01*
%TO.C,C3*%
X181065580Y-96990000D02*
X180784420Y-96990000D01*
X181065580Y-98010000D02*
X180784420Y-98010000D01*
%TO.C,SW2*%
X175350000Y-53400000D02*
X175350000Y-57600000D01*
X175350000Y-57600000D02*
X175740000Y-57600000D01*
X175740000Y-53400000D02*
X175350000Y-53400000D01*
X178260000Y-53400000D02*
X178650000Y-53400000D01*
X178650000Y-53400000D02*
X178650000Y-57600000D01*
X178650000Y-57600000D02*
X178260000Y-57600000D01*
%TO.C,TP7*%
X186125000Y-71300000D02*
X187525000Y-71300000D01*
X186125000Y-72700000D02*
X186125000Y-71300000D01*
X187525000Y-71300000D02*
X187525000Y-72700000D01*
X187525000Y-72700000D02*
X186125000Y-72700000D01*
%TO.C,R1*%
X172978200Y-53237258D02*
X172978200Y-52762742D01*
X174023200Y-53237258D02*
X174023200Y-52762742D01*
%TO.C,D5*%
X178500000Y-73340000D02*
X178500000Y-74360000D01*
X178500000Y-80820000D02*
X178500000Y-79800000D01*
X179970000Y-75140000D02*
X177030000Y-75140000D01*
X179970000Y-75260000D02*
X177030000Y-75260000D01*
X179970000Y-75380000D02*
X177030000Y-75380000D01*
X177030000Y-74360000D02*
X179970000Y-74360000D01*
X179970000Y-79800000D01*
X177030000Y-79800000D01*
X177030000Y-74360000D01*
%TO.C,J4*%
X164380000Y-126680000D02*
X209620000Y-126680000D01*
X164380000Y-129700000D02*
X209620000Y-129700000D01*
X164380000Y-134600000D02*
X209620000Y-134600000D01*
X164380000Y-136100000D02*
X209620000Y-136100000D01*
X164380000Y-136720000D02*
X164380000Y-126680000D01*
X166700000Y-136720000D02*
X164380000Y-136720000D01*
X209620000Y-126680000D02*
X209620000Y-136720000D01*
X209620000Y-136720000D02*
X167300000Y-136720000D01*
X167440000Y-137330000D02*
X166560000Y-137330000D01*
X167000000Y-136720000D01*
X167440000Y-137330000D01*
G36*
X167440000Y-137330000D02*
G01*
X166560000Y-137330000D01*
X167000000Y-136720000D01*
X167440000Y-137330000D01*
G37*
%TO.C,C23*%
X197315580Y-98090000D02*
X197034420Y-98090000D01*
X197315580Y-99110000D02*
X197034420Y-99110000D01*
%TO.C,C26*%
X216640580Y-106990000D02*
X216359420Y-106990000D01*
X216640580Y-108010000D02*
X216359420Y-108010000D01*
%TO.C,TP3*%
X211475000Y-53800000D02*
X212875000Y-53800000D01*
X211475000Y-55200000D02*
X211475000Y-53800000D01*
X212875000Y-53800000D02*
X212875000Y-55200000D01*
X212875000Y-55200000D02*
X211475000Y-55200000D01*
%TO.C,R4*%
X226987258Y-55502500D02*
X226512742Y-55502500D01*
X226987258Y-56547500D02*
X226512742Y-56547500D01*
%TO.C,R19*%
X178977500Y-119162742D02*
X178977500Y-119637258D01*
X180022500Y-119162742D02*
X180022500Y-119637258D01*
%TO.C,TP6*%
X199300000Y-81950000D02*
X200700000Y-81950000D01*
X199300000Y-83350000D02*
X199300000Y-81950000D01*
X200700000Y-81950000D02*
X200700000Y-83350000D01*
X200700000Y-83350000D02*
X199300000Y-83350000D01*
%TO.C,R30*%
X201477500Y-73562258D02*
X201477500Y-73087742D01*
X202522500Y-73562258D02*
X202522500Y-73087742D01*
%TO.C,R27*%
X189587742Y-74477500D02*
X190062258Y-74477500D01*
X189587742Y-75522500D02*
X190062258Y-75522500D01*
%TO.C,C15*%
X217140000Y-67140580D02*
X217140000Y-66859420D01*
X218160000Y-67140580D02*
X218160000Y-66859420D01*
%TO.C,R15*%
X201437742Y-111577500D02*
X201912258Y-111577500D01*
X201437742Y-112622500D02*
X201912258Y-112622500D01*
%TO.C,R3*%
X226987258Y-52937500D02*
X226512742Y-52937500D01*
X226987258Y-53982500D02*
X226512742Y-53982500D01*
%TO.C,M2*%
X220352500Y-126380000D02*
X230392500Y-126380000D01*
X220352500Y-136620000D02*
X220352500Y-126380000D01*
X223372500Y-136620000D02*
X223372500Y-126380000D01*
X228272500Y-136620000D02*
X228272500Y-126380000D01*
X229772500Y-136620000D02*
X229772500Y-126380000D01*
X230392500Y-126380000D02*
X230392500Y-133700000D01*
X230392500Y-134300000D02*
X230392500Y-136620000D01*
X230392500Y-136620000D02*
X220352500Y-136620000D01*
X231002500Y-134440000D02*
X230392500Y-134000000D01*
X231002500Y-133560000D01*
X231002500Y-134440000D01*
G36*
X231002500Y-134440000D02*
G01*
X230392500Y-134000000D01*
X231002500Y-133560000D01*
X231002500Y-134440000D01*
G37*
%TO.C,C22*%
X193709420Y-122490000D02*
X193990580Y-122490000D01*
X193709420Y-123510000D02*
X193990580Y-123510000D01*
%TO.C,C5*%
X184490000Y-54640580D02*
X184490000Y-54359420D01*
X185510000Y-54640580D02*
X185510000Y-54359420D01*
%TO.C,D2*%
X221727500Y-55330000D02*
X221727500Y-56800000D01*
X221727500Y-56800000D02*
X224012500Y-56800000D01*
X224012500Y-55330000D02*
X221727500Y-55330000D01*
%TO.C,C29*%
X219490000Y-94915580D02*
X219490000Y-94634420D01*
X220510000Y-94915580D02*
X220510000Y-94634420D01*
%TO.C,TP4*%
X196800000Y-75300000D02*
X198200000Y-75300000D01*
X196800000Y-76700000D02*
X196800000Y-75300000D01*
X198200000Y-75300000D02*
X198200000Y-76700000D01*
X198200000Y-76700000D02*
X196800000Y-76700000D01*
%TO.C,R17*%
X215237258Y-54477500D02*
X214762742Y-54477500D01*
X215237258Y-55522500D02*
X214762742Y-55522500D01*
%TO.C,C18*%
X193709420Y-117490000D02*
X193990580Y-117490000D01*
X193709420Y-118510000D02*
X193990580Y-118510000D01*
%TO.C,J1*%
X164280000Y-77380000D02*
X174320000Y-77380000D01*
X164280000Y-79700000D02*
X164280000Y-77380000D01*
X164280000Y-102620000D02*
X164280000Y-80300000D01*
X164900000Y-77380000D02*
X164900000Y-102620000D01*
X166400000Y-77380000D02*
X166400000Y-102620000D01*
X171300000Y-77380000D02*
X171300000Y-102620000D01*
X174320000Y-77380000D02*
X174320000Y-102620000D01*
X174320000Y-102620000D02*
X164280000Y-102620000D01*
X164280000Y-80000000D02*
X163670000Y-80440000D01*
X163670000Y-79560000D01*
X164280000Y-80000000D01*
G36*
X164280000Y-80000000D02*
G01*
X163670000Y-80440000D01*
X163670000Y-79560000D01*
X164280000Y-80000000D01*
G37*
%TO.C,C19*%
X202490000Y-98015580D02*
X202490000Y-97734420D01*
X203510000Y-98015580D02*
X203510000Y-97734420D01*
%TO.C,R14*%
X196587742Y-109477500D02*
X197062258Y-109477500D01*
X196587742Y-110522500D02*
X197062258Y-110522500D01*
%TO.C,M1*%
X220352500Y-113380000D02*
X230392500Y-113380000D01*
X220352500Y-123620000D02*
X220352500Y-113380000D01*
X223372500Y-123620000D02*
X223372500Y-113380000D01*
X228272500Y-123620000D02*
X228272500Y-113380000D01*
X229772500Y-123620000D02*
X229772500Y-113380000D01*
X230392500Y-113380000D02*
X230392500Y-120700000D01*
X230392500Y-121300000D02*
X230392500Y-123620000D01*
X230392500Y-123620000D02*
X220352500Y-123620000D01*
X231002500Y-121440000D02*
X230392500Y-121000000D01*
X231002500Y-120560000D01*
X231002500Y-121440000D01*
G36*
X231002500Y-121440000D02*
G01*
X230392500Y-121000000D01*
X231002500Y-120560000D01*
X231002500Y-121440000D01*
G37*
%TO.C,C30*%
X211165580Y-94990000D02*
X210884420Y-94990000D01*
X211165580Y-96010000D02*
X210884420Y-96010000D01*
%TO.C,R16*%
X180977500Y-115262742D02*
X180977500Y-115737258D01*
X182022500Y-115262742D02*
X182022500Y-115737258D01*
%TO.C,TP12*%
X188800000Y-83880000D02*
X190200000Y-83880000D01*
X188800000Y-85280000D02*
X188800000Y-83880000D01*
X190200000Y-83880000D02*
X190200000Y-85280000D01*
X190200000Y-85280000D02*
X188800000Y-85280000D01*
%TO.C,C13*%
X211990000Y-57134420D02*
X211990000Y-57415580D01*
X213010000Y-57134420D02*
X213010000Y-57415580D01*
%TO.C,R21*%
X196977500Y-73562258D02*
X196977500Y-73087742D01*
X198022500Y-73562258D02*
X198022500Y-73087742D01*
%TO.C,R24*%
X211087742Y-106477500D02*
X211562258Y-106477500D01*
X211087742Y-107522500D02*
X211562258Y-107522500D01*
%TO.C,U1*%
X190500000Y-44740000D02*
X190500000Y-51490000D01*
X190500000Y-44740000D02*
X208500000Y-44740000D01*
X190500000Y-69490000D02*
X190500000Y-70240000D01*
X190500000Y-70240000D02*
X191500000Y-70240000D01*
X208500000Y-44740000D02*
X208500000Y-51490000D01*
X208500000Y-50680000D02*
X190500000Y-50680000D01*
X208500000Y-69490000D02*
X208500000Y-70240000D01*
X208500000Y-70240000D02*
X207500000Y-70240000D01*
%TO.C,J11*%
X164107500Y-65380000D02*
X174147500Y-65380000D01*
X164107500Y-67700000D02*
X164107500Y-65380000D01*
X164107500Y-75620000D02*
X164107500Y-68300000D01*
X164727500Y-65380000D02*
X164727500Y-75620000D01*
X166227500Y-65380000D02*
X166227500Y-75620000D01*
X171127500Y-65380000D02*
X171127500Y-75620000D01*
X174147500Y-65380000D02*
X174147500Y-75620000D01*
X174147500Y-75620000D02*
X164107500Y-75620000D01*
X164107500Y-68000000D02*
X163497500Y-68440000D01*
X163497500Y-67560000D01*
X164107500Y-68000000D01*
G36*
X164107500Y-68000000D02*
G01*
X163497500Y-68440000D01*
X163497500Y-67560000D01*
X164107500Y-68000000D01*
G37*
%TO.C,R22*%
X220562258Y-66477500D02*
X220087742Y-66477500D01*
X220562258Y-67522500D02*
X220087742Y-67522500D01*
%TO.C,U2*%
X186150000Y-93090000D02*
X189910000Y-93090000D01*
X186150000Y-99910000D02*
X189910000Y-99910000D01*
X189910000Y-93090000D02*
X189910000Y-94350000D01*
X189910000Y-99910000D02*
X189910000Y-98650000D01*
X184870000Y-93190000D02*
X184630000Y-92860000D01*
X185110000Y-92860000D01*
X184870000Y-93190000D01*
G36*
X184870000Y-93190000D02*
G01*
X184630000Y-92860000D01*
X185110000Y-92860000D01*
X184870000Y-93190000D01*
G37*
%TO.C,D3*%
X221727500Y-57945000D02*
X221727500Y-59415000D01*
X221727500Y-59415000D02*
X224012500Y-59415000D01*
X224012500Y-57945000D02*
X221727500Y-57945000D01*
%TO.C,C21*%
X204490000Y-98015580D02*
X204490000Y-97734420D01*
X205510000Y-98015580D02*
X205510000Y-97734420D01*
%TO.C,C14*%
X201815580Y-109590000D02*
X201534420Y-109590000D01*
X201815580Y-110610000D02*
X201534420Y-110610000D01*
%TO.C,R31*%
X186737258Y-84057500D02*
X186262742Y-84057500D01*
X186737258Y-85102500D02*
X186262742Y-85102500D01*
%TO.C,R2*%
X170977500Y-55587742D02*
X170977500Y-56062258D01*
X172022500Y-55587742D02*
X172022500Y-56062258D01*
%TO.C,TP9*%
X201300000Y-75300000D02*
X202700000Y-75300000D01*
X201300000Y-76700000D02*
X201300000Y-75300000D01*
X202700000Y-75300000D02*
X202700000Y-76700000D01*
X202700000Y-76700000D02*
X201300000Y-76700000D01*
%TO.C,U7*%
D14*
X185670000Y-115900000D02*
X189330000Y-115900000D01*
X185670000Y-120900000D02*
X189330000Y-120900000D01*
D15*
X183400000Y-116000000D02*
G75*
G02*
X183200000Y-116000000I-100000J0D01*
G01*
X183200000Y-116000000D02*
G75*
G02*
X183400000Y-116000000I100000J0D01*
G01*
%TO.C,C27*%
D13*
X213490000Y-94915580D02*
X213490000Y-94634420D01*
X214510000Y-94915580D02*
X214510000Y-94634420D01*
%TO.C,C20*%
X193709420Y-120490000D02*
X193990580Y-120490000D01*
X193709420Y-121510000D02*
X193990580Y-121510000D01*
%TO.C,SW1*%
X210400000Y-71850000D02*
X214600000Y-71850000D01*
X210400000Y-72240000D02*
X210400000Y-71850000D01*
X210400000Y-74760000D02*
X210400000Y-75150000D01*
X210400000Y-75150000D02*
X214600000Y-75150000D01*
X214600000Y-71850000D02*
X214600000Y-72240000D01*
X214600000Y-75150000D02*
X214600000Y-74760000D01*
%TO.C,R26*%
X190062258Y-72477500D02*
X189587742Y-72477500D01*
X190062258Y-73522500D02*
X189587742Y-73522500D01*
%TO.C,C1*%
X182640000Y-101859420D02*
X182640000Y-102140580D01*
X183660000Y-101859420D02*
X183660000Y-102140580D01*
%TO.C,R25*%
X216262742Y-109477500D02*
X216737258Y-109477500D01*
X216262742Y-110522500D02*
X216737258Y-110522500D01*
%TO.C,R23*%
X199477500Y-80062258D02*
X199477500Y-79587742D01*
X200522500Y-80062258D02*
X200522500Y-79587742D01*
%TO.C,R32*%
X185477500Y-82317258D02*
X185477500Y-81842742D01*
X186522500Y-82317258D02*
X186522500Y-81842742D01*
%TO.C,Q2*%
X181740000Y-81020000D02*
X183260000Y-81020000D01*
X181740000Y-82020000D02*
X181740000Y-81020000D01*
X181740000Y-84140000D02*
X181740000Y-83140000D01*
X183260000Y-81020000D02*
X183260000Y-81070000D01*
X183260000Y-82190000D02*
X183260000Y-82970000D01*
X183260000Y-84090000D02*
X183260000Y-84140000D01*
X183260000Y-84140000D02*
X181740000Y-84140000D01*
X183800000Y-82960000D02*
X183560000Y-82630000D01*
X184040000Y-82630000D01*
X183800000Y-82960000D01*
G36*
X183800000Y-82960000D02*
G01*
X183560000Y-82630000D01*
X184040000Y-82630000D01*
X183800000Y-82960000D01*
G37*
%TO.C,C28*%
X217490000Y-94915580D02*
X217490000Y-94634420D01*
X218510000Y-94915580D02*
X218510000Y-94634420D01*
%TO.C,TP5*%
X216950000Y-63300000D02*
X218350000Y-63300000D01*
X216950000Y-64700000D02*
X216950000Y-63300000D01*
X218350000Y-63300000D02*
X218350000Y-64700000D01*
X218350000Y-64700000D02*
X216950000Y-64700000D01*
%TD*%
M02*
