M48
; DRILL file KiCad 10.0.0 date 2026-04-29T22:58:17
; FORMAT={-:-/ absolute / metric / decimal}
; #@! TF.CreationDate,2026-04-29T22:58:17-07:00
; #@! TF.GenerationSoftware,Kicad,Pcbnew,10.0.0
; #@! TF.FileFunction,Plated,1,4,PTH
FMAT,2
METRIC
; #@! TA.AperFunction,Plated,PTH,ComponentDrill
T1C0.102
; #@! TA.AperFunction,Plated,PTH,ComponentDrill
T2C0.200
; #@! TA.AperFunction,Plated,PTH,ViaDrill
T3C0.300
; #@! TA.AperFunction,Plated,PTH,ComponentDrill
T4C0.500
; #@! TA.AperFunction,Plated,PTH,ComponentDrill
T5C0.610
; #@! TA.AperFunction,Plated,PTH,ComponentDrill
T6C1.100
; #@! TA.AperFunction,Plated,PTH,ComponentDrill
T7C1.300
%
G90
G05
T1
X211.61Y-63.24
T2
X186.5Y-116.6
X186.5Y-117.8
X186.5Y-119.0
X186.5Y-120.2
X187.5Y-116.6
X187.5Y-117.8
X187.5Y-119.0
X187.5Y-120.2
X188.5Y-116.6
X188.5Y-117.8
X188.5Y-119.0
X188.5Y-120.2
X198.175Y-103.1
X198.175Y-104.1
X198.175Y-105.1
X199.375Y-103.1
X199.375Y-104.1
X199.375Y-105.1
X200.575Y-103.1
X200.575Y-104.1
X200.575Y-105.1
X201.775Y-103.1
X201.775Y-104.1
X201.775Y-105.1
X212.8Y-100.0
X212.8Y-101.0
X212.8Y-102.0
X214.0Y-100.0
X214.0Y-101.0
X214.0Y-102.0
X215.2Y-100.0
X215.2Y-101.0
X215.2Y-102.0
X216.4Y-100.0
X216.4Y-101.0
X216.4Y-102.0
T3
X165.0Y-104.0
X169.5Y-125.5
X170.066Y-56.995
X170.066Y-55.995
X171.5Y-59.0
X172.0Y-112.0
X172.5Y-107.0
X175.0Y-73.0
X175.0Y-107.5
X175.5Y-51.5
X180.0Y-100.5
X180.5Y-113.5
X180.5Y-121.0
X181.0Y-80.5
X181.5Y-94.0
X181.5Y-101.0
X182.5Y-117.5
X183.0Y-111.5
X183.0Y-115.0
X183.0Y-119.425
X183.5Y-55.0
X183.5Y-57.325
X184.0Y-115.0
X184.0Y-115.0
X184.6Y-114.0
X185.0Y-121.5
X185.6Y-80.0
X186.0Y-111.5
X186.6Y-101.5
X187.5Y-57.5
X187.5Y-66.0
X187.5Y-67.5
X187.5Y-69.0
X188.0Y-121.5
X188.5Y-53.5
X188.5Y-61.5
X189.0Y-75.9
X189.0Y-77.1
X190.5Y-115.0
X190.5Y-121.5
X191.0Y-76.5
X192.0Y-61.6
X192.0Y-63.0
X192.0Y-120.075
X192.5Y-55.0
X193.0Y-87.5
X193.0Y-89.5
X193.0Y-124.4
X193.6Y-90.5
X194.0Y-86.5
X194.5Y-110.0
X194.6Y-76.5
X195.124Y-74.124
X195.5Y-60.0
X195.5Y-62.5
X195.5Y-72.0
X195.5Y-77.5
X196.0Y-107.7
X196.0Y-108.5
X196.5Y-71.9
X197.0Y-57.5
X197.0Y-101.5
X197.0Y-126.0
X197.0Y-126.0
X197.5Y-62.5
X197.5Y-77.5
X197.5Y-80.5
X198.5Y-57.5
X198.5Y-63.0
X198.5Y-83.0
X199.7Y-108.5
X200.0Y-57.5
X200.0Y-73.0
X200.0Y-77.5
X200.5Y-59.5
X201.0Y-73.5
X201.0Y-108.5
X202.0Y-77.5
X202.0Y-99.5
X202.5Y-113.0
X202.9Y-108.5
X203.0Y-105.0
X203.5Y-101.0
X203.5Y-107.0
X204.0Y-81.0
X204.5Y-108.5
X204.5Y-108.5
X205.0Y-100.0
X206.0Y-78.5
X207.0Y-105.0
X207.4Y-81.0
X207.4Y-82.0
X208.0Y-106.0
X208.6Y-81.0
X209.1Y-82.0
X210.0Y-52.0
X210.0Y-55.0
X210.0Y-61.1
X210.0Y-63.0
X210.0Y-66.0
X210.0Y-67.0
X210.0Y-68.0
X210.0Y-71.5
X210.0Y-79.5
X210.0Y-103.5
X210.0Y-108.0
X210.5Y-62.0
X210.5Y-64.5
X210.5Y-104.9
X210.6Y-58.5
X211.0Y-55.5
X211.0Y-59.5
X211.5Y-100.0
X212.0Y-87.5
X213.0Y-62.5
X213.5Y-56.5
X213.5Y-66.5
X213.9Y-63.5
X214.0Y-106.4
X214.5Y-59.5
X215.5Y-57.0
X215.525Y-105.5
X215.792Y-71.141
X217.0Y-69.0
X217.0Y-111.5
X217.5Y-97.65
X217.5Y-100.5
X221.0Y-95.5
X222.5Y-60.0
X227.0Y-76.5
X227.5Y-63.9
X228.5Y-56.0
X229.0Y-63.5
T4
X230.5Y-62.5
X230.5Y-63.5
X230.5Y-64.5
X230.5Y-65.5
X230.5Y-66.5
X230.5Y-67.5
X230.5Y-68.5
X230.5Y-69.5
X230.5Y-70.5
X230.5Y-71.5
X230.5Y-72.5
X230.5Y-73.5
X230.5Y-74.5
X230.5Y-75.5
X230.5Y-76.5
X230.5Y-77.5
T5
X164.184Y-52.13
X164.184Y-60.77
X165.48Y-52.13
X165.48Y-60.77
X167.932Y-53.45
X167.932Y-59.336
X167.932Y-59.564
X168.157Y-52.13
X168.157Y-60.77
X169.147Y-52.13
X169.147Y-60.77
T6
X178.5Y-72.0
X178.5Y-82.16
T7
X167.0Y-132.0
X168.827Y-68.0
X168.827Y-73.0
X169.0Y-80.0
X169.0Y-85.0
X169.0Y-90.0
X169.0Y-95.0
X169.0Y-100.0
X169.5Y-107.0
X169.5Y-112.0
X169.5Y-117.0
X169.5Y-122.0
X172.0Y-132.0
X177.0Y-132.0
X182.0Y-132.0
X187.0Y-132.0
X192.0Y-132.0
X197.0Y-132.0
X202.0Y-132.0
X207.0Y-132.0
X225.672Y-103.5
X225.672Y-108.5
X225.672Y-116.0
X225.672Y-121.0
X225.672Y-129.0
X225.672Y-134.0
M30
